<?xml version="1.0" encoding="iso-8859-1"?>
<!-- Generator: Adobe Illustrator 18.0.0, SVG Export Plug-In . SVG Version: 6.00 Build 0)  -->
<!DOCTYPE svg PUBLIC "-//W3C//DTD SVG 1.1//EN" "http://www.w3.org/Graphics/SVG/1.1/DTD/svg11.dtd">
<svg version="1.1" id="Capa_1"
  xmlns="http://www.w3.org/2000/svg"
  xmlns:xlink="http://www.w3.org/1999/xlink" x="0px" y="0px" viewBox="0 0 427.23 427.23" style="enable-background:new 0 0 427.23 427.23;" xml:space="preserve">
  <g>
    <path fill="#FFFFFF" fill-opacity="0.8" d="M67.696,307.316c-4.762,5.041-8.733,10.13-11.985,14.854c5.562-31.042,16.4-51.381,16.53-51.621
		c1.053-1.942,0.332-4.37-1.61-5.423c-1.941-1.052-4.37-0.333-5.423,1.61c-0.672,1.24-16.504,30.869-20.039,74.527
		c-0.157,1.932,1.095,3.699,2.97,4.191c0.339,0.089,0.68,0.132,1.018,0.132c1.528,0,2.963-0.88,3.629-2.321
		c2.882-6.231,9.407-18.474,20.726-30.456c1.517-1.605,1.445-4.137-0.161-5.654C71.745,305.638,69.214,305.709,67.696,307.316z"/>
    <path fill="#FFFFFF" fill-opacity="0.8" d="M422.489,148.053c-6.892-16.608-20.628-29.394-37.687-35.08l-25.211-8.403c-1.826-6.073-16.377-42.708-103.518-53.102
		c-46.394-5.535-92.042,2.832-128.529,23.557c-38.366,21.791-62.725,55.568-68.587,95.11
		c-8.111,54.706-18.837,111.002-42.199,152.15c-0.886,1.561-0.624,3.52,0.64,4.793c1.265,1.272,3.222,1.549,4.789,0.674l3.348-1.87
		c-4.232,11.011-12.406,29.411-24.683,45.076c-1.363,1.739-1.058,4.253,0.681,5.616c0.732,0.574,1.602,0.852,2.464,0.852
		c1.187,0,2.362-0.526,3.151-1.533c19.814-25.284,29.104-56.212,29.491-57.517c0.461-1.56-0.068-3.243-1.338-4.259
		c-1.27-1.015-3.028-1.16-4.448-0.368l-0.848,0.473c19.703-40.761,29.395-92.534,36.865-142.915
		c5.495-37.055,28.445-68.778,64.625-89.328c35.013-19.887,78.918-27.899,123.631-22.569c45.566,5.435,69.538,18.236,81.625,28.018
		c6.391,5.173,10.192,10.053,12.402,13.666c-6.091-1.984-12.767-0.476-17.45,3.958c-7.407,7.011-12.04,14.498-13.77,22.252
		c-1.152,5.165-4.966,9.043-9.952,10.121c-13.516,2.922-27.645,8.186-37.117,12.086c-8.897,3.664-13.645,13.417-11.042,22.688
		c2.594,9.24,11.694,15.1,21.162,13.637c10.924-1.692,27.985-3.742,45.629-3.561c-8.776,29.967-8.494,61.922,0.877,92.752
		c4.468,14.697,6.067,30.244,4.79,46.426c-1.984-3.605-4.743-7.338-8.561-10.95c-1.605-1.518-4.136-1.449-5.655,0.157
		c-1.518,1.605-1.448,4.137,0.157,5.655c12.974,12.274,10.901,25.845,10.811,26.394c-0.381,2.141,1.019,4.194,3.15,4.623
		c0.266,0.053,0.53,0.079,0.792,0.079c1.835,0,3.483-1.269,3.899-3.126c5.637-25.181,5.055-49.265-1.729-71.583
		c-9.124-30.013-9.178-61.122-0.234-90.166c7.903,0.421,15.748,1.366,23.041,3.07c27.544,6.437,41.673,5.524,48.023,4.204
		c2.068,6.685,1.969,14.806,1.528,18.812c-0.216,1.928,0.982,3.732,2.843,4.281c0.375,0.111,0.756,0.164,1.132,0.164
		c1.484,0,2.889-0.831,3.58-2.216l5.653-11.342C428.733,183.415,429.381,164.661,422.489,148.053z M359.772,177.815
		c-27.485-6.423-61.928-2.684-80.012,0.116c-5.471,0.851-10.734-2.545-12.236-7.893c-1.506-5.365,1.239-11.008,6.386-13.128
		c9.172-3.777,22.822-8.867,35.762-11.665c7.95-1.719,14.258-8.077,16.069-16.198c1.377-6.17,5.233-12.289,11.461-18.184
		c2.566-2.429,6.219-3.251,9.535-2.145l23.669,7.889c-0.591,4.846-2.698,14.622-10.184,19.124
		c-10.213,6.141-16.45,11.892-16.804,21.271c-6.257-0.731-12.811-1.168-19.596-1.168c-11.831,0-24.354,1.315-37.146,4.646
		c-1.604,0.418-3.199,0.795-4.742,1.122c-2.161,0.458-3.542,2.58-3.084,4.742c0.457,2.161,2.579,3.54,4.742,3.084
		c1.663-0.352,3.379-0.758,5.102-1.207c47.389-12.342,91.338,4.667,107.881,11.07l1.718,0.664c1.386,0.532,2.58,1.359,3.605,2.404
		C395.759,183.12,382.978,183.237,359.772,177.815z M414.905,193.009c-1.412-8.25-5.023-17.172-13.745-20.521l-1.698-0.655
		c-9.168-3.548-26.425-10.226-48.097-13.726c-0.119-5.234,2.567-9.257,12.979-15.518c9.612-5.78,12.759-16.803,13.79-23.404
		l4.139,1.38c14.859,4.952,26.824,16.089,32.827,30.556C420.689,164.588,420.585,179.678,414.905,193.009z"/>
    <path fill="#FFFFFF" fill-opacity="0.8" d="M345.057,135.195c0.221,0,0.444-0.018,0.669-0.056c15.646-2.635,19.388-9.145,19.979-10.423
		c0.928-2.005,0.054-4.382-1.951-5.31c-2.006-0.928-4.382-0.054-5.31,1.951c-1.037,2.242-8.237,4.905-14.05,5.894
		c-2.177,0.368-3.644,2.431-3.277,4.608C341.447,133.813,343.139,135.195,345.057,135.195z"/>
    <path fill="#FFFFFF" fill-opacity="0.8" d="M247.005,117.098c-12.209,8.026-23.936,5.252-24.485,5.115c-2.132-0.548-4.308,0.737-4.862,2.87
		c-0.555,2.138,0.728,4.322,2.866,4.877c0.28,0.073,3.224,0.807,7.711,0.807c4.814,0,11.406-0.856,18.388-4.268
		c0.303,1.647,0.778,3.272,1.474,4.842c2.313,5.211,6.516,9.208,11.83,11.25c1.527,0.589,3.239,0.883,5.133,0.883
		c4.017,0,8.847-1.323,14.432-3.958c5.654-2.668,10.107-5.747,10.294-5.877c1.345-0.934,1.984-2.593,1.615-4.188
		c-0.028-0.119-0.45-1.924-1.263-4.537c4.605-0.392,9.778-1.733,15.457-4.052c2.045-0.835,3.026-3.17,2.191-5.215
		c-0.834-2.045-3.168-3.025-5.215-2.191c-6.299,2.574-17.724,6.12-23.476,0.96c-12.743-11.431-33.9-8.151-34.793-8.005
		c-2.181,0.354-3.661,2.409-3.307,4.589c0.354,2.181,2.414,3.665,4.589,3.307c0.041-0.007,0.982-0.152,2.523-0.275
		c-0.145,0.327-0.294,0.651-0.423,0.986C247.42,115.704,247.196,116.399,247.005,117.098z M281.529,124.386
		c0.567,1.591,1.027,3.055,1.364,4.212c-6.528,4.063-15.83,8.172-20.091,6.528c-3.322-1.277-5.947-3.774-7.393-7.03
		c-1.445-3.257-1.537-6.881-0.26-10.202c0.493-1.276,1.169-2.464,2.011-3.529c0.066-0.084,0.11-0.177,0.168-0.264
		c3.364,0.33,7.037,1.064,10.437,2.526c-2.492,0.606-4.46,2.705-4.762,5.402c-0.386,3.449,2.097,6.559,5.547,6.945
		c3.449,0.386,6.559-2.097,6.945-5.547c0.067-0.596,0.042-1.18-0.052-1.744C277.237,122.925,279.265,123.834,281.529,124.386z"/>
    <path fill="#FFFFFF" fill-opacity="0.8" d="M129.403,300.335c-1.281-1.8-3.78-2.22-5.579-0.937c-15.4,10.97-29.449,27.907-40.371,48.478
		c-1.15-18.663,2.508-34.949,10.928-48.55c7.685-12.414,16.725-17.879,16.917-17.994c1.904-1.112,2.55-3.555,1.442-5.463
		c-1.109-1.91-3.556-2.561-5.468-1.45c-0.43,0.25-10.64,6.28-19.431,20.274c-8.005,12.743-16.358,34.869-10.694,67.914
		c0.298,1.74,1.702,3.079,3.455,3.294c0.164,0.02,0.327,0.03,0.49,0.03c1.569,0,3.015-0.925,3.66-2.39
		c10.94-24.874,26.465-45.34,43.714-57.627C130.265,304.632,130.685,302.135,129.403,300.335z"/>
    <path fill="#FFFFFF" fill-opacity="0.8" d="M185.161,299.332c-19.415,12.682-39.176,19.629-51.151,23.036c17.529-22.517,26.95-43.142,27.394-44.124
		c0.91-2.013,0.016-4.383-1.997-5.293c-2.015-0.91-4.383-0.015-5.293,1.997c-0.119,0.263-12.134,26.572-33.827,51.517
		c-1.111,1.278-1.297,3.117-0.464,4.592c0.717,1.271,2.058,2.033,3.482,2.033c0.229,0,0.459-0.02,0.69-0.06
		c1.35-0.236,33.422-6.019,65.541-27c1.85-1.208,2.37-3.687,1.161-5.536C189.489,298.643,187.01,298.123,185.161,299.332z"/>
    <path fill="#FFFFFF" fill-opacity="0.8" d="M305.624,288.425c-2.201,0.191-3.83,2.13-3.638,4.332c1.797,20.666-9.521,49.546-17.855,57.479
		c-7.55-6.922-12.983-18.384-15.422-32.673c-0.372-2.178-2.444-3.643-4.616-3.27c-2.178,0.372-3.642,2.438-3.27,4.616
		c3.019,17.688,10.383,31.749,20.736,39.59c0.709,0.538,1.56,0.812,2.416,0.812c0.649,0,1.301-0.158,1.896-0.479
		c12.809-6.899,26.09-43.715,24.085-66.768C309.764,289.862,307.841,288.23,305.624,288.425z"/>
    <path fill="#FFFFFF" fill-opacity="0.8" d="M246.585,318.281c-12.421,15.139-26.006,24.554-41.35,28.618c3.045-9.998,4.748-23.966,4.571-38.564
		c-0.128-10.625-1.265-20.452-3.285-28.418c-0.543-2.141-2.717-3.437-4.861-2.894c-2.142,0.543-3.437,2.72-2.894,4.861
		c1.868,7.364,2.919,16.545,3.041,26.548c0.207,17.106-2.348,33.638-6.508,42.116c-0.657,1.339-0.515,2.933,0.37,4.134
		c0.761,1.033,1.961,1.628,3.22,1.628c0.205,0,0.411-0.016,0.618-0.048c20.27-3.166,37.692-13.929,53.262-32.906
		c1.401-1.708,1.153-4.228-0.555-5.629C250.506,316.325,247.986,316.574,246.585,318.281z"/>
  </g>
  <g>
  </g>
  <g>
  </g>
  <g>
  </g>
  <g>
  </g>
  <g>
  </g>
  <g>
  </g>
  <g>
  </g>
  <g>
  </g>
  <g>
  </g>
  <g>
  </g>
  <g>
  </g>
  <g>
  </g>
  <g>
  </g>
  <g>
  </g>
  <g>
  </g>
</svg>
