<svg xmlns="http://www.w3.org/2000/svg" width="720" height="450"><path d="M408,236L443,259L445,196Z" fill="#0a6bac" stroke="#0a6bac" stroke-width="1.51"/><path d="M443,259L499,202L445,196Z" fill="#0b69aa" stroke="#0b69aa" stroke-width="1.51"/><path d="M473,275L499,202L443,259Z" fill="#0963a4" stroke="#0963a4" stroke-width="1.51"/><path d="M445,196L395,175L408,236Z" fill="#0b72b3" stroke="#0b72b3" stroke-width="1.51"/><path d="M481,168L420,164L445,196Z" fill="#0b74b4" stroke="#0b74b4" stroke-width="1.51"/><path d="M420,164L395,175L445,196Z" fill="#0c77b8" stroke="#0c77b8" stroke-width="1.51"/><path d="M499,202L481,168L445,196Z" fill="#0b6eae" stroke="#0b6eae" stroke-width="1.51"/><path d="M408,236L435,304L443,259Z" fill="#0964a5" stroke="#0964a5" stroke-width="1.51"/><path d="M443,259L435,304L473,275Z" fill="#085fa0" stroke="#085fa0" stroke-width="1.51"/><path d="M473,275L547,274L499,202Z" fill="#085e9f" stroke="#085e9f" stroke-width="1.51"/><path d="M435,304L486,292L473,275Z" fill="#085b9c" stroke="#085b9c" stroke-width="1.51"/><path d="M499,202L524,196L481,168Z" fill="#0b6aab" stroke="#0b6aab" stroke-width="1.51"/><path d="M547,274L524,196L499,202Z" fill="#0b61a0" stroke="#0b61a0" stroke-width="1.51"/><path d="M460,123L392,134L420,164Z" fill="#0c7ebf" stroke="#0c7ebf" stroke-width="1.51"/><path d="M420,164L392,134L395,175Z" fill="#0c7dbe" stroke="#0c7dbe" stroke-width="1.51"/><path d="M408,236L362,300L435,304Z" fill="#0a65a6" stroke="#0a65a6" stroke-width="1.51"/><path d="M352,301L362,300L324,240Z" fill="#0b6cad" stroke="#0b6cad" stroke-width="1.51"/><path d="M362,300L408,236L324,240Z" fill="#0b6eaf" stroke="#0b6eaf" stroke-width="1.51"/><path d="M481,168L460,123L420,164Z" fill="#0c78b8" stroke="#0c78b8" stroke-width="1.51"/><path d="M513,114L460,123L481,168Z" fill="#0c77b8" stroke="#0c77b8" stroke-width="1.51"/><path d="M362,300L436,348L435,304Z" fill="#085d9e" stroke="#085d9e" stroke-width="1.51"/><path d="M324,240L408,236L323,199Z" fill="#0c76b7" stroke="#0c76b7" stroke-width="1.51"/><path d="M323,199L408,236L395,175Z" fill="#0c77b8" stroke="#0c77b8" stroke-width="1.51"/><path d="M486,292L547,274L473,275Z" fill="#085899" stroke="#085899" stroke-width="1.51"/><path d="M329,157L323,199L395,175Z" fill="#0c80c1" stroke="#0c80c1" stroke-width="1.51"/><path d="M435,304L436,348L486,292Z" fill="#075899" stroke="#075899" stroke-width="1.51"/><path d="M486,292L543,303L547,274Z" fill="#095393" stroke="#095393" stroke-width="1.51"/><path d="M368,371L436,348L362,300Z" fill="#0c5c9a" stroke="#0c5c9a" stroke-width="1.51"/><path d="M504,353L543,303L486,292Z" fill="#065192" stroke="#065192" stroke-width="1.51"/><path d="M392,134L329,157L395,175Z" fill="#0c81c2" stroke="#0c81c2" stroke-width="1.51"/><path d="M524,196L547,150L481,168Z" fill="#0c6bac" stroke="#0c6bac" stroke-width="1.51"/><path d="M601,175L547,150L524,196Z" fill="#1265a1" stroke="#1265a1" stroke-width="1.51"/><path d="M547,150L513,114L481,168Z" fill="#0c71b2" stroke="#0c71b2" stroke-width="1.51"/><path d="M460,123L405,90L392,134Z" fill="#0e80c1" stroke="#0e80c1" stroke-width="1.51"/><path d="M352,301L331,330L362,300Z" fill="#0a66a7" stroke="#0a66a7" stroke-width="1.51"/><path d="M324,240L309,278L352,301Z" fill="#0b70b1" stroke="#0b70b1" stroke-width="1.51"/><path d="M265,257L309,278L324,240Z" fill="#0c76b7" stroke="#0c76b7" stroke-width="1.51"/><path d="M265,257L324,240L323,199Z" fill="#0c7bbc" stroke="#0c7bbc" stroke-width="1.51"/><path d="M420,53L405,90L460,123Z" fill="#1379be" stroke="#1379be" stroke-width="1.51"/><path d="M392,134L312,120L329,157Z" fill="#0c89c9" stroke="#0c89c9" stroke-width="1.51"/><path d="M436,348L504,353L486,292Z" fill="#075292" stroke="#075292" stroke-width="1.51"/><path d="M513,114L499,95L460,123Z" fill="#0e75b7" stroke="#0e75b7" stroke-width="1.51"/><path d="M519,69L499,95L513,114Z" fill="#116fb3" stroke="#116fb3" stroke-width="1.51"/><path d="M329,157L301,180L323,199Z" fill="#0c84c4" stroke="#0c84c4" stroke-width="1.51"/><path d="M283,133L301,180L329,157Z" fill="#0c8acb" stroke="#0c8acb" stroke-width="1.51"/><path d="M547,274L599,269L524,196Z" fill="#0f5894" stroke="#0f5894" stroke-width="1.51"/><path d="M543,303L577,280L547,274Z" fill="#0d518c" stroke="#0d518c" stroke-width="1.51"/><path d="M585,371L577,280L543,303Z" fill="#0d4983" stroke="#0d4983" stroke-width="1.51"/><path d="M309,278L331,330L352,301Z" fill="#0b6aab" stroke="#0b6aab" stroke-width="1.51"/><path d="M331,330L368,371L362,300Z" fill="#0c61a1" stroke="#0c61a1" stroke-width="1.51"/><path d="M516,398L541,374L504,353Z" fill="#0f457b" stroke="#0f457b" stroke-width="1.51"/><path d="M577,280L599,269L547,274Z" fill="#10508a" stroke="#10508a" stroke-width="1.51"/><path d="M621,281L599,269L577,280Z" fill="#114d83" stroke="#114d83" stroke-width="1.51"/><path d="M374,59L312,120L392,134Z" fill="#1086c8" stroke="#1086c8" stroke-width="1.51"/><path d="M599,269L601,175L524,196Z" fill="#125c95" stroke="#125c95" stroke-width="1.51"/><path d="M611,88L519,69L513,114Z" fill="#156aa9" stroke="#156aa9" stroke-width="1.51"/><path d="M405,90L374,59L392,134Z" fill="#1280c3" stroke="#1280c3" stroke-width="1.51"/><path d="M499,95L420,53L460,123Z" fill="#1276ba" stroke="#1276ba" stroke-width="1.51"/><path d="M216,220L265,257L301,180Z" fill="#0c84c4" stroke="#0c84c4" stroke-width="1.51"/><path d="M301,180L265,257L323,199Z" fill="#0c80c1" stroke="#0c80c1" stroke-width="1.51"/><path d="M258,315L298,369L331,330Z" fill="#0d67a6" stroke="#0d67a6" stroke-width="1.51"/><path d="M357,410L396,422L368,371Z" fill="#145185" stroke="#145185" stroke-width="1.51"/><path d="M499,95L499,54L420,53Z" fill="#1570b6" stroke="#1570b6" stroke-width="1.51"/><path d="M611,88L513,114L547,150Z" fill="#136eaa" stroke="#136eaa" stroke-width="1.51"/><path d="M504,353L541,374L543,303Z" fill="#0b4985" stroke="#0b4985" stroke-width="1.51"/><path d="M489,411L504,353L436,348Z" fill="#0f4b84" stroke="#0f4b84" stroke-width="1.51"/><path d="M368,371L439,407L436,348Z" fill="#115289" stroke="#115289" stroke-width="1.51"/><path d="M420,53L374,59L405,90Z" fill="#1679bf" stroke="#1679bf" stroke-width="1.51"/><path d="M312,120L283,133L329,157Z" fill="#0b8ece" stroke="#0b8ece" stroke-width="1.51"/><path d="M287,96L283,133L312,120Z" fill="#0e91d1" stroke="#0e91d1" stroke-width="1.51"/><path d="M519,69L499,54L499,95Z" fill="#136cb2" stroke="#136cb2" stroke-width="1.51"/><path d="M489,411L516,398L504,353Z" fill="#10447a" stroke="#10447a" stroke-width="1.51"/><path d="M599,269L656,208L601,175Z" fill="#155589" stroke="#155589" stroke-width="1.51"/><path d="M632,341L621,281L577,280Z" fill="#11477c" stroke="#11477c" stroke-width="1.51"/><path d="M439,407L489,411L436,348Z" fill="#124a7f" stroke="#124a7f" stroke-width="1.51"/><path d="M601,175L610,142L547,150Z" fill="#15659d" stroke="#15659d" stroke-width="1.51"/><path d="M615,131L610,142L681,117Z" fill="#186496" stroke="#186496" stroke-width="1.51"/><path d="M283,133L256,152L301,180Z" fill="#0c8ece" stroke="#0c8ece" stroke-width="1.51"/><path d="M255,115L256,152L283,133Z" fill="#0b94d4" stroke="#0b94d4" stroke-width="1.51"/><path d="M368,371L396,422L439,407Z" fill="#144f82" stroke="#144f82" stroke-width="1.51"/><path d="M439,407L477,474L489,411Z" fill="#14416f" stroke="#14416f" stroke-width="1.51"/><path d="M298,369L368,371L331,330Z" fill="#115f9a" stroke="#115f9a" stroke-width="1.51"/><path d="M258,315L331,330L309,278Z" fill="#0b6dae" stroke="#0b6dae" stroke-width="1.51"/><path d="M298,369L357,410L368,371Z" fill="#13598f" stroke="#13598f" stroke-width="1.51"/><path d="M302,64L287,96L312,120Z" fill="#148bcf" stroke="#148bcf" stroke-width="1.51"/><path d="M610,142L615,131L547,150Z" fill="#15679e" stroke="#15679e" stroke-width="1.51"/><path d="M519,69L502,18L499,54Z" fill="#1567af" stroke="#1567af" stroke-width="1.51"/><path d="M656,208L610,142L601,175Z" fill="#165d91" stroke="#165d91" stroke-width="1.51"/><path d="M265,257L258,315L309,278Z" fill="#0b75b6" stroke="#0b75b6" stroke-width="1.51"/><path d="M209,248L258,315L265,257Z" fill="#0c7bbc" stroke="#0c7bbc" stroke-width="1.51"/><path d="M621,281L639,271L599,269Z" fill="#134b7f" stroke="#134b7f" stroke-width="1.51"/><path d="M632,341L639,271L621,281Z" fill="#124578" stroke="#124578" stroke-width="1.51"/><path d="M541,374L585,371L543,303Z" fill="#0f457c" stroke="#0f457c" stroke-width="1.51"/><path d="M585,386L585,371L541,374Z" fill="#123e6f" stroke="#123e6f" stroke-width="1.51"/><path d="M585,386L541,374L516,398Z" fill="#123f71" stroke="#123f71" stroke-width="1.51"/><path d="M374,59L302,64L312,120Z" fill="#1584ca" stroke="#1584ca" stroke-width="1.51"/><path d="M287,96L255,115L283,133Z" fill="#0e93d4" stroke="#0e93d4" stroke-width="1.51"/><path d="M323,37L302,64L374,59Z" fill="#197fc6" stroke="#197fc6" stroke-width="1.51"/><path d="M173,304L257,345L258,315Z" fill="#0b74b5" stroke="#0b74b5" stroke-width="1.51"/><path d="M219,51L255,115L287,96Z" fill="#1491d5" stroke="#1491d5" stroke-width="1.51"/><path d="M532,452L585,386L516,398Z" fill="#133b69" stroke="#133b69" stroke-width="1.51"/><path d="M585,371L632,341L577,280Z" fill="#0f4379" stroke="#0f4379" stroke-width="1.51"/><path d="M258,315L257,345L298,369Z" fill="#0f6aa7" stroke="#0f6aa7" stroke-width="1.51"/><path d="M334,427L393,442L357,410Z" fill="#164f7d" stroke="#164f7d" stroke-width="1.51"/><path d="M216,220L301,180L256,152Z" fill="#0c8bcb" stroke="#0c8bcb" stroke-width="1.51"/><path d="M639,271L656,208L599,269Z" fill="#144e80" stroke="#144e80" stroke-width="1.51"/><path d="M541,5L502,18L519,69Z" fill="#1762ab" stroke="#1762ab" stroke-width="1.51"/><path d="M499,54L502,18L420,53Z" fill="#176ab3" stroke="#176ab3" stroke-width="1.51"/><path d="M367,3L323,37L374,59Z" fill="#1b78c2" stroke="#1b78c2" stroke-width="1.51"/><path d="M396,422L416,466L439,407Z" fill="#164775" stroke="#164775" stroke-width="1.51"/><path d="M489,411L532,452L516,398Z" fill="#123e6d" stroke="#123e6d" stroke-width="1.51"/><path d="M357,410L393,442L396,422Z" fill="#164c7c" stroke="#164c7c" stroke-width="1.51"/><path d="M334,427L357,410L303,408Z" fill="#165485" stroke="#165485" stroke-width="1.51"/><path d="M615,131L611,88L547,150Z" fill="#166ba2" stroke="#166ba2" stroke-width="1.51"/><path d="M630,89L611,88L615,131Z" fill="#196399" stroke="#196399" stroke-width="1.51"/><path d="M173,102L195,141L255,115Z" fill="#0c9dde" stroke="#0c9dde" stroke-width="1.51"/><path d="M367,3L374,59L420,53Z" fill="#1a74be" stroke="#1a74be" stroke-width="1.51"/><path d="M195,141L216,220L256,152Z" fill="#0b92d2" stroke="#0b92d2" stroke-width="1.51"/><path d="M650,397L632,341L585,371Z" fill="#133965" stroke="#133965" stroke-width="1.51"/><path d="M639,271L672,215L656,208Z" fill="#164e7d" stroke="#164e7d" stroke-width="1.51"/><path d="M303,408L357,410L298,369Z" fill="#15598d" stroke="#15598d" stroke-width="1.51"/><path d="M241,412L303,408L298,369Z" fill="#165e92" stroke="#165e92" stroke-width="1.51"/><path d="M216,220L209,248L265,257Z" fill="#0c83c4" stroke="#0c83c4" stroke-width="1.51"/><path d="M656,208L681,117L610,142Z" fill="#185d8d" stroke="#185d8d" stroke-width="1.51"/><path d="M701,244L672,215L639,271Z" fill="#164a78" stroke="#164a78" stroke-width="1.51"/><path d="M419,-10L367,3L420,53Z" fill="#1b6eba" stroke="#1b6eba" stroke-width="1.51"/><path d="M611,88L600,50L519,69Z" fill="#1a62a0" stroke="#1a62a0" stroke-width="1.51"/><path d="M681,117L630,89L615,131Z" fill="#196294" stroke="#196294" stroke-width="1.51"/><path d="M502,18L419,-10L420,53Z" fill="#1969b5" stroke="#1969b5" stroke-width="1.51"/><path d="M630,89L600,50L611,88Z" fill="#1b5e98" stroke="#1b5e98" stroke-width="1.51"/><path d="M502,18L491,-51L419,-10Z" fill="#1a5fae" stroke="#1a5fae" stroke-width="1.51"/><path d="M393,442L416,466L396,422Z" fill="#164772" stroke="#164772" stroke-width="1.51"/><path d="M341,496L416,466L393,442Z" fill="#17446b" stroke="#17446b" stroke-width="1.51"/><path d="M683,362L699,295L632,341Z" fill="#133a67" stroke="#133a67" stroke-width="1.51"/><path d="M477,474L532,452L489,411Z" fill="#143a66" stroke="#143a66" stroke-width="1.51"/><path d="M600,50L541,5L519,69Z" fill="#195fa4" stroke="#195fa4" stroke-width="1.51"/><path d="M416,466L477,474L439,407Z" fill="#16406b" stroke="#16406b" stroke-width="1.51"/><path d="M255,115L195,141L256,152Z" fill="#0a98d8" stroke="#0a98d8" stroke-width="1.51"/><path d="M216,220L153,222L209,248Z" fill="#0f86c8" stroke="#0f86c8" stroke-width="1.51"/><path d="M219,51L287,96L302,64Z" fill="#188bd1" stroke="#188bd1" stroke-width="1.51"/><path d="M323,37L284,-26L302,64Z" fill="#1d7dc8" stroke="#1d7dc8" stroke-width="1.51"/><path d="M367,3L320,-4L323,37Z" fill="#1d76c2" stroke="#1d76c2" stroke-width="1.51"/><path d="M384,-31L320,-4L367,3Z" fill="#1d6fbe" stroke="#1d6fbe" stroke-width="1.51"/><path d="M195,141L178,195L216,220Z" fill="#0e90d1" stroke="#0e90d1" stroke-width="1.51"/><path d="M168,364L241,412L257,345Z" fill="#146aa2" stroke="#146aa2" stroke-width="1.51"/><path d="M699,295L701,244L639,271Z" fill="#164471" stroke="#164471" stroke-width="1.51"/><path d="M710,170L681,117L656,208Z" fill="#1a5783" stroke="#1a5783" stroke-width="1.51"/><path d="M419,-10L384,-31L367,3Z" fill="#1d6ab9" stroke="#1d6ab9" stroke-width="1.51"/><path d="M458,-72L384,-31L419,-10Z" fill="#1d61b3" stroke="#1d61b3" stroke-width="1.51"/><path d="M477,474L482,488L532,452Z" fill="#15365d" stroke="#15365d" stroke-width="1.51"/><path d="M448,507L482,488L477,474Z" fill="#16365a" stroke="#16365a" stroke-width="1.51"/><path d="M630,89L642,34L600,50Z" fill="#1c5993" stroke="#1c5993" stroke-width="1.51"/><path d="M710,170L656,208L672,215Z" fill="#19517e" stroke="#19517e" stroke-width="1.51"/><path d="M650,397L585,371L585,386Z" fill="#143863" stroke="#143863" stroke-width="1.51"/><path d="M632,341L699,295L639,271Z" fill="#134171" stroke="#134171" stroke-width="1.51"/><path d="M334,427L341,496L393,442Z" fill="#194973" stroke="#194973" stroke-width="1.51"/><path d="M416,466L448,507L477,474Z" fill="#173a5f" stroke="#173a5f" stroke-width="1.51"/><path d="M303,408L302,460L334,427Z" fill="#185381" stroke="#185381" stroke-width="1.51"/><path d="M241,412L302,460L303,408Z" fill="#185887" stroke="#185887" stroke-width="1.51"/><path d="M241,412L298,369L257,345Z" fill="#14659c" stroke="#14659c" stroke-width="1.51"/><path d="M173,304L258,315L209,248Z" fill="#0c7cbd" stroke="#0c7cbd" stroke-width="1.51"/><path d="M624,473L650,397L585,386Z" fill="#143055" stroke="#143055" stroke-width="1.51"/><path d="M569,474L585,386L532,452Z" fill="#14345b" stroke="#14345b" stroke-width="1.51"/><path d="M541,5L491,-51L502,18Z" fill="#185baa" stroke="#185baa" stroke-width="1.51"/><path d="M600,50L586,-2L541,5Z" fill="#1c589b" stroke="#1c589b" stroke-width="1.51"/><path d="M639,7L586,-2L600,50Z" fill="#1d5494" stroke="#1d5494" stroke-width="1.51"/><path d="M158,249L173,304L209,248Z" fill="#107dc0" stroke="#107dc0" stroke-width="1.51"/><path d="M741,174L710,170L701,244Z" fill="#1a4d75" stroke="#1a4d75" stroke-width="1.51"/><path d="M701,244L710,170L672,215Z" fill="#184d78" stroke="#184d78" stroke-width="1.51"/><path d="M650,397L683,362L632,341Z" fill="#14365f" stroke="#14365f" stroke-width="1.51"/><path d="M529,501L569,474L532,452Z" fill="#153053" stroke="#153053" stroke-width="1.51"/><path d="M721,283L717,250L701,244Z" fill="#17426b" stroke="#17426b" stroke-width="1.51"/><path d="M721,283L701,244L699,295Z" fill="#174069" stroke="#174069" stroke-width="1.51"/><path d="M482,488L529,501L532,452Z" fill="#143257" stroke="#143257" stroke-width="1.51"/><path d="M381,523L448,507L416,466Z" fill="#173a5d" stroke="#173a5d" stroke-width="1.51"/><path d="M681,117L642,34L630,89Z" fill="#1c5a8f" stroke="#1c5a8f" stroke-width="1.51"/><path d="M639,7L642,34L703,18Z" fill="#1f4e87" stroke="#1f4e87" stroke-width="1.51"/><path d="M153,222L216,220L178,195Z" fill="#1088cb" stroke="#1088cb" stroke-width="1.51"/><path d="M153,222L158,249L209,248Z" fill="#1182c5" stroke="#1182c5" stroke-width="1.51"/><path d="M95,188L153,222L178,195Z" fill="#1585ca" stroke="#1585ca" stroke-width="1.51"/><path d="M226,-4L219,51L302,64Z" fill="#1d86d0" stroke="#1d86d0" stroke-width="1.51"/><path d="M561,-76L491,-51L541,5Z" fill="#1a53a2" stroke="#1a53a2" stroke-width="1.51"/><path d="M125,135L178,195L195,141Z" fill="#1392d5" stroke="#1392d5" stroke-width="1.51"/><path d="M302,460L341,496L334,427Z" fill="#194c75" stroke="#194c75" stroke-width="1.51"/><path d="M272,477L341,496L302,460Z" fill="#1a4c71" stroke="#1a4c71" stroke-width="1.51"/><path d="M717,250L741,174L701,244Z" fill="#194870" stroke="#194870" stroke-width="1.51"/><path d="M714,334L721,283L699,295Z" fill="#153a63" stroke="#153a63" stroke-width="1.51"/><path d="M481,549L529,501L482,488Z" fill="#152e4f" stroke="#152e4f" stroke-width="1.51"/><path d="M219,51L173,102L255,115Z" fill="#1496da" stroke="#1496da" stroke-width="1.51"/><path d="M683,362L714,334L699,295Z" fill="#143761" stroke="#143761" stroke-width="1.51"/><path d="M716,379L714,334L683,362Z" fill="#153256" stroke="#153256" stroke-width="1.51"/><path d="M320,-4L284,-26L323,37Z" fill="#1e78c5" stroke="#1e78c5" stroke-width="1.51"/><path d="M165,26L146,100L173,102Z" fill="#1c8dd7" stroke="#1c8dd7" stroke-width="1.51"/><path d="M305,-50L284,-26L320,-4Z" fill="#2072c3" stroke="#2072c3" stroke-width="1.51"/><path d="M305,-50L320,-4L384,-31Z" fill="#1f6ebf" stroke="#1f6ebf" stroke-width="1.51"/><path d="M586,-2L561,-76L541,5Z" fill="#1c519b" stroke="#1c519b" stroke-width="1.51"/><path d="M642,34L639,7L600,50Z" fill="#1d5490" stroke="#1d5490" stroke-width="1.51"/><path d="M704,28L642,34L681,117Z" fill="#1e5387" stroke="#1e5387" stroke-width="1.51"/><path d="M491,-51L458,-72L419,-10Z" fill="#1c5bad" stroke="#1c5bad" stroke-width="1.51"/><path d="M561,-76L458,-72L491,-51Z" fill="#1a51a5" stroke="#1a51a5" stroke-width="1.51"/><path d="M229,444L272,477L241,412Z" fill="#1a5884" stroke="#1a5884" stroke-width="1.51"/><path d="M241,412L272,477L302,460Z" fill="#1a557f" stroke="#1a557f" stroke-width="1.51"/><path d="M324,543L381,523L341,496Z" fill="#193e5d" stroke="#193e5d" stroke-width="1.51"/><path d="M341,496L381,523L416,466Z" fill="#183f62" stroke="#183f62" stroke-width="1.51"/><path d="M554,529L563,516L529,501Z" fill="#142844" stroke="#142844" stroke-width="1.51"/><path d="M198,426L229,444L241,412Z" fill="#1a5f8d" stroke="#1a5f8d" stroke-width="1.51"/><path d="M173,304L168,364L257,345Z" fill="#0f72b1" stroke="#0f72b1" stroke-width="1.51"/><path d="M152,347L168,364L173,304Z" fill="#136daf" stroke="#136daf" stroke-width="1.51"/><path d="M140,286L173,304L158,249Z" fill="#1378bc" stroke="#1378bc" stroke-width="1.51"/><path d="M134,268L140,286L158,249Z" fill="#1478be" stroke="#1478be" stroke-width="1.51"/><path d="M134,268L158,249L153,222Z" fill="#147dc2" stroke="#147dc2" stroke-width="1.51"/><path d="M710,170L728,106L681,117Z" fill="#1c5a83" stroke="#1c5a83" stroke-width="1.51"/><path d="M804,224L741,174L717,250Z" fill="#194469" stroke="#194469" stroke-width="1.51"/><path d="M748,159L741,174L812,162Z" fill="#1b4c6f" stroke="#1b4c6f" stroke-width="1.51"/><path d="M95,188L134,268L153,222Z" fill="#177ec5" stroke="#177ec5" stroke-width="1.51"/><path d="M569,474L624,473L585,386Z" fill="#142f52" stroke="#142f52" stroke-width="1.51"/><path d="M650,397L700,398L683,362Z" fill="#153053" stroke="#153053" stroke-width="1.51"/><path d="M612,483L624,473L569,474Z" fill="#142945" stroke="#142945" stroke-width="1.51"/><path d="M310,-73L305,-50L384,-31Z" fill="#216abd" stroke="#216abd" stroke-width="1.51"/><path d="M563,516L612,483L569,474Z" fill="#142945" stroke="#142945" stroke-width="1.51"/><path d="M168,364L198,426L241,412Z" fill="#186599" stroke="#186599" stroke-width="1.51"/><path d="M140,286L152,347L173,304Z" fill="#1271b5" stroke="#1271b5" stroke-width="1.51"/><path d="M149,406L152,347L71,367Z" fill="#1a619e" stroke="#1a619e" stroke-width="1.51"/><path d="M711,474L700,398L650,397Z" fill="#142844" stroke="#142844" stroke-width="1.51"/><path d="M149,406L198,426L168,364Z" fill="#1a6298" stroke="#1a6298" stroke-width="1.51"/><path d="M250,514L324,543L272,477Z" fill="#1b4868" stroke="#1b4868" stroke-width="1.51"/><path d="M748,159L728,106L710,170Z" fill="#1b557b" stroke="#1b557b" stroke-width="1.51"/><path d="M554,529L529,501L481,549Z" fill="#142947" stroke="#142947" stroke-width="1.51"/><path d="M529,501L563,516L569,474Z" fill="#152b49" stroke="#152b49" stroke-width="1.51"/><path d="M212,-39L226,-4L284,-26Z" fill="#227bcc" stroke="#227bcc" stroke-width="1.51"/><path d="M284,-26L226,-4L302,64Z" fill="#1f7fcb" stroke="#1f7fcb" stroke-width="1.51"/><path d="M700,398L716,379L683,362Z" fill="#152e50" stroke="#152e50" stroke-width="1.51"/><path d="M807,303L791,261L721,283Z" fill="#173759" stroke="#173759" stroke-width="1.51"/><path d="M741,174L748,159L710,170Z" fill="#1b5076" stroke="#1b5076" stroke-width="1.51"/><path d="M791,261L717,250L721,283Z" fill="#173d63" stroke="#173d63" stroke-width="1.51"/><path d="M173,102L125,135L195,141Z" fill="#1397db" stroke="#1397db" stroke-width="1.51"/><path d="M165,26L173,102L219,51Z" fill="#1d8dd7" stroke="#1d8dd7" stroke-width="1.51"/><path d="M563,516L571,531L612,483Z" fill="#14253e" stroke="#14253e" stroke-width="1.51"/><path d="M481,549L482,488L448,507Z" fill="#163151" stroke="#163151" stroke-width="1.51"/><path d="M381,523L407,549L448,507Z" fill="#173654" stroke="#173654" stroke-width="1.51"/><path d="M324,543L407,549L381,523Z" fill="#193b58" stroke="#193b58" stroke-width="1.51"/><path d="M407,549L429,551L448,507Z" fill="#173452" stroke="#173452" stroke-width="1.51"/><path d="M429,551L481,549L448,507Z" fill="#16314f" stroke="#16314f" stroke-width="1.51"/><path d="M458,-72L310,-73L384,-31Z" fill="#1f62b6" stroke="#1f62b6" stroke-width="1.51"/><path d="M305,-50L212,-39L284,-26Z" fill="#2275c7" stroke="#2275c7" stroke-width="1.51"/><path d="M607,-60L561,-76L586,-2Z" fill="#1d4b94" stroke="#1d4b94" stroke-width="1.51"/><path d="M458,-72L561,-76L310,-73Z" fill="#1c57ac" stroke="#1c57ac" stroke-width="1.51"/><path d="M146,100L125,135L173,102Z" fill="#1793d9" stroke="#1793d9" stroke-width="1.51"/><path d="M639,7L617,-49L586,-2Z" fill="#1e4d8f" stroke="#1e4d8f" stroke-width="1.51"/><path d="M674,-33L617,-49L639,7Z" fill="#1e4787" stroke="#1e4787" stroke-width="1.51"/><path d="M554,529L571,531L563,516Z" fill="#14253e" stroke="#14253e" stroke-width="1.51"/><path d="M690,511L711,474L624,473Z" fill="#121f33" stroke="#121f33" stroke-width="1.51"/><path d="M766,401L716,379L700,398Z" fill="#142946" stroke="#142946" stroke-width="1.51"/><path d="M481,549L571,531L554,529Z" fill="#142843" stroke="#142843" stroke-width="1.51"/><path d="M728,106L704,28L681,117Z" fill="#1e5481" stroke="#1e5481" stroke-width="1.51"/><path d="M703,18L704,28L747,6Z" fill="#204679" stroke="#204679" stroke-width="1.51"/><path d="M617,-49L607,-60L586,-2Z" fill="#1e4a90" stroke="#1e4a90" stroke-width="1.51"/><path d="M674,-33L607,-60L617,-49Z" fill="#1e4488" stroke="#1e4488" stroke-width="1.51"/><path d="M272,477L324,543L341,496Z" fill="#1a4667" stroke="#1a4667" stroke-width="1.51"/><path d="M407,549L297,577L429,551Z" fill="#183a57" stroke="#183a57" stroke-width="1.51"/><path d="M250,514L272,477L229,444Z" fill="#1b5278" stroke="#1b5278" stroke-width="1.51"/><path d="M704,28L703,18L642,34Z" fill="#204c82" stroke="#204c82" stroke-width="1.51"/><path d="M756,41L704,28L728,106Z" fill="#1f4c79" stroke="#1f4c79" stroke-width="1.51"/><path d="M77,100L77,152L125,135Z" fill="#1b8dd6" stroke="#1b8dd6" stroke-width="1.51"/><path d="M179,-5L165,26L219,51Z" fill="#2086d3" stroke="#2086d3" stroke-width="1.51"/><path d="M179,-5L219,51L226,-4Z" fill="#2087d4" stroke="#2087d4" stroke-width="1.51"/><path d="M171,499L250,514L229,444Z" fill="#1c5579" stroke="#1c5579" stroke-width="1.51"/><path d="M152,347L149,406L168,364Z" fill="#1866a1" stroke="#1866a1" stroke-width="1.51"/><path d="M86,279L152,347L140,286Z" fill="#156fb5" stroke="#156fb5" stroke-width="1.51"/><path d="M161,470L229,444L198,426Z" fill="#1b5c87" stroke="#1b5c87" stroke-width="1.51"/><path d="M125,135L95,188L178,195Z" fill="#178acf" stroke="#178acf" stroke-width="1.51"/><path d="M134,268L86,279L140,286Z" fill="#1673ba" stroke="#1673ba" stroke-width="1.51"/><path d="M77,152L95,188L125,135Z" fill="#1b88d0" stroke="#1b88d0" stroke-width="1.51"/><path d="M212,-39L179,-5L226,-4Z" fill="#2281d1" stroke="#2281d1" stroke-width="1.51"/><path d="M310,-73L212,-39L305,-50Z" fill="#2371c4" stroke="#2371c4" stroke-width="1.51"/><path d="M703,18L674,-33L639,7Z" fill="#1f4882" stroke="#1f4882" stroke-width="1.51"/><path d="M779,352L721,283L714,334Z" fill="#14345a" stroke="#14345a" stroke-width="1.51"/><path d="M748,159L782,108L728,106Z" fill="#1c5679" stroke="#1c5679" stroke-width="1.51"/><path d="M74,259L86,279L134,268Z" fill="#1772bb" stroke="#1772bb" stroke-width="1.51"/><path d="M716,379L779,352L714,334Z" fill="#152e50" stroke="#152e50" stroke-width="1.51"/><path d="M766,401L779,352L716,379Z" fill="#142844" stroke="#142844" stroke-width="1.51"/><path d="M711,474L650,397L624,473Z" fill="#142741" stroke="#142741" stroke-width="1.51"/><path d="M703,18L747,6L674,-33Z" fill="#1f4379" stroke="#1f4379" stroke-width="1.51"/><path d="M812,162L782,108L748,159Z" fill="#1c4f6f" stroke="#1c4f6f" stroke-width="1.51"/><path d="M791,261L804,224L717,250Z" fill="#183d60" stroke="#183d60" stroke-width="1.51"/><path d="M815,268L804,224L791,261Z" fill="#183857" stroke="#183857" stroke-width="1.51"/><path d="M131,465L161,470L149,406Z" fill="#1d5684" stroke="#1d5684" stroke-width="1.51"/><path d="M95,188L74,259L134,268Z" fill="#1878c0" stroke="#1878c0" stroke-width="1.51"/><path d="M112,-7L129,30L165,26Z" fill="#247ecf" stroke="#247ecf" stroke-width="1.51"/><path d="M165,26L129,30L146,100Z" fill="#2086d3" stroke="#2086d3" stroke-width="1.51"/><path d="M15,176L28,273L74,259Z" fill="#1c71bd" stroke="#1c71bd" stroke-width="1.51"/><path d="M112,-7L165,26L179,-5Z" fill="#247dcf" stroke="#247dcf" stroke-width="1.51"/><path d="M690,511L624,473L683,533Z" fill="#111d2f" stroke="#111d2f" stroke-width="1.51"/><path d="M782,108L756,41L728,106Z" fill="#1f4e75" stroke="#1f4e75" stroke-width="1.51"/><path d="M149,406L161,470L198,426Z" fill="#1c5b8b" stroke="#1c5b8b" stroke-width="1.51"/><path d="M131,465L149,406L88,452Z" fill="#1e5485" stroke="#1e5485" stroke-width="1.51"/><path d="M77,100L125,135L146,100Z" fill="#1b8fd7" stroke="#1b8fd7" stroke-width="1.51"/><path d="M760,442L766,401L700,398Z" fill="#13243b" stroke="#13243b" stroke-width="1.51"/><path d="M820,370L807,303L779,352Z" fill="#142946" stroke="#142946" stroke-width="1.51"/><path d="M779,352L807,303L721,283Z" fill="#153255" stroke="#153255" stroke-width="1.51"/><path d="M250,514L297,577L324,543Z" fill="#1b4461" stroke="#1b4461" stroke-width="1.51"/><path d="M324,543L297,577L407,549Z" fill="#193e5b" stroke="#193e5b" stroke-width="1.51"/><path d="M429,551L297,577L481,549Z" fill="#183754" stroke="#183754" stroke-width="1.51"/><path d="M229,555L297,577L250,514Z" fill="#1b4865" stroke="#1b4865" stroke-width="1.51"/><path d="M807,303L815,268L791,261Z" fill="#173452" stroke="#173452" stroke-width="1.51"/><path d="M820,188L812,162L741,174Z" fill="#1b4767" stroke="#1b4767" stroke-width="1.51"/><path d="M820,188L741,174L804,224Z" fill="#1a4465" stroke="#1a4465" stroke-width="1.51"/><path d="M793,9L747,6L756,41Z" fill="#1f416e" stroke="#1f416e" stroke-width="1.51"/><path d="M683,533L624,473L612,483Z" fill="#132137" stroke="#132137" stroke-width="1.51"/><path d="M711,474L760,442L700,398Z" fill="#132237" stroke="#132237" stroke-width="1.51"/><path d="M683,533L612,483L653,568Z" fill="#111b2b" stroke="#111b2b" stroke-width="1.51"/><path d="M212,-39L179,-49L179,-5Z" fill="#247cce" stroke="#247cce" stroke-width="1.51"/><path d="M310,-73L179,-49L212,-39Z" fill="#2476ca" stroke="#2476ca" stroke-width="1.51"/><path d="M778,44L756,41L782,108Z" fill="#1f486f" stroke="#1f486f" stroke-width="1.51"/><path d="M756,41L747,6L704,28Z" fill="#204575" stroke="#204575" stroke-width="1.51"/><path d="M131,465L171,499L161,470Z" fill="#1e507a" stroke="#1e507a" stroke-width="1.51"/><path d="M161,470L171,499L229,444Z" fill="#1d567e" stroke="#1d567e" stroke-width="1.51"/><path d="M815,268L820,188L804,224Z" fill="#193c59" stroke="#193c59" stroke-width="1.51"/><path d="M129,30L77,100L146,100Z" fill="#2087d3" stroke="#2087d3" stroke-width="1.51"/><path d="M36,296L86,279L74,259Z" fill="#196cb7" stroke="#196cb7" stroke-width="1.51"/><path d="M66,65L77,100L129,30Z" fill="#2382d1" stroke="#2382d1" stroke-width="1.51"/><path d="M821,112L782,108L812,162Z" fill="#1d4e6c" stroke="#1d4e6c" stroke-width="1.51"/><path d="M821,112L778,44L782,108Z" fill="#1e4a6c" stroke="#1e4a6c" stroke-width="1.51"/><path d="M766,401L820,370L779,352Z" fill="#13253e" stroke="#13253e" stroke-width="1.51"/><path d="M782,469L760,442L711,474Z" fill="#111b2a" stroke="#111b2a" stroke-width="1.51"/><path d="M71,367L152,347L86,279Z" fill="#1666ad" stroke="#1666ad" stroke-width="1.51"/><path d="M171,499L229,555L250,514Z" fill="#1c4e6b" stroke="#1c4e6b" stroke-width="1.51"/><path d="M193,573L229,555L171,499Z" fill="#1d4c6a" stroke="#1d4c6a" stroke-width="1.51"/><path d="M754,513L782,469L711,474Z" fill="#0f1723" stroke="#0f1723" stroke-width="1.51"/><path d="M653,568L612,483L571,531Z" fill="#121f33" stroke="#121f33" stroke-width="1.51"/><path d="M653,568L571,531L481,549Z" fill="#13243c" stroke="#13243c" stroke-width="1.51"/><path d="M51,349L86,279L36,296Z" fill="#1865b1" stroke="#1865b1" stroke-width="1.51"/><path d="M51,349L71,367L86,279Z" fill="#1762ab" stroke="#1762ab" stroke-width="1.51"/><path d="M836,145L821,112L812,162Z" fill="#1c4b68" stroke="#1c4b68" stroke-width="1.51"/><path d="M179,-49L112,-7L179,-5Z" fill="#2579cd" stroke="#2579cd" stroke-width="1.51"/><path d="M297,577L653,568L481,549Z" fill="#152e4c" stroke="#152e4c" stroke-width="1.51"/><path d="M71,367L79,410L149,406Z" fill="#1c5a95" stroke="#1c5a95" stroke-width="1.51"/><path d="M112,-7L97,11L129,30Z" fill="#257acd" stroke="#257acd" stroke-width="1.51"/><path d="M820,188L836,145L812,162Z" fill="#1b4664" stroke="#1b4664" stroke-width="1.51"/><path d="M844,307L836,145L820,188Z" fill="#193e5b" stroke="#193e5b" stroke-width="1.51"/><path d="M36,296L74,259L28,273Z" fill="#1a6ab6" stroke="#1a6ab6" stroke-width="1.51"/><path d="M71,367L52,426L79,410Z" fill="#1d5491" stroke="#1d5491" stroke-width="1.51"/><path d="M77,100L41,132L77,152Z" fill="#1e89d4" stroke="#1e89d4" stroke-width="1.51"/><path d="M97,11L66,65L129,30Z" fill="#247cce" stroke="#247cce" stroke-width="1.51"/><path d="M825,382L820,370L766,401Z" fill="#132237" stroke="#132237" stroke-width="1.51"/><path d="M807,303L844,307L815,268Z" fill="#16304e" stroke="#16304e" stroke-width="1.51"/><path d="M815,268L844,307L820,188Z" fill="#183754" stroke="#183754" stroke-width="1.51"/><path d="M15,176L95,188L77,152Z" fill="#1d81cb" stroke="#1d81cb" stroke-width="1.51"/><path d="M33,94L41,132L77,100Z" fill="#2185d3" stroke="#2185d3" stroke-width="1.51"/><path d="M820,370L844,307L807,303Z" fill="#142a48" stroke="#142a48" stroke-width="1.51"/><path d="M-3,348L52,426L51,349Z" fill="#1c5599" stroke="#1c5599" stroke-width="1.51"/><path d="M15,176L74,259L95,188Z" fill="#1c79c4" stroke="#1c79c4" stroke-width="1.51"/><path d="M820,370L825,382L844,307Z" fill="#142640" stroke="#142640" stroke-width="1.51"/><path d="M815,437L825,382L766,401Z" fill="#121e31" stroke="#121e31" stroke-width="1.51"/><path d="M815,437L766,401L760,442Z" fill="#121d2f" stroke="#121d2f" stroke-width="1.51"/><path d="M711,474L690,511L754,513Z" fill="#101825" stroke="#101825" stroke-width="1.51"/><path d="M778,44L793,9L756,41Z" fill="#1f416c" stroke="#1f416c" stroke-width="1.51"/><path d="M747,6L754,-58L674,-33Z" fill="#1f3d73" stroke="#1f3d73" stroke-width="1.51"/><path d="M674,-33L754,-58L607,-60Z" fill="#203e7c" stroke="#203e7c" stroke-width="1.51"/><path d="M836,28L793,9L778,44Z" fill="#1f3d65" stroke="#1f3d65" stroke-width="1.51"/><path d="M836,28L778,44L821,112Z" fill="#1f4366" stroke="#1f4366" stroke-width="1.51"/><path d="M52,426L88,452L79,410Z" fill="#1f5087" stroke="#1f5087" stroke-width="1.51"/><path d="M79,410L88,452L149,406Z" fill="#1d558b" stroke="#1d558b" stroke-width="1.51"/><path d="M133,524L193,573L171,499Z" fill="#1e4868" stroke="#1e4868" stroke-width="1.51"/><path d="M754,513L690,511L683,533Z" fill="#0f1621" stroke="#0f1621" stroke-width="1.51"/><path d="M133,524L171,499L131,465Z" fill="#1e4b72" stroke="#1e4b72" stroke-width="1.51"/><path d="M229,555L193,573L297,577Z" fill="#1c4a67" stroke="#1c4a67" stroke-width="1.51"/><path d="M793,9L754,-58L747,6Z" fill="#203a6b" stroke="#203a6b" stroke-width="1.51"/><path d="M607,-60L754,-58L561,-76Z" fill="#1e4084" stroke="#1e4084" stroke-width="1.51"/><path d="M757,567L754,513L683,533Z" fill="#0c121b" stroke="#0c121b" stroke-width="1.51"/><path d="M91,513L133,524L131,465Z" fill="#1f486f" stroke="#1f486f" stroke-width="1.51"/><path d="M41,132L15,176L77,152Z" fill="#1f81ce" stroke="#1f81ce" stroke-width="1.51"/><path d="M5,167L15,176L41,132Z" fill="#207dcb" stroke="#207dcb" stroke-width="1.51"/><path d="M6,98L33,94L-15,65Z" fill="#247ace" stroke="#247ace" stroke-width="1.51"/><path d="M66,65L33,94L77,100Z" fill="#2281d1" stroke="#2281d1" stroke-width="1.51"/><path d="M795,499L815,437L782,469Z" fill="#0e151f" stroke="#0e151f" stroke-width="1.51"/><path d="M782,469L815,437L760,442Z" fill="#101927" stroke="#101927" stroke-width="1.51"/><path d="M825,382L855,482L844,307Z" fill="#122033" stroke="#122033" stroke-width="1.51"/><path d="M23,24L33,94L66,65Z" fill="#257acd" stroke="#257acd" stroke-width="1.51"/><path d="M112,-7L45,1L97,11Z" fill="#2674ca" stroke="#2674ca" stroke-width="1.51"/><path d="M179,-49L130,-77L112,-7Z" fill="#2672c9" stroke="#2672c9" stroke-width="1.51"/><path d="M310,-73L130,-77L179,-49Z" fill="#2676cc" stroke="#2676cc" stroke-width="1.51"/><path d="M561,-76L130,-77L310,-73Z" fill="#2165ba" stroke="#2165ba" stroke-width="1.51"/><path d="M91,513L123,534L133,524Z" fill="#1f4367" stroke="#1f4367" stroke-width="1.51"/><path d="M51,349L52,426L71,367Z" fill="#1c5798" stroke="#1c5798" stroke-width="1.51"/><path d="M-3,348L51,349L36,296Z" fill="#185da9" stroke="#185da9" stroke-width="1.51"/><path d="M6,98L5,167L41,132Z" fill="#2182d0" stroke="#2182d0" stroke-width="1.51"/><path d="M-34,224L-3,283L28,273Z" fill="#1c66b6" stroke="#1c66b6" stroke-width="1.51"/><path d="M28,273L-3,283L36,296Z" fill="#1a65b3" stroke="#1a65b3" stroke-width="1.51"/><path d="M91,513L131,465L88,452Z" fill="#1f4a77" stroke="#1f4a77" stroke-width="1.51"/><path d="M133,524L123,534L193,573Z" fill="#1e4767" stroke="#1e4767" stroke-width="1.51"/><path d="M793,9L807,-52L754,-58Z" fill="#203564" stroke="#203564" stroke-width="1.51"/><path d="M836,145L836,28L821,112Z" fill="#1e4868" stroke="#1e4868" stroke-width="1.51"/><path d="M857,-50L836,28L836,145Z" fill="#1f3f64" stroke="#1f3f64" stroke-width="1.51"/><path d="M-34,224L28,273L15,176Z" fill="#1e6ebe" stroke="#1e6ebe" stroke-width="1.51"/><path d="M754,513L795,499L782,469Z" fill="#0d131b" stroke="#0d131b" stroke-width="1.51"/><path d="M796,545L795,499L754,513Z" fill="#070c13" stroke="#070c13" stroke-width="1.51"/><path d="M41,464L91,513L88,452Z" fill="#1f4776" stroke="#1f4776" stroke-width="1.51"/><path d="M5,167L-34,224L15,176Z" fill="#2074c4" stroke="#2074c4" stroke-width="1.51"/><path d="M33,94L6,98L41,132Z" fill="#2281d1" stroke="#2281d1" stroke-width="1.51"/><path d="M45,1L66,65L97,11Z" fill="#2677cc" stroke="#2677cc" stroke-width="1.51"/><path d="M94,-70L45,1L112,-7Z" fill="#276ec8" stroke="#276ec8" stroke-width="1.51"/><path d="M130,-77L94,-70L112,-7Z" fill="#276dc7" stroke="#276dc7" stroke-width="1.51"/><path d="M-3,283L-3,348L36,296Z" fill="#195ead" stroke="#195ead" stroke-width="1.51"/><path d="M52,426L41,464L88,452Z" fill="#1f4a7f" stroke="#1f4a7f" stroke-width="1.51"/><path d="M836,28L829,-15L793,9Z" fill="#1f3861" stroke="#1f3861" stroke-width="1.51"/><path d="M829,-15L807,-52L793,9Z" fill="#1f3460" stroke="#1f3460" stroke-width="1.51"/><path d="M1,-22L23,24L45,1Z" fill="#276cc6" stroke="#276cc6" stroke-width="1.51"/><path d="M45,1L23,24L66,65Z" fill="#2674cb" stroke="#2674cb" stroke-width="1.51"/><path d="M-15,441L41,464L52,426Z" fill="#1f477e" stroke="#1f477e" stroke-width="1.51"/><path d="M653,568L757,567L683,533Z" fill="#0f1621" stroke="#0f1621" stroke-width="1.51"/><path d="M297,577L757,567L653,568Z" fill="#13243c" stroke="#13243c" stroke-width="1.51"/><path d="M-82,179L-34,224L5,167Z" fill="#216fc1" stroke="#216fc1" stroke-width="1.51"/><path d="M-72,323L-44,364L-3,348Z" fill="#1b529f" stroke="#1b529f" stroke-width="1.51"/><path d="M-38,232L-34,224L-82,179Z" fill="#2169bc" stroke="#2169bc" stroke-width="1.51"/><path d="M-82,179L5,167L-89,143Z" fill="#2372c6" stroke="#2372c6" stroke-width="1.51"/><path d="M-34,224L-38,232L-3,283Z" fill="#1e66b7" stroke="#1e66b7" stroke-width="1.51"/><path d="M795,499L855,482L815,437Z" fill="#0c121b" stroke="#0c121b" stroke-width="1.51"/><path d="M815,437L855,482L825,382Z" fill="#101926" stroke="#101926" stroke-width="1.51"/><path d="M757,567L796,545L754,513Z" fill="#070d13" stroke="#070d13" stroke-width="1.51"/><path d="M23,24L-15,65L33,94Z" fill="#2576cc" stroke="#2576cc" stroke-width="1.51"/><path d="M1,-22L-15,65L23,24Z" fill="#276dc7" stroke="#276dc7" stroke-width="1.51"/><path d="M41,464L39,507L91,513Z" fill="#20426e" stroke="#20426e" stroke-width="1.51"/><path d="M91,513L72,563L123,534Z" fill="#1f4064" stroke="#1f4064" stroke-width="1.51"/><path d="M123,534L72,563L193,573Z" fill="#1f4466" stroke="#1f4466" stroke-width="1.51"/><path d="M-31,507L39,507L41,464Z" fill="#203d6c" stroke="#203d6c" stroke-width="1.51"/><path d="M-15,441L52,426L-3,348Z" fill="#1e4c8c" stroke="#1e4c8c" stroke-width="1.51"/><path d="M827,556L855,482L795,499Z" fill="#04090d" stroke="#04090d" stroke-width="1.51"/><path d="M844,307L857,-50L836,145Z" fill="#1c4c69" stroke="#1c4c69" stroke-width="1.51"/><path d="M94,-70L53,-76L45,1Z" fill="#2867c4" stroke="#2867c4" stroke-width="1.51"/><path d="M130,-77L53,-76L94,-70Z" fill="#2865c4" stroke="#2865c4" stroke-width="1.51"/><path d="M39,507L72,563L91,513Z" fill="#1f3c63" stroke="#1f3c63" stroke-width="1.51"/><path d="M39,507L22,552L72,563Z" fill="#203a62" stroke="#203a62" stroke-width="1.51"/><path d="M-44,422L-15,441L-3,348Z" fill="#1e488a" stroke="#1e488a" stroke-width="1.51"/><path d="M-72,323L-3,348L-3,283Z" fill="#1958a9" stroke="#1958a9" stroke-width="1.51"/><path d="M829,-15L857,-50L807,-52Z" fill="#1f305d" stroke="#1f305d" stroke-width="1.51"/><path d="M807,-52L857,-50L754,-58Z" fill="#1f2f5e" stroke="#1f2f5e" stroke-width="1.51"/><path d="M754,-58L857,-50L561,-76Z" fill="#1f3770" stroke="#1f3770" stroke-width="1.51"/><path d="M836,28L857,-50L829,-15Z" fill="#1f355f" stroke="#1f355f" stroke-width="1.51"/><path d="M855,482L857,-50L844,307Z" fill="#183856" stroke="#183856" stroke-width="1.51"/><path d="M-1,-36L1,-22L45,1Z" fill="#2766c3" stroke="#2766c3" stroke-width="1.51"/><path d="M757,567L827,556L796,545Z" fill="#03080d" stroke="#03080d" stroke-width="1.51"/><path d="M796,545L827,556L795,499Z" fill="#010609" stroke="#010609" stroke-width="1.51"/><path d="M53,-76L-1,-36L45,1Z" fill="#2765c3" stroke="#2765c3" stroke-width="1.51"/><path d="M1,-22L-55,64L-15,65Z" fill="#276cc7" stroke="#276cc7" stroke-width="1.51"/><path d="M-87,259L-72,323L-3,283Z" fill="#1c5aad" stroke="#1c5aad" stroke-width="1.51"/><path d="M-44,364L-44,422L-3,348Z" fill="#1d4c93" stroke="#1d4c93" stroke-width="1.51"/><path d="M-87,259L-3,283L-38,232Z" fill="#1d62b4" stroke="#1d62b4" stroke-width="1.51"/><path d="M-70,86L6,98L-15,65Z" fill="#2675cb" stroke="#2675cb" stroke-width="1.51"/><path d="M-84,-16L-55,64L1,-22Z" fill="#2864c3" stroke="#2864c3" stroke-width="1.51"/><path d="M-7,542L22,552L39,507Z" fill="#1f3760" stroke="#1f3760" stroke-width="1.51"/><path d="M-62,388L-44,422L-44,364Z" fill="#1e478e" stroke="#1e478e" stroke-width="1.51"/><path d="M-89,143L5,167L6,98Z" fill="#237bcd" stroke="#237bcd" stroke-width="1.51"/><path d="M-72,323L-62,388L-44,364Z" fill="#1c4c99" stroke="#1c4c99" stroke-width="1.51"/><path d="M-72,323L-77,562L-62,388Z" fill="#1f3e80" stroke="#1f3e80" stroke-width="1.51"/><path d="M-82,179L-87,259L-38,232Z" fill="#2065b9" stroke="#2065b9" stroke-width="1.51"/><path d="M-84,-16L-70,86L-55,64Z" fill="#2767c5" stroke="#2767c5" stroke-width="1.51"/><path d="M-55,64L-70,86L-15,65Z" fill="#2670c9" stroke="#2670c9" stroke-width="1.51"/><path d="M-7,542L39,507L-31,507Z" fill="#1f3662" stroke="#1f3662" stroke-width="1.51"/><path d="M41,464L-15,441L-31,507Z" fill="#203f73" stroke="#203f73" stroke-width="1.51"/><path d="M-70,86L-89,143L6,98Z" fill="#2677cc" stroke="#2677cc" stroke-width="1.51"/><path d="M-82,179L-89,143L-87,259Z" fill="#2268bd" stroke="#2268bd" stroke-width="1.51"/><path d="M-31,507L-15,441L-54,476Z" fill="#203a70" stroke="#203a70" stroke-width="1.51"/><path d="M-54,476L-15,441L-44,422Z" fill="#1f3f7a" stroke="#1f3f7a" stroke-width="1.51"/><path d="M-31,507L-53,508L-7,542Z" fill="#1f3260" stroke="#1f3260" stroke-width="1.51"/><path d="M-62,388L-54,476L-44,422Z" fill="#1f407f" stroke="#1f407f" stroke-width="1.51"/><path d="M-53,508L-54,476L-77,562Z" fill="#1f2f60" stroke="#1f2f60" stroke-width="1.51"/><path d="M-54,476L-53,508L-31,507Z" fill="#203467" stroke="#203467" stroke-width="1.51"/><path d="M-77,562L-54,476L-62,388Z" fill="#20366e" stroke="#20366e" stroke-width="1.51"/><path d="M-1,-36L-84,-16L1,-22Z" fill="#275fc0" stroke="#275fc0" stroke-width="1.51"/><path d="M-70,86L-84,-16L-89,143Z" fill="#276bc7" stroke="#276bc7" stroke-width="1.51"/><path d="M-78,-52L-84,-16L-1,-36Z" fill="#275abe" stroke="#275abe" stroke-width="1.51"/><path d="M53,-76L-78,-52L-1,-36Z" fill="#275cbf" stroke="#275cbf" stroke-width="1.51"/><path d="M-53,508L-77,562L-7,542Z" fill="#1f2f5c" stroke="#1f2f5c" stroke-width="1.51"/><path d="M-7,542L-77,562L22,552Z" fill="#1f325e" stroke="#1f325e" stroke-width="1.51"/><path d="M22,552L-77,562L72,563Z" fill="#1f355f" stroke="#1f355f" stroke-width="1.51"/><path d="M72,563L-77,562L193,573Z" fill="#1f3c62" stroke="#1f3c62" stroke-width="1.51"/><path d="M-87,259L-77,562L-72,323Z" fill="#1d458f" stroke="#1d458f" stroke-width="1.51"/></svg>