<?xml version="1.0" encoding="iso-8859-1"?>
<!-- Generator: Adobe Illustrator 16.0.0, SVG Export Plug-In . SVG Version: 6.00 Build 0)  -->
<!DOCTYPE svg PUBLIC "-//W3C//DTD SVG 1.1//EN" "http://www.w3.org/Graphics/SVG/1.1/DTD/svg11.dtd">
<svg xmlns="http://www.w3.org/2000/svg"
  xmlns:xlink="http://www.w3.org/1999/xlink" version="1.1" id="Capa_1" x="0px" y="0px" width="512px" height="512px" viewBox="0 0 159.5 159.5" style="enable-background:new 0 0 159.5 159.5;" xml:space="preserve">
  <g>
    <g>
      <path d="M49.781,77.768c0.167,0.125,0.341,0.222,0.518,0.322c3.489,2.016,7.998,1.035,10.312-2.344l16.188-23.604l18.35-1.867    L74.439,86.137c-1.042,1.803-1.52,3.77-1.602,5.712L23.51,143.697c-3.559,3.758-3.41,9.664,0.332,13.22    c0.548,0.53,1.148,0.975,1.772,1.334c3.66,2.112,8.416,1.534,11.448-1.656l47.015-49.426l11.408,16.599l-13.637,20.545    c-2.856,4.305-1.675,10.12,2.627,12.97c0.158,0.104,0.335,0.214,0.499,0.317c4.244,2.447,9.719,1.193,12.459-2.947l17.122-25.812    c2.119-3.178,2.077-7.325-0.085-10.467L98.242,94.771l13.683-23.702l2.436,13.874c0.347,1.961,1.431,3.727,3.038,4.92    l22.25,16.447c0.237,0.17,0.487,0.334,0.743,0.48c3.392,1.961,7.775,1.096,10.163-2.119c2.551-3.471,1.82-8.342-1.639-10.899    l-19.741-14.596l-5.352-30.485c0.243-1.602,0.164-3.212-0.207-4.771c1.12-4.01-0.536-8.418-4.3-10.586    c-2.807-1.623-6.101-1.623-8.799-0.296l-38.888,3.937c-2.284,0.228-4.342,1.458-5.645,3.346L47.753,66.923    C45.321,70.484,46.231,75.335,49.781,77.768z" fill="#FFFFFF" fill-opacity="0.8"/>
      <circle cx="136.792" cy="19.36" r="19.36" fill="#FFFFFF" fill-opacity="0.8"/>
    </g>
    <g>
      <path d="M28.868,85.485c-0.807,0.371-1.754,0.019-2.128-0.786l-0.661-1.449c-0.375-0.791-0.018-1.747,0.786-2.118l1.254-0.579    l-5.818-24.591L7.081,62.94c-3.206,1.464-4.616,5.291-3.154,8.479l17.339,37.784c1.464,3.202,5.289,4.609,8.485,3.142    l15.223-6.979L30.107,84.925L28.868,85.485z" fill="#FFFFFF" fill-opacity="0.8"/>
      <path d="M54.948,93.754l-4.201-9.151c0.1-0.036,0.18-0.062,0.28-0.098l2.908-1.346c2.207-1.005,3.172-3.617,2.162-5.83    l-5.301-11.548c-1.007-2.205-3.629-3.172-5.827-2.162l-2.908,1.34c-0.101,0.042-0.167,0.094-0.256,0.137l-4.201-9.146    c-1.659-3.605-5.931-5.2-9.548-3.535l-4.588,2.101l6.004,25.395l1.748-0.797c0.798-0.375,1.739-0.013,2.113,0.791l0.661,1.446    c0.375,0.804,0.024,1.748-0.78,2.119l-1.732,0.804l15.333,21.105l4.594-2.107C55.024,101.64,56.601,97.354,54.948,93.754z     M50.031,82.325c-0.101,0.042-0.195,0.036-0.295,0.067l-6.915-15.071c0.088-0.061,0.143-0.131,0.244-0.174l2.904-1.339    c0.999-0.457,2.189-0.021,2.646,0.983l5.304,11.548c0.462,1.011,0.021,2.201-0.978,2.664L50.031,82.325z" fill="#FFFFFF" fill-opacity="0.8"/>
    </g>
  </g>
  <g>
  </g>
  <g>
  </g>
  <g>
  </g>
  <g>
  </g>
  <g>
  </g>
  <g>
  </g>
  <g>
  </g>
  <g>
  </g>
  <g>
  </g>
  <g>
  </g>
  <g>
  </g>
  <g>
  </g>
  <g>
  </g>
  <g>
  </g>
  <g>
  </g>
</svg>
