<svg id="svg" version="1.1" width="400" height="252.5" viewBox="0 0 400 252.5" xmlns="http://www.w3.org/2000/svg" xmlns:xlink="http://www.w3.org/1999/xlink" ><g id="svgg"><path id="path0" d="M350.250 20.433 C 345.758 21.389,334.096 23.863,324.333 25.931 C 294.161 32.321,287.650 33.844,271.917 38.196 C 264.042 40.374,259.559 41.720,248.083 45.351 L 246.583 45.826 249.417 43.031 C 250.975 41.494,254.425 38.124,257.083 35.542 L 261.917 30.847 260.583 31.252 C 258.289 31.948,242.646 37.217,237.583 38.999 C 214.717 47.047,198.525 53.506,184.012 60.368 C 177.955 63.231,171.833 65.935,171.833 65.748 C 171.833 65.705,173.730 63.288,176.048 60.377 C 178.366 57.465,180.319 54.993,180.387 54.882 C 180.532 54.647,179.966 54.897,174.583 57.450 C 160.671 64.048,143.066 74.122,127.750 84.250 C 116.892 91.431,111.747 95.784,96.244 110.910 C 76.842 129.840,66.915 137.443,53.375 143.746 C 51.717 144.518,51.721 144.488,53.125 145.852 C 54.983 147.656,56.897 148.910,59.563 150.069 L 60.863 150.634 59.890 151.347 C 47.718 160.267,35.857 173.077,27.698 186.114 L 26.844 187.479 27.340 190.907 C 29.128 203.282,31.839 211.393,35.197 214.413 C 40.830 219.478,48.789 223.421,55.552 224.496 C 63.639 225.782,72.610 223.910,79.480 219.503 C 81.103 218.461,81.095 218.673,79.542 217.825 C 71.786 213.591,68.404 208.286,70.238 203.234 C 72.957 195.743,83.002 190.071,95.000 189.252 C 103.306 188.686,106.419 194.404,104.659 207.000 C 102.769 220.531,104.362 231.534,109.285 238.958 C 110.000 240.036,109.797 240.056,111.859 238.694 C 128.622 227.614,142.685 209.382,149.307 190.143 C 150.405 186.952,151.283 185.619,153.653 183.545 C 161.153 176.980,174.903 172.673,184.389 173.917 C 197.329 175.613,202.152 185.681,198.226 202.806 C 197.574 205.654,197.556 205.491,198.535 205.681 C 211.167 208.123,236.254 195.549,243.113 183.338 C 243.694 182.304,243.612 182.292,244.455 183.542 C 245.792 185.526,247.161 189.235,247.169 190.896 C 247.174 191.778,247.341 191.891,248.440 191.755 C 262.831 189.973,288.781 169.654,311.656 142.256 C 316.963 135.899,325.333 124.549,325.333 123.709 C 325.333 123.374,319.743 121.818,315.583 120.995 C 314.575 120.796,313.718 120.601,313.678 120.564 C 313.638 120.526,315.742 118.340,318.353 115.706 C 332.916 101.011,346.159 83.804,353.881 69.542 L 354.806 67.833 354.100 67.833 C 353.273 67.833,341.218 68.557,335.936 68.924 C 333.930 69.063,332.265 69.154,332.238 69.126 C 332.210 69.099,333.275 67.465,334.606 65.496 C 343.916 51.719,352.086 36.115,357.845 21.111 C 358.683 18.928,358.761 18.656,358.542 18.681 C 358.473 18.689,354.742 19.477,350.250 20.433 M333.010 36.875 C 330.487 44.116,325.398 53.428,320.055 60.583 C 317.243 64.349,311.963 70.259,311.266 70.421 C 311.074 70.465,306.042 70.878,300.083 71.338 C 268.569 73.771,254.864 75.713,235.417 80.501 C 223.315 83.480,206.457 88.918,201.208 91.536 C 199.433 92.421,199.524 92.449,201.929 91.764 C 209.202 89.690,216.235 87.905,218.333 87.600 C 219.296 87.460,221.021 87.122,222.167 86.848 C 249.620 80.290,283.124 78.981,324.458 82.854 C 327.084 83.100,326.993 82.789,325.375 86.015 C 321.842 93.057,315.695 100.678,304.681 111.674 C 299.433 116.913,299.610 116.778,298.282 116.525 C 269.681 111.075,244.426 112.057,217.616 119.662 C 203.908 123.550,185.788 131.208,179.041 135.966 C 177.536 137.026,177.140 137.448,178.125 136.938 C 179.297 136.332,185.257 134.001,187.083 133.435 C 188.183 133.094,190.786 132.257,192.867 131.574 C 231.134 119.025,265.535 119.512,293.959 133.007 L 296.014 133.983 295.489 135.022 C 290.259 145.382,272.449 163.308,261.406 169.326 C 258.878 170.704,259.078 170.662,258.826 169.875 C 254.358 155.915,226.644 148.461,197.036 153.256 C 178.427 156.270,166.013 161.426,156.168 170.228 C 154.258 171.936,154.285 171.950,155.233 169.744 C 155.654 168.765,155.955 167.896,155.903 167.811 C 155.533 167.212,160.300 160.003,163.435 156.421 C 164.629 155.057,164.686 154.961,164.081 155.335 C 144.131 167.674,120.793 168.412,105.607 157.185 C 104.080 156.056,104.570 155.717,106.527 156.548 C 113.136 159.355,121.638 159.533,126.725 156.970 C 127.941 156.357,127.874 156.274,126.405 156.575 C 116.036 158.702,109.401 155.594,108.100 148.000 L 108.000 147.417 106.870 147.405 C 105.639 147.392,103.201 147.023,103.082 146.832 C 103.042 146.766,103.513 146.502,104.129 146.244 C 104.746 145.986,106.112 145.361,107.167 144.853 C 108.221 144.346,109.238 143.925,109.426 143.917 C 109.614 143.909,110.001 143.737,110.285 143.534 C 110.983 143.037,111.037 143.056,111.392 143.919 C 112.840 147.440,119.068 147.190,122.407 143.476 C 125.504 140.031,124.327 135.469,120.231 135.046 C 119.166 134.936,119.178 134.974,119.930 134.056 C 120.258 133.656,120.495 133.236,120.457 133.123 C 120.197 132.348,129.245 123.167,130.269 123.167 C 130.818 123.167,130.625 123.775,129.693 124.981 C 126.978 128.494,125.938 130.651,126.954 130.664 C 128.683 130.686,130.905 132.869,131.581 135.211 L 131.859 136.172 132.888 134.461 C 134.635 131.557,136.297 129.493,139.458 126.300 L 141.553 124.184 140.537 124.594 C 136.314 126.300,134.564 124.379,135.831 119.426 C 138.365 109.519,152.479 97.801,172.379 89.083 C 174.008 88.369,175.307 87.752,175.266 87.711 C 175.000 87.445,165.009 91.114,160.083 93.287 C 142.947 100.846,129.204 110.448,121.884 119.976 C 120.187 122.185,120.278 122.158,120.386 120.417 C 120.500 118.587,121.036 116.691,122.222 113.929 C 123.234 111.573,123.170 111.529,121.398 113.360 C 119.311 115.515,118.500 116.988,116.568 122.126 C 114.645 127.239,113.405 129.441,110.850 132.276 C 100.424 143.848,86.037 148.676,70.770 145.727 C 68.783 145.344,65.243 144.311,64.970 144.036 C 64.905 143.970,66.179 143.185,67.801 142.290 C 82.629 134.109,87.054 130.606,97.849 118.502 C 102.628 113.142,103.139 112.591,109.437 106.000 C 126.110 88.553,137.603 80.107,160.983 68.121 C 168.173 64.435,167.827 65.150,157.917 74.472 L 155.750 76.510 162.333 73.277 C 183.960 62.654,202.006 55.117,221.917 48.390 C 229.320 45.889,241.822 42.167,242.818 42.167 C 243.259 42.167,243.408 42.665,243.045 42.927 C 240.815 44.543,235.045 48.545,230.292 51.773 C 223.082 56.669,219.660 59.048,219.728 59.117 C 219.799 59.188,220.521 58.941,223.522 57.819 C 249.797 47.991,286.399 40.520,327.917 36.509 C 329.842 36.323,331.642 36.144,331.917 36.110 C 332.192 36.077,332.619 36.039,332.866 36.025 L 333.315 36.000 333.010 36.875 M136.167 140.083 C 134.749 140.842,133.331 141.232,132.047 141.217 L 130.845 141.203 130.353 142.074 C 127.513 147.106,121.159 150.849,115.375 150.897 C 114.344 150.905,113.500 150.933,113.500 150.960 C 113.500 151.143,115.272 152.070,116.132 152.336 C 122.860 154.415,134.206 148.681,136.416 142.083 C 136.634 141.435,137.020 139.635,136.933 139.674 C 136.924 139.678,136.579 139.862,136.167 140.083 M114.875 140.970 C 114.977 142.098,115.429 143.070,116.299 144.032 L 116.916 144.715 115.938 144.593 C 113.190 144.250,111.541 142.697,112.783 141.624 C 113.128 141.327,113.674 140.842,113.996 140.546 C 114.768 139.840,114.773 139.843,114.875 140.970 M93.750 154.137 C 108.283 170.081,130.204 175.149,150.404 167.234 C 150.645 167.140,150.699 167.167,150.623 167.346 C 150.567 167.477,150.216 168.279,149.843 169.130 C 148.970 171.120,148.247 173.513,146.836 179.083 C 141.267 201.060,129.470 219.196,113.174 230.831 C 110.962 232.411,111.153 232.454,110.325 230.188 C 107.839 223.386,107.553 215.907,109.431 206.833 C 110.763 200.393,110.233 194.943,107.803 190.108 C 107.019 188.548,106.980 188.618,108.517 188.833 C 115.467 189.805,116.993 193.430,114.829 203.833 C 112.980 212.724,112.732 214.420,112.884 217.106 C 113.006 219.262,113.936 222.167,114.505 222.167 C 115.236 222.167,119.068 218.627,121.091 216.083 C 126.938 208.730,133.233 193.831,135.745 181.396 C 136.318 178.563,122.499 175.944,109.899 176.497 C 88.913 177.420,74.523 182.401,64.916 192.070 C 55.872 201.173,58.083 210.808,70.792 217.667 C 72.988 218.852,73.027 218.738,70.223 219.330 C 60.398 221.406,50.758 218.784,44.237 212.263 C 38.841 206.867,37.201 202.146,35.982 188.493 C 35.731 185.692,35.680 185.875,37.491 183.115 C 44.233 172.842,53.084 164.742,65.750 157.253 C 67.583 156.169,69.928 154.774,70.960 154.153 C 72.684 153.117,72.881 153.037,73.377 153.183 C 77.644 154.435,86.563 154.432,91.250 153.176 C 91.892 153.004,92.454 152.862,92.500 152.860 C 92.546 152.858,93.108 153.433,93.750 154.137 M80.247 160.746 C 76.057 162.959,75.425 163.514,75.726 164.715 C 75.963 165.657,78.101 165.968,80.500 165.409 C 82.005 165.058,92.671 161.948,92.602 161.880 C 92.572 161.850,91.843 161.713,90.982 161.576 C 88.394 161.164,86.467 160.440,84.831 159.264 L 84.077 158.722 80.247 160.746 M205.308 161.584 C 217.362 162.700,226.209 165.768,232.874 171.144 C 234.038 172.083,234.037 171.906,232.884 173.640 C 229.568 178.624,223.803 183.585,217.861 186.570 C 217.024 186.990,216.311 187.333,216.275 187.333 C 216.239 187.333,216.157 186.797,216.092 186.142 C 215.696 182.117,213.268 177.720,209.737 174.632 C 198.993 165.236,176.284 163.559,164.208 171.270 C 162.915 172.096,163.146 171.670,164.575 170.595 C 174.122 163.410,189.142 160.087,205.308 161.584 " stroke="none" fill="#000000"  fill-rule="evenodd"></path><path id="path1" d="M380.000 0.529 C 349.640 6.746,309.163 16.845,286.250 23.918 C 285.436 24.170,285.540 24.056,291.000 18.715 C 304.049 5.951,305.598 4.414,305.469 4.361 C 305.070 4.198,264.289 18.069,246.833 24.304 C 233.484 29.074,217.659 35.026,213.690 36.772 L 212.797 37.164 215.296 34.541 C 216.671 33.097,220.619 28.955,224.070 25.335 C 227.520 21.715,230.278 18.732,230.197 18.705 C 230.053 18.657,212.130 26.973,202.167 31.710 C 174.898 44.676,156.825 54.349,136.083 67.081 C 113.268 81.086,107.671 85.466,90.083 103.086 C 70.608 122.597,60.152 130.122,39.719 139.330 L 37.020 140.547 37.411 141.584 C 38.426 144.282,40.307 147.114,42.803 149.702 L 44.225 151.178 42.987 152.287 C 33.767 160.554,24.352 171.977,18.097 182.485 C 16.459 185.236,16.505 184.994,16.924 188.667 C 19.019 207.030,23.201 217.830,30.383 223.430 C 44.553 234.478,59.918 237.658,74.750 232.613 C 81.353 230.367,88.485 226.159,93.115 221.777 C 93.958 220.980,93.933 220.928,94.067 223.833 C 94.493 233.126,99.180 243.619,106.272 251.158 C 107.754 252.734,107.598 252.705,109.508 251.746 C 120.408 246.271,134.268 234.437,142.558 223.525 C 148.431 215.795,155.944 201.845,158.682 193.588 C 159.415 191.379,160.894 190.131,165.398 187.924 C 175.923 182.767,185.676 182.391,188.400 187.039 C 190.733 191.020,189.300 202.717,185.258 212.685 C 185.066 213.159,189.399 214.450,193.250 215.067 C 207.295 217.316,222.228 213.459,236.500 203.896 L 238.750 202.389 240.313 202.559 C 243.467 202.903,248.999 202.126,253.833 200.660 C 276.150 193.889,303.531 171.893,331.934 137.917 C 337.479 131.284,348.206 117.318,347.952 117.063 C 347.909 117.020,344.996 116.274,341.478 115.407 C 337.961 114.539,334.982 113.792,334.858 113.747 C 334.714 113.694,335.367 112.879,336.697 111.457 C 348.315 99.027,360.738 82.943,372.720 64.818 C 377.372 57.781,379.549 54.257,379.280 54.200 C 379.083 54.159,355.763 56.790,353.541 57.104 L 352.832 57.205 354.552 54.477 C 363.741 39.904,374.110 20.546,381.938 3.351 C 382.705 1.665,383.333 0.221,383.333 0.143 C 383.333 -0.086,382.574 0.002,380.000 0.529 M372.616 10.042 C 364.715 26.967,353.722 46.539,344.385 60.308 C 343.244 61.990,342.353 63.408,342.404 63.459 C 342.455 63.511,343.379 63.462,344.457 63.350 C 348.210 62.963,358.618 61.821,363.726 61.235 C 366.554 60.911,368.895 60.673,368.929 60.706 C 369.095 60.873,363.174 69.868,359.190 75.500 C 349.430 89.297,339.205 101.608,328.003 113.047 C 325.869 115.227,324.151 117.031,324.186 117.056 C 324.221 117.081,325.150 117.271,326.250 117.478 C 328.629 117.926,338.888 120.170,338.984 120.263 C 339.379 120.648,328.791 134.098,322.266 141.500 C 293.189 174.481,261.805 196.920,244.553 197.063 C 242.321 197.082,242.495 197.229,242.709 195.500 C 242.807 194.710,242.830 193.583,242.762 192.952 L 242.639 191.821 241.694 192.664 C 225.557 207.053,208.036 213.155,193.417 209.478 C 191.662 209.036,191.707 209.161,192.481 206.870 C 196.950 193.643,195.378 183.487,188.325 180.030 C 181.806 176.834,170.780 178.390,161.417 183.827 C 156.967 186.411,154.780 188.561,153.908 191.208 C 151.245 199.287,144.499 211.994,138.749 219.758 C 131.823 229.110,120.205 239.507,110.554 244.988 C 108.750 246.013,108.802 246.025,107.257 244.201 C 100.290 235.972,97.679 222.211,100.042 206.167 C 100.949 200.011,100.277 195.522,98.291 194.461 C 97.131 193.842,92.967 193.927,90.312 194.624 C 80.700 197.150,73.712 203.964,76.007 208.573 C 77.363 211.296,82.914 214.839,89.571 217.230 C 90.609 217.603,83.957 222.648,79.337 224.992 C 64.048 232.750,47.861 230.770,33.838 219.427 C 27.480 214.284,24.062 205.228,22.249 188.717 L 21.989 186.350 23.346 184.133 C 29.974 173.306,40.372 161.271,50.250 152.995 C 51.258 152.150,52.105 151.440,52.132 151.417 C 52.159 151.394,51.674 150.977,51.055 150.490 C 48.955 148.840,46.628 146.203,45.261 143.926 C 44.532 142.712,44.528 142.596,45.208 142.323 C 58.787 136.880,71.663 127.760,87.814 112.150 C 101.674 98.754,105.534 95.228,112.417 89.676 C 122.211 81.775,130.281 76.422,147.917 66.127 C 167.006 54.983,185.500 45.344,203.140 37.344 C 205.004 36.499,206.556 35.834,206.589 35.866 C 206.641 35.919,203.190 39.572,194.471 48.692 L 191.659 51.634 195.538 49.976 C 211.545 43.132,239.953 32.494,272.725 21.071 C 277.597 19.373,282.346 17.716,283.279 17.390 C 284.211 17.064,285.039 16.824,285.118 16.857 C 285.198 16.890,281.198 20.892,276.231 25.750 C 271.263 30.608,267.218 34.604,267.242 34.629 C 267.265 34.653,268.364 34.339,269.684 33.931 C 300.913 24.261,336.882 14.967,363.917 9.583 C 371.506 8.072,372.519 7.883,373.198 7.853 L 373.647 7.833 372.616 10.042 M240.583 42.850 C 221.785 47.885,196.756 57.264,174.583 67.581 C 170.338 69.556,158.864 75.151,156.699 76.302 C 154.419 77.513,154.463 77.462,161.417 70.874 C 164.765 67.702,165.967 66.374,165.613 66.238 C 165.199 66.079,154.931 71.344,148.750 74.884 C 130.256 85.479,118.732 95.442,97.333 119.337 C 86.928 130.956,82.965 134.089,68.592 142.057 L 65.145 143.968 66.105 144.327 C 77.847 148.720,93.395 146.216,104.140 138.201 C 110.397 133.534,113.882 128.941,116.431 122.000 C 118.421 116.581,119.809 114.280,122.379 112.142 C 123.645 111.088,123.653 111.111,122.734 113.182 C 121.218 116.594,120.493 119.042,120.505 120.701 L 120.511 121.417 120.880 120.918 C 128.675 110.409,143.023 100.401,161.917 92.295 C 166.830 90.187,175.465 87.199,176.809 87.141 C 177.052 87.131,177.570 87.009,177.962 86.870 C 179.202 86.432,178.862 86.729,177.445 87.323 C 161.558 93.981,148.413 104.599,143.491 114.750 C 140.712 120.480,141.426 120.806,149.243 117.382 C 153.995 115.299,156.487 114.328,158.750 113.677 C 162.054 112.726,163.908 112.513,161.917 113.314 C 153.189 116.823,145.530 123.981,141.116 132.754 C 140.070 134.832,139.857 135.351,138.749 138.500 C 137.326 142.544,135.773 145.173,133.771 146.924 C 132.956 147.637,132.516 147.878,132.765 147.476 C 132.830 147.371,132.392 147.690,131.791 148.184 C 125.960 152.987,116.725 154.492,113.577 151.152 L 113.083 150.628 114.348 150.742 C 118.820 151.147,124.513 148.668,128.131 144.742 C 129.261 143.516,130.581 141.507,130.586 141.006 C 130.587 140.865,130.751 140.262,130.949 139.667 C 132.388 135.345,131.042 132.147,127.291 130.975 C 126.627 130.767,126.056 130.579,126.022 130.557 C 125.792 130.405,128.507 126.111,129.884 124.449 C 130.364 123.869,130.497 123.597,130.365 123.465 C 129.963 123.063,125.828 126.855,122.645 130.542 C 120.820 132.657,120.299 133.346,120.907 132.842 C 121.094 132.686,121.368 132.699,122.157 132.901 C 130.669 135.082,127.590 146.852,118.007 148.763 C 114.049 149.553,110.152 147.817,109.164 144.826 L 108.953 144.185 108.101 144.620 C 107.633 144.859,106.364 145.445,105.282 145.923 L 103.314 146.792 104.448 147.010 C 105.073 147.130,106.163 147.233,106.871 147.239 L 108.158 147.250 108.266 148.000 C 109.358 155.548,116.652 158.700,127.311 156.230 C 128.643 155.921,128.716 155.994,127.715 156.632 C 122.907 159.696,112.255 159.662,106.131 156.564 C 105.240 156.114,105.000 156.075,105.000 156.378 C 105.000 157.379,113.728 161.911,118.340 163.305 C 131.323 167.229,148.791 164.240,163.213 155.627 C 165.615 154.192,165.655 154.216,163.977 156.089 C 161.365 159.003,158.695 162.758,156.941 165.984 C 155.907 167.888,155.920 168.056,157.000 166.729 C 168.785 152.247,195.249 142.631,215.667 145.413 C 216.789 145.566,214.169 144.658,211.566 143.992 C 201.350 141.379,189.508 142.030,176.750 145.908 C 175.412 146.314,176.176 145.831,179.390 144.241 C 190.645 138.669,204.527 134.622,217.917 133.007 C 223.407 132.345,225.179 132.250,232.000 132.250 C 239.685 132.250,243.769 132.551,250.148 133.588 C 252.931 134.040,252.333 133.802,247.201 132.415 C 228.319 127.312,207.101 127.767,187.784 133.689 C 186.610 134.049,185.582 134.301,185.498 134.249 C 185.318 134.137,181.780 135.523,178.250 137.087 C 176.875 137.696,175.600 138.234,175.417 138.283 L 175.083 138.371 175.417 138.131 C 175.600 137.999,176.220 137.610,176.793 137.266 C 177.367 136.922,177.798 136.578,177.752 136.503 C 177.373 135.891,191.878 126.808,200.583 122.206 C 215.466 114.339,233.680 108.214,248.723 106.017 C 249.893 105.846,250.884 105.672,250.925 105.630 C 251.000 105.556,249.059 105.322,245.739 105.007 C 235.303 104.014,221.184 104.876,214.083 106.941 C 213.862 107.005,213.806 106.982,213.917 106.872 C 214.143 106.647,219.567 104.752,223.250 103.610 C 240.600 98.233,255.797 95.444,270.667 94.908 C 274.625 94.765,295.486 95.373,299.917 95.760 C 301.481 95.896,301.326 95.816,298.500 95.028 C 272.570 87.801,242.429 85.035,220.167 87.842 C 218.746 88.021,217.358 88.209,217.083 88.260 C 216.705 88.331,216.644 88.311,216.833 88.179 C 217.478 87.730,201.453 91.880,198.533 92.919 C 198.098 93.074,198.507 92.704,198.994 92.502 C 199.270 92.388,199.457 92.233,199.411 92.157 C 199.230 91.865,207.941 87.306,213.333 84.870 C 236.062 74.602,263.511 66.662,294.405 61.420 C 300.163 60.443,300.088 60.535,295.417 60.170 C 283.446 59.234,275.213 59.696,258.958 62.218 C 256.415 62.612,254.333 62.914,254.333 62.889 C 254.333 62.671,259.094 60.761,262.820 59.482 C 277.549 54.429,301.230 49.775,323.083 47.639 C 329.216 47.040,307.049 46.369,295.991 46.819 C 269.981 47.878,244.549 52.125,220.441 59.436 C 219.079 59.849,217.930 60.153,217.888 60.110 C 217.846 60.068,218.079 59.945,218.407 59.837 C 218.735 59.728,218.972 59.590,218.934 59.528 C 218.855 59.400,223.120 56.407,230.717 51.259 C 238.207 46.185,242.996 42.785,242.998 42.542 C 243.001 42.249,242.667 42.291,240.583 42.850 M113.371 141.310 L 112.325 142.272 112.809 142.940 C 113.352 143.690,114.418 144.229,115.744 144.426 L 116.571 144.548 115.897 143.783 C 115.212 143.004,114.667 141.689,114.667 140.814 C 114.667 140.166,114.579 140.199,113.371 141.310 " stroke="none" fill="#ffffff"  fill-rule="evenodd"></path><path id="path2" d="M311.991 69.792 L 311.417 70.417 312.042 69.842 C 312.623 69.308,312.743 69.167,312.616 69.167 C 312.588 69.167,312.307 69.448,311.991 69.792 M277.213 80.789 C 277.652 80.824,278.327 80.823,278.713 80.788 C 279.100 80.754,278.742 80.725,277.917 80.726 C 277.092 80.726,276.775 80.755,277.213 80.789 M281.042 80.788 C 281.385 80.824,281.948 80.824,282.292 80.788 C 282.635 80.752,282.354 80.723,281.667 80.723 C 280.979 80.723,280.698 80.752,281.042 80.788 M113.664 101.625 L 111.583 103.750 113.708 101.669 C 115.682 99.736,115.909 99.500,115.789 99.500 C 115.765 99.500,114.809 100.456,113.664 101.625 M98.167 108.917 C 97.762 109.329,97.468 109.667,97.514 109.667 C 97.560 109.667,97.928 109.329,98.333 108.917 C 98.738 108.504,99.032 108.167,98.986 108.167 C 98.940 108.167,98.572 108.504,98.167 108.917 M317.497 116.625 L 315.750 118.417 317.542 116.670 C 318.527 115.709,319.333 114.903,319.333 114.878 C 319.333 114.758,319.120 114.961,317.497 116.625 M108.406 134.708 L 107.917 135.250 108.458 134.760 C 108.756 134.491,109.000 134.248,109.000 134.219 C 109.000 134.090,108.862 134.203,108.406 134.708 M127.658 145.458 L 127.083 146.083 127.708 145.509 C 128.290 144.974,128.410 144.833,128.283 144.833 C 128.255 144.833,127.974 145.115,127.658 145.458 M95.000 155.552 C 95.000 155.581,95.244 155.825,95.542 156.094 L 96.083 156.583 95.594 156.042 C 95.138 155.537,95.000 155.423,95.000 155.552 M43.824 165.458 L 43.250 166.083 43.875 165.509 C 44.457 164.974,44.577 164.833,44.449 164.833 C 44.422 164.833,44.140 165.115,43.824 165.458 M199.539 192.167 C 199.539 192.487,199.573 192.619,199.615 192.458 C 199.657 192.298,199.657 192.035,199.615 191.875 C 199.573 191.715,199.539 191.846,199.539 192.167 M72.833 212.885 C 72.833 212.914,73.077 213.158,73.375 213.427 L 73.917 213.917 73.427 213.375 C 72.971 212.870,72.833 212.757,72.833 212.885 " stroke="none" fill="#0b0b0c"  fill-rule="evenodd"></path><path id="path3" d="M261.242 31.542 L 260.583 32.250 261.292 31.591 C 261.681 31.229,262.000 30.910,262.000 30.883 C 262.000 30.757,261.855 30.883,261.242 31.542 M255.833 36.750 C 255.428 37.162,255.135 37.500,255.181 37.500 C 255.226 37.500,255.595 37.162,256.000 36.750 C 256.405 36.337,256.699 36.000,256.653 36.000 C 256.607 36.000,256.238 36.337,255.833 36.750 M250.500 41.917 C 250.095 42.329,249.801 42.667,249.847 42.667 C 249.893 42.667,250.262 42.329,250.667 41.917 C 251.072 41.504,251.365 41.167,251.319 41.167 C 251.274 41.167,250.905 41.504,250.500 41.917 M104.240 103.042 L 103.750 103.583 104.292 103.094 C 104.797 102.638,104.910 102.500,104.781 102.500 C 104.752 102.500,104.509 102.744,104.240 103.042 M99.667 107.417 C 99.262 107.829,98.968 108.167,99.014 108.167 C 99.060 108.167,99.428 107.829,99.833 107.417 C 100.238 107.004,100.532 106.667,100.486 106.667 C 100.440 106.667,100.072 107.004,99.667 107.417 M320.161 113.958 L 319.250 114.917 320.208 114.006 C 321.099 113.159,321.243 113.000,321.119 113.000 C 321.093 113.000,320.662 113.431,320.161 113.958 M91.745 115.208 L 90.750 116.250 91.792 115.255 C 92.365 114.708,92.833 114.239,92.833 114.214 C 92.833 114.090,92.669 114.241,91.745 115.208 M315.000 119.083 C 314.595 119.496,314.301 119.833,314.347 119.833 C 314.393 119.833,314.762 119.496,315.167 119.083 C 315.572 118.671,315.865 118.333,315.819 118.333 C 315.774 118.333,315.405 118.671,315.000 119.083 M295.413 160.042 L 294.083 161.417 295.458 160.087 C 296.735 158.853,296.909 158.667,296.788 158.667 C 296.763 158.667,296.144 159.285,295.413 160.042 M152.658 184.458 L 152.083 185.083 152.708 184.509 C 153.290 183.974,153.410 183.833,153.283 183.833 C 153.255 183.833,152.974 184.115,152.658 184.458 M237.828 189.958 L 236.917 190.917 237.875 190.006 C 238.765 189.159,238.910 189.000,238.786 189.000 C 238.760 189.000,238.329 189.431,237.828 189.958 M95.794 189.285 C 96.001 189.324,96.301 189.323,96.460 189.281 C 96.620 189.239,96.450 189.207,96.083 189.209 C 95.717 189.211,95.586 189.245,95.794 189.285 M105.217 200.833 C 105.217 201.338,105.248 201.544,105.286 201.292 C 105.324 201.040,105.324 200.627,105.286 200.375 C 105.248 200.123,105.217 200.329,105.217 200.833 M201.128 205.954 C 201.428 205.991,201.878 205.990,202.128 205.952 C 202.378 205.914,202.133 205.884,201.583 205.885 C 201.033 205.886,200.828 205.917,201.128 205.954 M124.073 228.875 L 123.583 229.417 124.125 228.927 C 124.630 228.471,124.743 228.333,124.615 228.333 C 124.586 228.333,124.342 228.577,124.073 228.875 " stroke="none" fill="#001416"  fill-rule="evenodd"></path><path id="path4" d="M279.627 80.785 C 279.834 80.824,280.134 80.823,280.294 80.781 C 280.453 80.739,280.283 80.707,279.917 80.709 C 279.550 80.711,279.420 80.745,279.627 80.785 M280.406 153.875 L 279.917 154.417 280.458 153.927 C 280.963 153.471,281.077 153.333,280.948 153.333 C 280.919 153.333,280.675 153.577,280.406 153.875 " stroke="none" fill="#161717"  fill-rule="evenodd"></path><path id="path5" d="M110.205 200.500 C 110.205 200.821,110.240 200.952,110.282 200.792 C 110.323 200.631,110.323 200.369,110.282 200.208 C 110.240 200.048,110.205 200.179,110.205 200.500 M122.167 223.083 C 121.762 223.496,121.468 223.833,121.514 223.833 C 121.560 223.833,121.928 223.496,122.333 223.083 C 122.738 222.671,123.032 222.333,122.986 222.333 C 122.940 222.333,122.572 222.671,122.167 223.083 " stroke="none" fill="#212223"  fill-rule="evenodd"></path><path id="path6" d="M259.744 33.042 L 258.917 33.917 259.792 33.090 C 260.273 32.635,260.667 32.241,260.667 32.215 C 260.667 32.090,260.512 32.229,259.744 33.042 M254.333 38.250 C 253.928 38.662,253.635 39.000,253.681 39.000 C 253.726 39.000,254.095 38.662,254.500 38.250 C 254.905 37.837,255.199 37.500,255.153 37.500 C 255.107 37.500,254.738 37.837,254.333 38.250 M249.000 43.417 C 248.595 43.829,248.301 44.167,248.347 44.167 C 248.393 44.167,248.762 43.829,249.167 43.417 C 249.572 43.004,249.865 42.667,249.819 42.667 C 249.774 42.667,249.405 43.004,249.000 43.417 M101.075 106.042 L 100.417 106.750 101.125 106.091 C 101.784 105.478,101.910 105.333,101.784 105.333 C 101.757 105.333,101.438 105.652,101.075 106.042 M93.745 113.208 L 92.750 114.250 93.792 113.255 C 94.365 112.708,94.833 112.239,94.833 112.214 C 94.833 112.090,94.669 112.241,93.745 113.208 M313.942 120.138 C 313.618 120.497,313.592 120.667,313.861 120.667 C 313.968 120.667,314.005 120.617,313.944 120.555 C 313.883 120.494,313.957 120.306,314.109 120.139 C 314.261 119.971,314.347 119.833,314.302 119.833 C 314.256 119.833,314.094 119.970,313.942 120.138 M297.661 157.792 L 296.750 158.750 297.708 157.839 C 298.599 156.993,298.743 156.833,298.619 156.833 C 298.593 156.833,298.162 157.265,297.661 157.792 M293.078 162.375 L 292.083 163.417 293.125 162.422 C 293.698 161.875,294.167 161.406,294.167 161.380 C 294.167 161.257,294.002 161.407,293.078 162.375 M180.208 173.788 C 180.552 173.824,181.115 173.824,181.458 173.788 C 181.802 173.752,181.521 173.723,180.833 173.723 C 180.146 173.723,179.865 173.752,180.208 173.788 M194.167 178.052 C 194.167 178.081,194.410 178.325,194.708 178.594 L 195.250 179.083 194.760 178.542 C 194.304 178.037,194.167 177.923,194.167 178.052 M103.726 217.250 C 103.725 218.075,103.754 218.434,103.788 218.047 C 103.823 217.660,103.824 216.985,103.789 216.547 C 103.755 216.109,103.726 216.425,103.726 217.250 " stroke="none" fill="#00262a"  fill-rule="evenodd"></path><path id="path7" d="M278.658 155.625 L 278.083 156.250 278.708 155.676 C 279.290 155.141,279.410 155.000,279.283 155.000 C 279.255 155.000,278.974 155.281,278.658 155.625 M196.288 161.287 C 196.584 161.324,197.109 161.324,197.455 161.288 C 197.800 161.252,197.558 161.222,196.917 161.221 C 196.275 161.221,195.992 161.250,196.288 161.287 M183.125 166.284 C 183.331 166.324,183.669 166.324,183.875 166.284 C 184.081 166.245,183.912 166.212,183.500 166.212 C 183.088 166.212,182.919 166.245,183.125 166.284 M47.073 171.375 L 46.583 171.917 47.125 171.427 C 47.630 170.971,47.743 170.833,47.615 170.833 C 47.586 170.833,47.342 171.077,47.073 171.375 " stroke="none" fill="#2c2e2f"  fill-rule="evenodd"></path><path id="path8" d="M257.994 34.792 L 257.083 35.750 258.042 34.839 C 258.569 34.338,259.000 33.907,259.000 33.881 C 259.000 33.757,258.841 33.901,257.994 34.792 M252.661 39.958 L 251.750 40.917 252.708 40.006 C 253.599 39.159,253.743 39.000,253.619 39.000 C 253.593 39.000,253.162 39.431,252.661 39.958 M247.500 44.917 C 247.095 45.329,246.836 45.660,246.924 45.651 C 247.079 45.636,248.447 44.167,248.306 44.167 C 248.268 44.167,247.905 44.504,247.500 44.917 M102.577 104.542 L 101.750 105.417 102.625 104.590 C 103.438 103.821,103.576 103.667,103.452 103.667 C 103.426 103.667,103.032 104.060,102.577 104.542 M96.497 110.458 L 94.750 112.250 96.542 110.503 C 97.527 109.542,98.333 108.736,98.333 108.711 C 98.333 108.591,98.120 108.794,96.497 110.458 M322.409 111.708 L 321.750 112.417 322.458 111.758 C 323.117 111.145,323.243 111.000,323.117 111.000 C 323.090 111.000,322.771 111.319,322.409 111.708 M317.667 116.583 C 316.984 117.271,316.463 117.833,316.508 117.833 C 316.554 117.833,317.150 117.271,317.833 116.583 C 318.516 115.896,319.037 115.333,318.992 115.333 C 318.946 115.333,318.350 115.896,317.667 116.583 M89.577 117.208 L 88.750 118.083 89.625 117.256 C 90.106 116.801,90.500 116.408,90.500 116.381 C 90.500 116.257,90.346 116.395,89.577 117.208 M299.333 156.083 C 298.928 156.496,298.635 156.833,298.681 156.833 C 298.726 156.833,299.095 156.496,299.500 156.083 C 299.905 155.671,300.199 155.333,300.153 155.333 C 300.107 155.333,299.738 155.671,299.333 156.083 M45.331 163.792 L 43.417 165.750 45.375 163.836 C 46.452 162.783,47.333 161.902,47.333 161.878 C 47.333 161.758,47.108 161.973,45.331 163.792 M291.409 164.042 L 290.750 164.750 291.458 164.091 C 292.117 163.478,292.243 163.333,292.117 163.333 C 292.090 163.333,291.771 163.652,291.409 164.042 M41.573 167.708 L 41.083 168.250 41.625 167.760 C 42.130 167.304,42.243 167.167,42.115 167.167 C 42.086 167.167,41.842 167.410,41.573 167.708 M74.075 197.542 L 73.417 198.250 74.125 197.591 C 74.784 196.978,74.910 196.833,74.784 196.833 C 74.757 196.833,74.438 197.152,74.075 197.542 M103.709 215.250 C 103.711 215.617,103.745 215.747,103.785 215.540 C 103.824 215.332,103.823 215.032,103.781 214.873 C 103.739 214.714,103.707 214.883,103.709 215.250 M103.712 219.333 C 103.712 219.746,103.745 219.915,103.784 219.708 C 103.824 219.502,103.824 219.165,103.784 218.958 C 103.745 218.752,103.712 218.921,103.712 219.333 M126.167 226.917 C 125.484 227.604,124.963 228.167,125.008 228.167 C 125.054 228.167,125.650 227.604,126.333 226.917 C 127.016 226.229,127.537 225.667,127.492 225.667 C 127.446 225.667,126.850 226.229,126.167 226.917 " stroke="none" fill="#003a40"  fill-rule="evenodd"></path><path id="path9" d="M305.491 110.792 L 304.917 111.417 305.542 110.842 C 306.123 110.308,306.243 110.167,306.116 110.167 C 306.088 110.167,305.807 110.448,305.491 110.792 M228.491 178.792 L 227.917 179.417 228.542 178.842 C 229.123 178.308,229.243 178.167,229.116 178.167 C 229.088 178.167,228.807 178.448,228.491 178.792 M115.705 196.500 C 115.705 196.821,115.740 196.952,115.782 196.792 C 115.823 196.631,115.823 196.369,115.782 196.208 C 115.740 196.048,115.705 196.179,115.705 196.500 " stroke="none" fill="#37393a"  fill-rule="evenodd"></path><path id="path10" d="M371.333 8.269 C 341.329 13.966,305.036 23.206,268.676 34.405 C 267.628 34.728,266.744 34.966,266.712 34.934 C 266.680 34.903,270.745 30.879,275.744 25.992 C 280.743 21.106,284.833 17.087,284.833 17.063 C 284.833 17.038,284.402 17.170,283.875 17.355 C 283.348 17.541,281.004 18.354,278.667 19.164 C 243.748 31.251,211.624 43.231,195.292 50.256 C 193.115 51.193,191.333 51.911,191.333 51.852 C 191.333 51.753,196.324 46.475,203.215 39.286 C 204.865 37.565,206.036 36.226,205.816 36.312 C 205.046 36.612,196.711 40.481,192.736 42.383 C 174.637 51.046,153.470 62.676,133.591 74.881 C 124.896 80.219,115.695 86.947,107.667 93.837 C 102.916 97.914,100.058 100.575,89.583 110.673 C 71.789 127.827,62.095 134.925,47.583 141.427 C 46.208 142.043,45.017 142.607,44.936 142.679 C 44.385 143.173,48.687 148.466,51.190 150.375 C 52.558 151.418,52.540 151.299,51.458 152.189 C 41.024 160.777,28.246 175.561,22.781 185.369 L 22.157 186.488 22.504 189.535 C 24.287 205.195,27.755 214.336,33.736 219.142 C 51.203 233.178,72.879 232.858,88.723 218.332 L 89.696 217.440 88.473 216.988 C 82.428 214.758,77.563 211.575,75.924 208.777 C 73.075 203.916,81.480 196.156,91.737 194.177 C 99.437 192.691,101.593 195.386,100.329 204.917 C 98.843 216.113,99.044 223.947,101.008 231.304 C 102.400 236.522,104.937 241.455,107.799 244.511 L 108.941 245.730 110.345 244.924 C 119.954 239.414,131.317 229.343,138.185 220.250 C 143.809 212.803,150.726 199.982,153.528 191.812 C 154.747 188.254,156.481 186.484,161.642 183.528 C 172.308 177.417,184.447 176.463,190.547 181.256 C 195.780 185.368,196.597 195.183,192.672 206.798 C 192.302 207.891,192.000 208.828,192.000 208.879 C 192.000 208.929,192.806 209.160,193.792 209.391 C 208.326 212.797,226.969 206.251,241.379 192.682 C 242.256 191.856,242.558 191.658,242.712 191.812 C 242.935 192.035,242.994 195.609,242.788 196.365 C 242.622 196.971,243.539 197.113,245.997 196.863 C 255.500 195.896,267.677 189.932,281.917 179.273 C 300.617 165.274,322.530 142.853,337.146 122.764 C 338.074 121.488,338.806 120.417,338.772 120.383 C 338.688 120.299,328.789 118.117,325.950 117.557 L 323.650 117.103 327.799 112.926 C 340.201 100.445,351.847 86.144,363.028 69.667 C 365.418 66.144,368.715 60.992,368.632 60.909 C 368.601 60.879,363.965 61.368,358.330 61.996 C 345.786 63.394,342.200 63.756,342.081 63.636 C 342.030 63.585,343.144 61.828,344.557 59.730 C 353.793 46.021,363.524 28.774,371.522 11.937 C 372.518 9.841,373.333 8.097,373.333 8.062 C 373.333 7.952,372.613 8.026,371.333 8.269 M358.833 18.659 C 358.833 18.924,357.385 22.730,356.170 25.657 C 350.142 40.182,341.375 56.282,333.328 67.605 C 332.432 68.865,332.372 69.000,332.710 68.999 C 332.915 68.998,334.096 68.925,335.333 68.838 C 339.939 68.511,353.804 67.667,354.556 67.667 L 355.030 67.667 354.162 69.292 C 346.580 83.489,332.295 102.023,317.679 116.626 C 314.273 120.028,313.859 120.499,314.198 120.576 C 314.410 120.623,315.821 120.928,317.333 121.252 C 321.588 122.165,325.500 123.325,325.500 123.674 C 325.500 124.467,317.418 135.510,312.515 141.417 C 289.017 169.723,262.948 190.178,248.147 191.923 L 247.210 192.033 247.007 190.645 C 246.645 188.172,245.575 185.396,244.200 183.367 L 243.715 182.650 242.460 184.534 C 235.901 194.379,221.287 203.036,207.043 205.513 C 203.854 206.067,198.057 206.113,197.532 205.588 C 197.496 205.552,197.695 204.561,197.974 203.386 C 202.153 185.761,197.291 175.540,183.988 173.990 C 174.116 172.840,159.420 177.820,152.751 184.577 C 150.957 186.394,150.411 187.346,149.233 190.703 C 142.576 209.672,128.877 227.414,112.277 238.563 C 109.730 240.273,110.006 240.236,109.155 238.983 C 105.691 233.882,103.778 226.192,103.768 217.333 C 103.764 212.977,103.876 211.509,104.591 206.611 C 106.832 191.245,101.258 186.526,86.083 190.940 C 75.653 193.974,68.449 201.616,70.088 207.908 C 70.987 211.361,74.768 215.214,79.791 217.796 C 81.274 218.558,81.277 218.491,79.708 219.521 C 66.247 228.351,47.729 226.207,34.937 214.338 C 31.634 211.273,28.529 201.631,27.056 189.862 L 26.757 187.475 27.150 186.779 C 33.420 175.673,47.535 160.260,59.375 151.593 C 60.758 150.580,60.788 150.710,58.997 149.942 C 56.907 149.045,54.327 147.289,52.841 145.751 L 51.599 144.466 54.091 143.260 C 67.182 136.927,77.538 129.067,93.746 113.164 C 114.200 93.096,119.495 88.868,139.667 76.498 C 153.077 68.274,180.079 53.830,180.743 54.524 C 180.803 54.586,180.413 55.088,175.228 61.607 L 172.027 65.632 174.722 64.462 C 177.367 63.314,181.093 61.604,187.119 58.772 C 199.561 52.922,219.358 45.177,241.500 37.497 C 248.563 35.046,261.877 30.653,262.057 30.713 C 262.141 30.741,258.823 34.052,254.683 38.071 C 250.543 42.090,247.184 45.406,247.217 45.440 C 247.251 45.473,247.722 45.348,248.264 45.161 C 255.700 42.596,274.107 37.312,285.917 34.354 C 295.855 31.864,298.371 31.307,329.417 24.736 C 342.617 21.942,354.579 19.404,356.000 19.095 C 359.077 18.426,358.833 18.463,358.833 18.659 M120.288 133.803 L 119.507 134.797 120.269 134.911 C 124.725 135.579,125.697 140.373,122.095 143.917 C 118.630 147.325,112.944 147.411,111.331 144.079 C 110.902 143.193,111.029 143.216,110.010 143.843 C 109.257 144.306,109.196 144.389,109.337 144.761 C 111.297 149.914,119.175 150.183,124.100 145.265 C 128.855 140.515,127.565 134.028,121.645 132.917 C 121.094 132.814,121.033 132.854,120.288 133.803 " stroke="none" fill="#004c54"  fill-rule="evenodd"></path><path id="path11" d="M304.406 111.875 L 303.917 112.417 304.458 111.927 C 304.963 111.471,305.077 111.333,304.948 111.333 C 304.919 111.333,304.675 111.577,304.406 111.875 M243.042 122.615 C 243.202 122.657,243.465 122.657,243.625 122.615 C 243.785 122.573,243.654 122.539,243.333 122.539 C 243.012 122.539,242.881 122.573,243.042 122.615 M82.128 154.287 C 82.428 154.325,82.878 154.324,83.128 154.286 C 83.378 154.248,83.133 154.217,82.583 154.218 C 82.033 154.219,81.828 154.250,82.128 154.287 M131.125 171.118 C 131.331 171.157,131.669 171.157,131.875 171.118 C 132.081 171.078,131.912 171.045,131.500 171.045 C 131.087 171.045,130.919 171.078,131.125 171.118 " stroke="none" fill="#424546"  fill-rule="evenodd"></path><path id="path12" d="M244.458 122.622 C 244.848 122.657,245.485 122.657,245.875 122.622 C 246.265 122.587,245.946 122.558,245.167 122.558 C 244.387 122.558,244.069 122.587,244.458 122.622 M63.833 212.750 C 64.144 213.071,64.436 213.333,64.482 213.333 C 64.528 213.333,64.311 213.071,64.000 212.750 C 63.689 212.429,63.397 212.167,63.351 212.167 C 63.305 212.167,63.522 212.429,63.833 212.750 " stroke="none" fill="#4d5052"  fill-rule="evenodd"></path><path id="path13" d="M279.410 22.375 L 278.583 23.250 279.458 22.423 C 279.940 21.968,280.333 21.574,280.333 21.548 C 280.333 21.424,280.179 21.562,279.410 22.375 M271.744 29.875 L 270.917 30.750 271.792 29.923 C 272.273 29.468,272.667 29.074,272.667 29.048 C 272.667 28.924,272.512 29.062,271.744 29.875 M200.073 42.542 L 199.583 43.083 200.125 42.594 C 200.630 42.138,200.743 42.000,200.615 42.000 C 200.586 42.000,200.342 42.244,200.073 42.542 M196.573 46.208 L 196.083 46.750 196.625 46.260 C 197.130 45.804,197.243 45.667,197.115 45.667 C 197.086 45.667,196.842 45.910,196.573 46.208 M96.740 103.708 L 96.250 104.250 96.792 103.760 C 97.297 103.304,97.410 103.167,97.281 103.167 C 97.252 103.167,97.009 103.410,96.740 103.708 M92.333 107.917 C 91.928 108.329,91.635 108.667,91.681 108.667 C 91.726 108.667,92.095 108.329,92.500 107.917 C 92.905 107.504,93.199 107.167,93.153 107.167 C 93.107 107.167,92.738 107.504,92.333 107.917 M327.080 113.708 L 325.250 115.583 327.125 113.753 C 328.867 112.053,329.076 111.833,328.955 111.833 C 328.931 111.833,328.087 112.677,327.080 113.708 M86.906 113.208 L 86.417 113.750 86.958 113.260 C 87.463 112.804,87.577 112.667,87.448 112.667 C 87.419 112.667,87.175 112.910,86.906 113.208 M42.745 160.042 L 41.750 161.083 42.792 160.089 C 43.759 159.164,43.910 159.000,43.786 159.000 C 43.761 159.000,43.292 159.469,42.745 160.042 " stroke="none" fill="#195e65"  fill-rule="evenodd"></path><path id="path14" d="M271.208 80.948 C 271.369 80.990,271.631 80.990,271.792 80.948 C 271.952 80.906,271.821 80.872,271.500 80.872 C 271.179 80.872,271.048 80.906,271.208 80.948 M288.042 80.948 C 288.202 80.990,288.465 80.990,288.625 80.948 C 288.785 80.906,288.654 80.872,288.333 80.872 C 288.012 80.872,287.881 80.906,288.042 80.948 M112.714 216.250 C 112.716 216.708,112.748 216.876,112.786 216.623 C 112.825 216.369,112.824 215.994,112.784 215.789 C 112.744 215.584,112.713 215.792,112.714 216.250 M63.960 219.951 C 64.168 219.991,64.468 219.990,64.627 219.948 C 64.786 219.906,64.617 219.874,64.250 219.875 C 63.883 219.877,63.753 219.911,63.960 219.951 " stroke="none" fill="#5e6264"  fill-rule="evenodd"></path><path id="path15" d="M278.073 23.708 L 277.583 24.250 278.125 23.760 C 278.630 23.304,278.743 23.167,278.615 23.167 C 278.586 23.167,278.342 23.410,278.073 23.708 M270.324 31.292 L 269.750 31.917 270.375 31.342 C 270.957 30.808,271.077 30.667,270.949 30.667 C 270.922 30.667,270.640 30.948,270.324 31.292 M41.158 161.625 L 40.583 162.250 41.208 161.676 C 41.790 161.141,41.910 161.000,41.783 161.000 C 41.755 161.000,41.474 161.281,41.158 161.625 " stroke="none" fill="#337076"  fill-rule="evenodd"></path><path id="path16" d="M48.667 148.219 C 48.667 148.248,48.910 148.491,49.208 148.760 L 49.750 149.250 49.260 148.708 C 48.804 148.203,48.667 148.090,48.667 148.219 M308.413 156.042 L 306.917 157.583 308.458 156.087 C 309.306 155.264,310.000 154.570,310.000 154.545 C 310.000 154.424,309.803 154.610,308.413 156.042 M60.460 229.618 C 60.668 229.658,60.968 229.656,61.127 229.615 C 61.286 229.573,61.117 229.540,60.750 229.542 C 60.383 229.544,60.253 229.578,60.460 229.618 " stroke="none" fill="#447c82"  fill-rule="evenodd"></path><path id="path17" d="M210.333 175.052 C 210.333 175.081,210.577 175.325,210.875 175.594 L 211.417 176.083 210.927 175.542 C 210.471 175.037,210.333 174.923,210.333 175.052 " stroke="none" fill="#6e7375"  fill-rule="evenodd"></path><path id="path18" d="M310.491 153.958 L 309.917 154.583 310.542 154.009 C 311.123 153.474,311.243 153.333,311.116 153.333 C 311.088 153.333,310.807 153.615,310.491 153.958 " stroke="none" fill="#55888d"  fill-rule="evenodd"></path><path id="path19" d="M214.455 151.620 C 214.750 151.657,215.275 151.658,215.621 151.622 C 215.967 151.586,215.725 151.555,215.083 151.555 C 214.442 151.554,214.159 151.583,214.455 151.620 " stroke="none" fill="#797e80"  fill-rule="evenodd"></path><path id="path20" d="M216.544 151.620 C 216.797 151.658,217.172 151.657,217.377 151.617 C 217.582 151.578,217.375 151.546,216.917 151.548 C 216.458 151.549,216.291 151.581,216.544 151.620 " stroke="none" fill="#848a8c"  fill-rule="evenodd"></path><path id="path21" d="M283.406 18.542 L 282.917 19.083 283.458 18.594 C 283.963 18.138,284.077 18.000,283.948 18.000 C 283.919 18.000,283.675 18.244,283.406 18.542 M275.573 26.208 L 275.083 26.750 275.625 26.260 C 276.130 25.804,276.243 25.667,276.115 25.667 C 276.086 25.667,275.842 25.910,275.573 26.208 M267.906 33.708 L 267.417 34.250 267.958 33.760 C 268.463 33.304,268.577 33.167,268.448 33.167 C 268.419 33.167,268.175 33.410,267.906 33.708 M99.217 217.667 C 99.217 218.171,99.248 218.377,99.286 218.125 C 99.324 217.873,99.324 217.460,99.286 217.208 C 99.248 216.956,99.217 217.162,99.217 217.667 M129.828 229.792 L 128.917 230.750 129.875 229.839 C 130.402 229.338,130.833 228.907,130.833 228.881 C 130.833 228.757,130.674 228.901,129.828 229.792 " stroke="none" fill="#6e999e"  fill-rule="evenodd"></path><path id="path22" d="M312.240 69.375 L 311.750 69.917 312.292 69.427 C 312.797 68.971,312.910 68.833,312.781 68.833 C 312.752 68.833,312.509 69.077,312.240 69.375 " stroke="none" fill="#8f9598"  fill-rule="evenodd"></path><path id="path23" d="M306.658 109.458 L 306.083 110.083 306.708 109.509 C 307.290 108.974,307.410 108.833,307.283 108.833 C 307.255 108.833,306.974 109.115,306.658 109.458 M263.381 112.957 C 263.912 112.990,264.737 112.990,265.214 112.956 C 265.692 112.922,265.258 112.895,264.250 112.896 C 263.242 112.896,262.851 112.924,263.381 112.957 M302.573 113.542 L 302.083 114.083 302.625 113.594 C 303.130 113.138,303.243 113.000,303.115 113.000 C 303.086 113.000,302.842 113.244,302.573 113.542 M278.331 155.792 L 276.417 157.750 278.375 155.836 C 279.452 154.783,280.333 153.902,280.333 153.878 C 280.333 153.758,280.108 153.973,278.331 155.792 M46.409 172.208 L 45.750 172.917 46.458 172.258 C 47.117 171.645,47.243 171.500,47.117 171.500 C 47.090 171.500,46.771 171.819,46.409 172.208 M113.292 176.284 C 113.498 176.324,113.835 176.324,114.042 176.284 C 114.248 176.245,114.079 176.212,113.667 176.212 C 113.254 176.212,113.085 176.245,113.292 176.284 M64.658 191.958 L 64.083 192.583 64.708 192.009 C 65.290 191.474,65.410 191.333,65.283 191.333 C 65.255 191.333,64.974 191.615,64.658 191.958 M43.833 211.719 C 43.833 211.748,44.077 211.991,44.375 212.260 L 44.917 212.750 44.427 212.208 C 43.971 211.703,43.833 211.590,43.833 211.719 M122.412 222.708 L 121.250 223.917 122.458 222.754 C 123.581 221.675,123.743 221.500,123.621 221.500 C 123.595 221.500,123.051 222.044,122.412 222.708 " stroke="none" fill="#9aa1a3"  fill-rule="evenodd"></path><path id="path24" d="M329.167 36.516 C 288.354 40.651,256.532 46.753,231.167 55.310 C 226.607 56.848,220.630 59.019,220.717 59.106 C 220.751 59.139,222.721 58.611,225.097 57.932 C 251.307 50.443,279.447 46.496,306.583 46.503 C 317.009 46.506,328.678 47.175,325.083 47.565 C 298.035 50.493,278.687 54.238,263.083 59.563 C 258.753 61.041,253.921 62.986,255.500 62.616 C 256.286 62.432,263.750 61.341,267.667 60.837 C 279.052 59.375,285.003 59.222,296.333 60.104 C 300.497 60.428,300.763 60.536,298.313 60.908 C 263.303 66.227,226.105 77.646,202.874 90.206 C 201.047 91.194,200.414 91.724,201.890 91.030 C 207.051 88.604,222.329 83.666,233.417 80.839 C 253.400 75.746,267.869 73.665,301.250 71.086 C 305.375 70.768,309.333 70.457,310.046 70.395 L 311.341 70.284 313.296 68.262 C 319.503 61.839,324.801 54.160,329.246 45.144 C 330.788 42.017,333.000 36.841,333.000 36.361 C 333.000 36.126,333.021 36.126,329.167 36.516 M273.083 80.947 C 254.420 81.247,240.151 82.897,223.667 86.662 C 221.696 87.113,219.868 87.519,219.605 87.566 C 219.341 87.613,219.079 87.703,219.021 87.765 C 218.964 87.827,219.179 87.834,219.500 87.780 C 224.882 86.884,239.606 86.395,248.417 86.819 C 265.904 87.662,285.018 90.839,300.712 95.513 C 302.359 96.004,302.259 96.010,296.827 95.751 C 267.212 94.337,255.797 95.178,235.742 100.250 C 229.150 101.918,215.620 106.009,215.870 106.259 C 215.902 106.291,216.939 106.131,218.173 105.903 C 226.974 104.275,238.071 104.013,248.750 105.181 C 251.662 105.500,253.132 105.833,251.622 105.833 C 247.025 105.833,230.096 110.058,219.318 113.894 C 208.850 117.620,194.452 125.152,182.708 133.043 C 179.663 135.090,178.654 135.860,180.208 134.951 C 187.216 130.855,198.460 125.820,207.750 122.619 C 237.078 112.512,265.720 110.347,296.034 115.947 L 299.318 116.554 300.446 115.569 C 304.446 112.073,314.283 101.596,318.194 96.665 C 322.448 91.301,327.273 83.172,326.206 83.165 C 326.047 83.164,324.792 83.055,323.417 82.922 C 313.731 81.991,300.877 81.281,288.583 80.999 C 282.083 80.850,279.636 80.842,273.083 80.947 M172.083 89.339 C 171.533 89.607,169.782 90.439,168.191 91.189 C 149.285 100.097,135.661 112.964,135.668 121.902 C 135.670 125.585,136.957 125.943,142.167 123.712 C 142.304 123.653,141.616 124.371,140.637 125.308 C 135.930 129.815,131.916 135.414,131.502 138.053 C 131.404 138.678,131.176 139.578,130.995 140.053 C 130.815 140.528,130.667 140.928,130.667 140.942 C 130.665 141.515,133.927 140.966,135.816 140.075 C 136.494 139.755,137.070 139.514,137.096 139.540 C 137.455 139.899,135.830 144.250,135.013 145.118 C 134.604 145.552,134.550 145.804,134.934 145.485 C 135.922 144.666,137.464 141.683,138.718 138.167 C 139.849 134.998,139.971 134.706,141.118 132.417 C 145.171 124.334,152.955 116.881,160.712 113.656 C 162.443 112.936,162.261 112.895,159.965 113.488 C 157.382 114.154,155.012 115.041,150.250 117.125 C 141.163 121.101,140.410 120.840,143.341 114.727 C 147.558 105.934,157.263 97.307,170.884 90.240 C 173.409 88.930,174.296 88.264,172.083 89.339 M239.500 122.776 C 223.570 123.602,209.574 126.273,193.360 131.582 C 189.355 132.894,189.143 133.076,192.679 132.170 C 212.001 127.219,232.703 127.663,251.271 133.426 C 254.765 134.510,254.720 134.544,250.724 133.840 C 236.339 131.305,219.295 131.975,203.833 135.684 C 194.954 137.814,185.381 141.276,178.583 144.816 C 177.667 145.293,177.055 145.642,177.224 145.591 C 190.986 141.447,204.900 141.211,215.297 144.946 C 216.776 145.477,217.023 145.745,215.896 145.597 C 195.978 142.968,172.258 150.985,158.915 164.855 C 156.732 167.124,154.833 170.021,154.833 171.083 C 154.833 171.142,155.474 170.621,156.257 169.925 C 166.150 161.123,179.208 155.808,198.000 152.934 C 226.798 148.530,253.384 155.602,258.692 169.078 C 258.945 169.723,259.224 170.234,259.311 170.214 C 259.728 170.117,263.464 167.986,265.167 166.873 C 274.929 160.491,290.304 144.310,295.154 135.313 L 295.839 134.043 293.411 132.928 C 276.921 125.357,258.095 121.812,239.500 122.776 M91.250 153.352 C 86.565 154.571,78.301 154.606,73.722 153.427 L 72.861 153.205 71.139 154.243 C 70.192 154.814,67.954 156.147,66.167 157.205 C 52.799 165.115,43.661 173.575,36.947 184.257 C 35.833 186.031,35.857 185.782,36.337 190.462 C 37.740 204.137,40.388 209.867,47.667 214.980 C 54.072 219.480,65.319 221.279,71.753 218.832 L 72.238 218.648 70.872 217.918 C 57.381 210.709,55.499 200.134,66.027 190.701 C 75.118 182.557,86.070 178.504,103.750 176.743 C 118.744 175.249,136.644 177.839,135.910 181.395 C 132.136 199.667,123.238 216.871,114.798 222.213 L 114.347 222.499 113.937 221.791 C 112.225 218.835,112.279 215.107,114.162 206.271 C 115.238 201.222,115.487 199.760,115.610 197.743 C 115.942 192.339,113.617 189.563,108.226 188.928 L 107.369 188.827 108.003 190.090 C 110.335 194.732,110.903 200.576,109.623 206.750 C 107.599 216.509,108.034 224.600,110.944 231.288 L 111.250 231.992 113.250 230.561 C 129.214 219.137,141.313 200.531,146.649 179.200 C 148.222 172.908,149.052 170.224,150.016 168.306 L 150.491 167.362 148.370 168.112 C 129.072 174.942,108.379 169.859,94.049 154.768 L 92.417 153.048 91.250 153.352 M85.375 159.444 C 87.072 160.573,90.673 161.664,92.708 161.666 C 93.830 161.667,92.782 162.044,87.042 163.706 C 80.127 165.706,79.589 165.833,78.033 165.833 C 75.914 165.833,75.173 165.072,75.822 163.564 L 76.183 162.723 79.967 160.713 C 84.403 158.355,83.910 158.470,85.375 159.444 M192.667 161.502 C 182.606 162.201,173.458 164.960,166.667 169.343 C 164.597 170.679,164.456 170.847,166.083 170.040 C 174.478 165.877,184.845 165.046,195.601 167.674 C 207.432 170.566,214.982 177.168,216.186 185.677 L 216.395 187.150 218.003 186.324 C 223.907 183.291,229.613 178.307,232.875 173.333 L 233.695 172.083 232.973 171.452 C 225.017 164.500,208.432 160.406,192.667 161.502 " stroke="none" fill="#a5acaf"  fill-rule="evenodd"></path><path id="path25" d="M285.544 59.620 C 285.797 59.658,286.172 59.657,286.377 59.617 C 286.582 59.578,286.375 59.546,285.917 59.548 C 285.458 59.549,285.291 59.581,285.544 59.620 M278.125 95.118 C 278.331 95.157,278.669 95.157,278.875 95.118 C 279.081 95.078,278.912 95.045,278.500 95.045 C 278.087 95.045,277.919 95.078,278.125 95.118 M217.958 128.784 C 218.165 128.824,218.502 128.824,218.708 128.784 C 218.915 128.745,218.746 128.712,218.333 128.712 C 217.921 128.712,217.752 128.745,217.958 128.784 M221.044 128.786 C 221.297 128.825,221.672 128.824,221.877 128.784 C 222.082 128.744,221.875 128.713,221.417 128.714 C 220.958 128.716,220.791 128.748,221.044 128.786 M134.574 145.736 C 134.396 145.866,134.295 146.017,134.349 146.071 C 134.402 146.125,134.583 146.018,134.749 145.834 C 135.103 145.443,135.030 145.402,134.574 145.736 M120.375 157.115 C 120.535 157.157,120.798 157.157,120.958 157.115 C 121.119 157.073,120.987 157.039,120.667 157.039 C 120.346 157.039,120.215 157.073,120.375 157.115 " stroke="none" fill="#b1b7ba"  fill-rule="evenodd"></path><path id="path26" d="M299.460 46.618 C 299.668 46.658,299.968 46.656,300.127 46.615 C 300.286 46.573,300.117 46.540,299.750 46.542 C 299.383 46.544,299.253 46.578,299.460 46.618 M312.875 46.615 C 313.035 46.657,313.298 46.657,313.458 46.615 C 313.619 46.573,313.487 46.539,313.167 46.539 C 312.846 46.539,312.715 46.573,312.875 46.615 M282.548 59.623 C 283.078 59.657,283.903 59.656,284.381 59.623 C 284.859 59.589,284.425 59.562,283.417 59.562 C 282.408 59.563,282.017 59.590,282.548 59.623 M232.542 86.782 C 232.702 86.823,232.965 86.823,233.125 86.782 C 233.285 86.740,233.154 86.705,232.833 86.705 C 232.512 86.705,232.381 86.740,232.542 86.782 M279.458 95.118 C 279.665 95.157,280.002 95.157,280.208 95.118 C 280.415 95.078,280.246 95.045,279.833 95.045 C 279.421 95.045,279.252 95.078,279.458 95.118 M301.083 95.833 C 300.790 95.959,300.806 95.978,301.218 95.988 C 301.490 95.995,301.643 95.930,301.583 95.833 C 301.527 95.742,301.466 95.672,301.448 95.678 C 301.431 95.685,301.267 95.755,301.083 95.833 M113.997 101.458 L 112.417 103.083 114.042 101.503 C 114.935 100.634,115.667 99.903,115.667 99.878 C 115.667 99.758,115.464 99.949,113.997 101.458 M151.328 103.958 L 150.417 104.917 151.375 104.006 C 152.265 103.159,152.410 103.000,152.286 103.000 C 152.260 103.000,151.829 103.431,151.328 103.958 M219.375 128.786 C 219.627 128.824,220.040 128.824,220.292 128.786 C 220.544 128.748,220.338 128.717,219.833 128.717 C 219.329 128.717,219.123 128.748,219.375 128.786 M230.883 132.291 C 231.597 132.322,232.722 132.322,233.383 132.290 C 234.043 132.259,233.458 132.233,232.083 132.233 C 230.708 132.234,230.168 132.259,230.883 132.291 M127.573 145.375 L 127.083 145.917 127.625 145.427 C 127.923 145.158,128.167 144.914,128.167 144.885 C 128.167 144.757,128.029 144.870,127.573 145.375 M159.158 164.458 L 158.583 165.083 159.208 164.509 C 159.552 164.193,159.833 163.912,159.833 163.884 C 159.833 163.757,159.692 163.877,159.158 164.458 " stroke="none" fill="#bdc2c4"  fill-rule="evenodd"></path><path id="path27" d="" stroke="none" fill="#bbcfd1"  fill-rule="evenodd"></path><path id="path28" d="M301.125 46.618 C 301.331 46.657,301.669 46.657,301.875 46.618 C 302.081 46.578,301.912 46.545,301.500 46.545 C 301.087 46.545,300.919 46.578,301.125 46.618 M311.294 46.618 C 311.501 46.658,311.801 46.656,311.960 46.615 C 312.120 46.573,311.950 46.540,311.583 46.542 C 311.217 46.544,311.086 46.578,311.294 46.618 M207.131 145.123 C 207.615 145.157,208.365 145.156,208.797 145.122 C 209.230 145.088,208.833 145.060,207.917 145.061 C 207.000 145.061,206.646 145.089,207.131 145.123 " stroke="none" fill="#cfd3d4"  fill-rule="evenodd"></path><path id="path29" d="M302.544 46.620 C 302.797 46.658,303.172 46.657,303.377 46.617 C 303.582 46.578,303.375 46.546,302.917 46.548 C 302.458 46.549,302.291 46.581,302.544 46.620 M309.708 46.619 C 309.960 46.658,310.373 46.658,310.625 46.619 C 310.877 46.581,310.671 46.550,310.167 46.550 C 309.662 46.550,309.456 46.581,309.708 46.619 M234.542 86.782 C 234.702 86.823,234.965 86.823,235.125 86.782 C 235.285 86.740,235.154 86.705,234.833 86.705 C 234.512 86.705,234.381 86.740,234.542 86.782 M243.542 86.782 C 243.702 86.823,243.965 86.823,244.125 86.782 C 244.285 86.740,244.154 86.705,243.833 86.705 C 243.512 86.705,243.381 86.740,243.542 86.782 M326.828 114.125 L 325.917 115.083 326.875 114.172 C 327.765 113.326,327.910 113.167,327.786 113.167 C 327.760 113.167,327.329 113.598,326.828 114.125 M129.708 165.115 C 129.869 165.157,130.131 165.157,130.292 165.115 C 130.452 165.073,130.321 165.039,130.000 165.039 C 129.679 165.039,129.548 165.073,129.708 165.115 M201.458 210.451 C 201.665 210.491,202.002 210.491,202.208 210.451 C 202.415 210.411,202.246 210.379,201.833 210.379 C 201.421 210.379,201.252 210.411,201.458 210.451 " stroke="none" fill="#dbdedf"  fill-rule="evenodd"></path><path id="path30" d="M271.073 30.708 L 270.583 31.250 271.125 30.760 C 271.630 30.304,271.743 30.167,271.615 30.167 C 271.586 30.167,271.342 30.410,271.073 30.708 M305.042 46.624 C 305.844 46.655,307.156 46.655,307.958 46.624 C 308.760 46.594,308.104 46.569,306.500 46.569 C 304.896 46.569,304.240 46.594,305.042 46.624 M235.627 86.785 C 235.834 86.824,236.134 86.823,236.294 86.781 C 236.453 86.739,236.283 86.707,235.917 86.709 C 235.550 86.711,235.420 86.745,235.627 86.785 M242.460 86.785 C 242.668 86.824,242.968 86.823,243.127 86.781 C 243.286 86.739,243.117 86.707,242.750 86.709 C 242.383 86.711,242.253 86.745,242.460 86.785 M272.625 94.957 C 273.198 94.989,274.135 94.989,274.708 94.957 C 275.281 94.924,274.813 94.898,273.667 94.898 C 272.521 94.898,272.052 94.924,272.625 94.957 M328.409 112.542 L 327.750 113.250 328.458 112.591 C 329.117 111.978,329.243 111.833,329.117 111.833 C 329.090 111.833,328.771 112.152,328.409 112.542 M149.240 121.542 L 148.750 122.083 149.292 121.594 C 149.797 121.138,149.910 121.000,149.781 121.000 C 149.752 121.000,149.509 121.244,149.240 121.542 M42.910 159.708 L 42.083 160.583 42.958 159.756 C 43.440 159.301,43.833 158.908,43.833 158.881 C 43.833 158.757,43.679 158.895,42.910 159.708 M130.792 165.118 C 130.998 165.157,131.335 165.157,131.542 165.118 C 131.748 165.078,131.579 165.045,131.167 165.045 C 130.754 165.045,130.585 165.078,130.792 165.118 " stroke="none" fill="#e7e9ea"  fill-rule="evenodd"></path><path id="path31" d="M277.742 24.208 L 277.083 24.917 277.792 24.258 C 278.181 23.895,278.500 23.577,278.500 23.550 C 278.500 23.423,278.355 23.550,277.742 24.208 M269.909 31.875 L 269.250 32.583 269.958 31.925 C 270.348 31.562,270.667 31.243,270.667 31.216 C 270.667 31.090,270.522 31.216,269.909 31.875 M237.875 86.791 C 238.677 86.821,239.990 86.821,240.792 86.791 C 241.594 86.760,240.938 86.735,239.333 86.735 C 237.729 86.735,237.073 86.760,237.875 86.791 M270.794 94.951 C 271.001 94.991,271.301 94.990,271.460 94.948 C 271.620 94.906,271.450 94.874,271.083 94.875 C 270.717 94.877,270.586 94.911,270.794 94.951 M275.958 94.951 C 276.165 94.991,276.502 94.991,276.708 94.951 C 276.915 94.911,276.746 94.879,276.333 94.879 C 275.921 94.879,275.752 94.911,275.958 94.951 M329.573 111.375 L 329.083 111.917 329.625 111.427 C 330.130 110.971,330.243 110.833,330.115 110.833 C 330.086 110.833,329.842 111.077,329.573 111.375 M324.491 116.458 L 323.917 117.083 324.542 116.509 C 325.123 115.974,325.243 115.833,325.116 115.833 C 325.088 115.833,324.807 116.115,324.491 116.458 M196.625 142.451 C 196.831 142.491,197.169 142.491,197.375 142.451 C 197.581 142.411,197.412 142.379,197.000 142.379 C 196.588 142.379,196.419 142.411,196.625 142.451 M199.294 142.451 C 199.501 142.491,199.801 142.490,199.960 142.448 C 200.120 142.406,199.950 142.374,199.583 142.375 C 199.217 142.377,199.086 142.411,199.294 142.451 M133.835 146.748 C 133.722 146.885,133.574 146.962,133.506 146.921 C 133.346 146.822,132.614 147.503,132.743 147.632 C 132.797 147.686,132.957 147.564,133.099 147.362 C 133.240 147.160,133.416 147.031,133.489 147.077 C 133.562 147.122,133.756 147.011,133.920 146.829 C 134.084 146.648,134.178 146.500,134.130 146.500 C 134.081 146.500,133.948 146.612,133.835 146.748 M308.746 155.875 L 307.583 157.083 308.792 155.921 C 309.914 154.842,310.076 154.667,309.954 154.667 C 309.928 154.667,309.385 155.210,308.746 155.875 M40.740 161.875 L 40.250 162.417 40.792 161.927 C 41.297 161.471,41.410 161.333,41.281 161.333 C 41.252 161.333,41.009 161.577,40.740 161.875 " stroke="none" fill="#f3f4f4"  fill-rule="evenodd"></path></g></svg>