<svg xmlns="http://www.w3.org/2000/svg" width="500" height="300"><path d="M245,138L208,140L224,150Z" fill="#b456d2" stroke="#b456d2" stroke-width="1.51"/><path d="M245,138L245,102L208,140Z" fill="#b95ad6" stroke="#b95ad6" stroke-width="1.51"/><path d="M245,138L283,139L245,102Z" fill="#b154d1" stroke="#b154d1" stroke-width="1.51"/><path d="M224,150L267,150L245,138Z" fill="#ac51cc" stroke="#ac51cc" stroke-width="1.51"/><path d="M245,102L194,92L208,140Z" fill="#c563df" stroke="#c563df" stroke-width="1.51"/><path d="M208,140L194,169L224,150Z" fill="#b456d3" stroke="#b456d3" stroke-width="1.51"/><path d="M224,150L272,198L267,150Z" fill="#a047c3" stroke="#a047c3" stroke-width="1.51"/><path d="M169,147L194,169L208,140Z" fill="#ba5bd7" stroke="#ba5bd7" stroke-width="1.51"/><path d="M245,102L242,75L194,92Z" fill="#cc69e5" stroke="#cc69e5" stroke-width="1.51"/><path d="M265,83L242,75L245,102Z" fill="#c664e0" stroke="#c664e0" stroke-width="1.51"/><path d="M267,150L283,139L245,138Z" fill="#a84dc9" stroke="#a84dc9" stroke-width="1.51"/><path d="M194,92L169,147L208,140Z" fill="#c664e0" stroke="#c664e0" stroke-width="1.51"/><path d="M286,97L265,83L245,102Z" fill="#be5eda" stroke="#be5eda" stroke-width="1.51"/><path d="M194,92L154,95L169,147Z" fill="#d36eea" stroke="#d36eea" stroke-width="1.51"/><path d="M242,75L202,70L194,92Z" fill="#d46feb" stroke="#d46feb" stroke-width="1.51"/><path d="M283,139L286,97L245,102Z" fill="#b356d2" stroke="#b356d2" stroke-width="1.51"/><path d="M267,150L291,146L283,139Z" fill="#a248c5" stroke="#a248c5" stroke-width="1.51"/><path d="M272,198L291,146L267,150Z" fill="#9a42bf" stroke="#9a42bf" stroke-width="1.51"/><path d="M291,146L286,97L283,139Z" fill="#a84dc9" stroke="#a84dc9" stroke-width="1.51"/><path d="M194,169L212,204L224,150Z" fill="#aa4fcb" stroke="#aa4fcb" stroke-width="1.51"/><path d="M197,221L212,204L194,169Z" fill="#a249c5" stroke="#a249c5" stroke-width="1.51"/><path d="M146,75L154,95L194,92Z" fill="#e078f5" stroke="#e078f5" stroke-width="1.51"/><path d="M212,204L272,198L224,150Z" fill="#9e45c1" stroke="#9e45c1" stroke-width="1.51"/><path d="M265,83L279,62L242,75Z" fill="#c261dd" stroke="#c261dd" stroke-width="1.51"/><path d="M213,23L172,44L202,70Z" fill="#c666e2" stroke="#c666e2" stroke-width="1.51"/><path d="M286,97L279,62L265,83Z" fill="#c160dd" stroke="#c160dd" stroke-width="1.51"/><path d="M212,204L241,219L272,198Z" fill="#923cb8" stroke="#923cb8" stroke-width="1.51"/><path d="M169,147L147,176L194,169Z" fill="#bb5cd8" stroke="#bb5cd8" stroke-width="1.51"/><path d="M212,204L215,223L241,219Z" fill="#943dba" stroke="#943dba" stroke-width="1.51"/><path d="M124,165L147,176L169,147Z" fill="#c362de" stroke="#c362de" stroke-width="1.51"/><path d="M197,221L215,223L212,204Z" fill="#9840bd" stroke="#9840bd" stroke-width="1.51"/><path d="M157,201L197,221L194,169Z" fill="#a84dca" stroke="#a84dca" stroke-width="1.51"/><path d="M154,95L124,134L169,147Z" fill="#d36eea" stroke="#d36eea" stroke-width="1.51"/><path d="M202,70L146,75L194,92Z" fill="#de77f3" stroke="#de77f3" stroke-width="1.51"/><path d="M172,44L146,75L202,70Z" fill="#d772ee" stroke="#d772ee" stroke-width="1.51"/><path d="M291,146L337,135L286,97Z" fill="#a349c6" stroke="#a349c6" stroke-width="1.51"/><path d="M286,97L318,52L279,62Z" fill="#b658d5" stroke="#b658d5" stroke-width="1.51"/><path d="M272,198L310,182L291,146Z" fill="#913bb8" stroke="#913bb8" stroke-width="1.51"/><path d="M308,196L310,182L272,198Z" fill="#8834b0" stroke="#8834b0" stroke-width="1.51"/><path d="M147,176L157,201L194,169Z" fill="#b456d3" stroke="#b456d3" stroke-width="1.51"/><path d="M213,23L202,70L242,75Z" fill="#c564e0" stroke="#c564e0" stroke-width="1.51"/><path d="M120,84L124,134L154,95Z" fill="#d973ef" stroke="#d973ef" stroke-width="1.51"/><path d="M147,176L114,186L157,201Z" fill="#b658d4" stroke="#b658d4" stroke-width="1.51"/><path d="M300,252L308,196L272,198Z" fill="#7e2ca9" stroke="#7e2ca9" stroke-width="1.51"/><path d="M241,219L260,230L272,198Z" fill="#8934b2" stroke="#8934b2" stroke-width="1.51"/><path d="M222,271L260,230L241,219Z" fill="#8436a8" stroke="#8436a8" stroke-width="1.51"/><path d="M222,271L241,219L215,223Z" fill="#8a3aac" stroke="#8a3aac" stroke-width="1.51"/><path d="M260,21L213,23L242,75Z" fill="#b55ad5" stroke="#b55ad5" stroke-width="1.51"/><path d="M124,134L124,165L169,147Z" fill="#c766e2" stroke="#c766e2" stroke-width="1.51"/><path d="M337,165L337,135L291,146Z" fill="#943eba" stroke="#943eba" stroke-width="1.51"/><path d="M337,165L291,146L310,182Z" fill="#8f3ab6" stroke="#8f3ab6" stroke-width="1.51"/><path d="M146,75L127,77L154,95Z" fill="#e87ffa" stroke="#e87ffa" stroke-width="1.51"/><path d="M126,36L127,77L146,75Z" fill="#db76f1" stroke="#db76f1" stroke-width="1.51"/><path d="M279,62L260,21L242,75Z" fill="#b659d5" stroke="#b659d5" stroke-width="1.51"/><path d="M309,10L260,21L279,62Z" fill="#a34cc7" stroke="#a34cc7" stroke-width="1.51"/><path d="M127,77L120,84L154,95Z" fill="#e37bf7" stroke="#e37bf7" stroke-width="1.51"/><path d="M90,155L114,186L124,165Z" fill="#b357d2" stroke="#b357d2" stroke-width="1.51"/><path d="M340,206L337,165L310,182Z" fill="#822fac" stroke="#822fac" stroke-width="1.51"/><path d="M260,21L249,12L213,23Z" fill="#a950cc" stroke="#a950cc" stroke-width="1.51"/><path d="M337,135L343,104L286,97Z" fill="#a54ac7" stroke="#a54ac7" stroke-width="1.51"/><path d="M363,149L343,104L337,135Z" fill="#953ebb" stroke="#953ebb" stroke-width="1.51"/><path d="M343,104L318,52L286,97Z" fill="#b356d2" stroke="#b356d2" stroke-width="1.51"/><path d="M260,21L259,-8L249,12Z" fill="#9f4ac4" stroke="#9f4ac4" stroke-width="1.51"/><path d="M90,155L124,165L124,134Z" fill="#bc5ed9" stroke="#bc5ed9" stroke-width="1.51"/><path d="M124,165L114,186L147,176Z" fill="#b759d5" stroke="#b759d5" stroke-width="1.51"/><path d="M157,201L152,239L197,221Z" fill="#a248c5" stroke="#a248c5" stroke-width="1.51"/><path d="M213,23L152,2L172,44Z" fill="#be61dc" stroke="#be61dc" stroke-width="1.51"/><path d="M172,44L126,36L146,75Z" fill="#d874f0" stroke="#d874f0" stroke-width="1.51"/><path d="M249,12L214,2L213,23Z" fill="#aa52cd" stroke="#aa52cd" stroke-width="1.51"/><path d="M152,2L126,36L172,44Z" fill="#ca6ae5" stroke="#ca6ae5" stroke-width="1.51"/><path d="M249,12L219,-3L214,2Z" fill="#a44ec9" stroke="#a44ec9" stroke-width="1.51"/><path d="M197,221L222,271L215,223Z" fill="#8d3daf" stroke="#8d3daf" stroke-width="1.51"/><path d="M120,239L152,239L157,201Z" fill="#a54dc5" stroke="#a54dc5" stroke-width="1.51"/><path d="M318,52L309,10L279,62Z" fill="#a34bc7" stroke="#a34bc7" stroke-width="1.51"/><path d="M249,12L259,-8L219,-3Z" fill="#9e49c4" stroke="#9e49c4" stroke-width="1.51"/><path d="M344,60L326,37L318,52Z" fill="#a048c4" stroke="#a048c4" stroke-width="1.51"/><path d="M152,2L213,23L214,2Z" fill="#b258d3" stroke="#b258d3" stroke-width="1.51"/><path d="M85,70L90,80L120,84Z" fill="#d772ee" stroke="#d772ee" stroke-width="1.51"/><path d="M343,104L344,60L318,52Z" fill="#ab50cb" stroke="#ab50cb" stroke-width="1.51"/><path d="M308,196L340,206L310,182Z" fill="#802daa" stroke="#802daa" stroke-width="1.51"/><path d="M337,165L363,149L337,135Z" fill="#8c37b4" stroke="#8c37b4" stroke-width="1.51"/><path d="M324,247L340,206L308,196Z" fill="#7525a2" stroke="#7525a2" stroke-width="1.51"/><path d="M78,128L124,134L120,84Z" fill="#cb69e5" stroke="#cb69e5" stroke-width="1.51"/><path d="M78,128L90,155L124,134Z" fill="#bc5eda" stroke="#bc5eda" stroke-width="1.51"/><path d="M114,186L120,239L157,201Z" fill="#a94eca" stroke="#a94eca" stroke-width="1.51"/><path d="M373,161L363,149L337,165Z" fill="#8532ae" stroke="#8532ae" stroke-width="1.51"/><path d="M343,104L369,75L344,60Z" fill="#aa4fcb" stroke="#aa4fcb" stroke-width="1.51"/><path d="M309,10L259,-8L260,21Z" fill="#9845bf" stroke="#9845bf" stroke-width="1.51"/><path d="M210,283L222,271L197,221Z" fill="#863ca4" stroke="#863ca4" stroke-width="1.51"/><path d="M260,230L300,252L272,198Z" fill="#7f2ea7" stroke="#7f2ea7" stroke-width="1.51"/><path d="M267,287L300,252L260,230Z" fill="#742d96" stroke="#742d96" stroke-width="1.51"/><path d="M85,70L120,84L127,77Z" fill="#da76f1" stroke="#da76f1" stroke-width="1.51"/><path d="M326,37L309,10L318,52Z" fill="#9a45c0" stroke="#9a45c0" stroke-width="1.51"/><path d="M307,-18L309,10L354,9Z" fill="#8636b1" stroke="#8636b1" stroke-width="1.51"/><path d="M90,155L101,203L114,186Z" fill="#aa50cc" stroke="#aa50cc" stroke-width="1.51"/><path d="M180,-44L152,2L214,2Z" fill="#a952cd" stroke="#a952cd" stroke-width="1.51"/><path d="M98,35L85,70L127,77Z" fill="#ce6de8" stroke="#ce6de8" stroke-width="1.51"/><path d="M138,-4L152,2L155,-40Z" fill="#b35ad4" stroke="#b35ad4" stroke-width="1.51"/><path d="M90,80L78,128L120,84Z" fill="#cf6ce8" stroke="#cf6ce8" stroke-width="1.51"/><path d="M53,204L86,228L101,203Z" fill="#9440bc" stroke="#9440bc" stroke-width="1.51"/><path d="M340,206L373,161L337,165Z" fill="#7e2ca9" stroke="#7e2ca9" stroke-width="1.51"/><path d="M381,99L369,75L343,104Z" fill="#a149c2" stroke="#a149c2" stroke-width="1.51"/><path d="M101,203L120,239L114,186Z" fill="#a249c5" stroke="#a249c5" stroke-width="1.51"/><path d="M177,284L210,283L197,221Z" fill="#883fa4" stroke="#883fa4" stroke-width="1.51"/><path d="M98,35L127,77L126,36Z" fill="#cd6ce8" stroke="#cd6ce8" stroke-width="1.51"/><path d="M90,80L67,106L78,128Z" fill="#c565e0" stroke="#c565e0" stroke-width="1.51"/><path d="M344,60L354,9L326,37Z" fill="#943fbb" stroke="#943fbb" stroke-width="1.51"/><path d="M381,99L343,104L363,149Z" fill="#9640ba" stroke="#9640ba" stroke-width="1.51"/><path d="M340,206L385,204L373,161Z" fill="#74269f" stroke="#74269f" stroke-width="1.51"/><path d="M300,252L324,247L308,196Z" fill="#73269d" stroke="#73269d" stroke-width="1.51"/><path d="M317,270L324,247L300,252Z" fill="#68248e" stroke="#68248e" stroke-width="1.51"/><path d="M222,271L267,287L260,230Z" fill="#783398" stroke="#783398" stroke-width="1.51"/><path d="M177,284L197,221L152,239Z" fill="#9444b1" stroke="#9444b1" stroke-width="1.51"/><path d="M399,129L381,99L363,149Z" fill="#8d3db0" stroke="#8d3db0" stroke-width="1.51"/><path d="M96,-8L98,35L126,36Z" fill="#b95ed9" stroke="#b95ed9" stroke-width="1.51"/><path d="M152,2L138,-4L126,36Z" fill="#c063de" stroke="#c063de" stroke-width="1.51"/><path d="M180,-44L214,2L219,-3Z" fill="#a14cc7" stroke="#a14cc7" stroke-width="1.51"/><path d="M31,64L67,106L85,70Z" fill="#c96ae5" stroke="#c96ae5" stroke-width="1.51"/><path d="M85,70L67,106L90,80Z" fill="#ce6de8" stroke="#ce6de8" stroke-width="1.51"/><path d="M54,168L101,203L90,155Z" fill="#a54dc8" stroke="#a54dc8" stroke-width="1.51"/><path d="M135,266L177,284L152,239Z" fill="#9448ad" stroke="#9448ad" stroke-width="1.51"/><path d="M224,299L267,287L222,271Z" fill="#73348d" stroke="#73348d" stroke-width="1.51"/><path d="M224,299L222,271L210,283Z" fill="#783892" stroke="#783892" stroke-width="1.51"/><path d="M120,239L135,266L152,239Z" fill="#9a49b6" stroke="#9a49b6" stroke-width="1.51"/><path d="M374,244L385,204L340,206Z" fill="#681c96" stroke="#681c96" stroke-width="1.51"/><path d="M267,287L317,270L300,252Z" fill="#68288a" stroke="#68288a" stroke-width="1.51"/><path d="M309,10L307,-18L259,-8Z" fill="#8c3cb7" stroke="#8c3cb7" stroke-width="1.51"/><path d="M259,-8L263,-37L219,-3Z" fill="#9342bc" stroke="#9342bc" stroke-width="1.51"/><path d="M354,9L309,10L326,37Z" fill="#8e3cb7" stroke="#8e3cb7" stroke-width="1.51"/><path d="M199,305L224,299L210,283Z" fill="#76388d" stroke="#76388d" stroke-width="1.51"/><path d="M307,-18L263,-37L259,-8Z" fill="#8839b4" stroke="#8839b4" stroke-width="1.51"/><path d="M120,239L106,288L135,266Z" fill="#8d44a8" stroke="#8d44a8" stroke-width="1.51"/><path d="M101,203L86,228L120,239Z" fill="#9742bc" stroke="#9742bc" stroke-width="1.51"/><path d="M54,168L90,155L46,144Z" fill="#a850ca" stroke="#a850ca" stroke-width="1.51"/><path d="M373,161L399,129L363,149Z" fill="#8435aa" stroke="#8435aa" stroke-width="1.51"/><path d="M381,99L391,73L369,75Z" fill="#a14cbe" stroke="#a14cbe" stroke-width="1.51"/><path d="M414,184L399,129L373,161Z" fill="#7b319f" stroke="#7b319f" stroke-width="1.51"/><path d="M381,25L354,9L344,60Z" fill="#8d3bb5" stroke="#8d3bb5" stroke-width="1.51"/><path d="M415,98L391,73L381,99Z" fill="#9948b6" stroke="#9948b6" stroke-width="1.51"/><path d="M381,25L344,60L369,75Z" fill="#9743bb" stroke="#9743bb" stroke-width="1.51"/><path d="M374,244L340,206L324,247Z" fill="#681d94" stroke="#681d94" stroke-width="1.51"/><path d="M46,144L90,155L78,128Z" fill="#b156d1" stroke="#b156d1" stroke-width="1.51"/><path d="M177,309L199,305L177,284Z" fill="#7c3e90" stroke="#7c3e90" stroke-width="1.51"/><path d="M177,284L199,305L210,283Z" fill="#7d3d93" stroke="#7d3d93" stroke-width="1.51"/><path d="M244,-57L180,-44L219,-3Z" fill="#9343bd" stroke="#9343bd" stroke-width="1.51"/><path d="M98,35L65,50L85,70Z" fill="#c164df" stroke="#c164df" stroke-width="1.51"/><path d="M67,106L46,144L78,128Z" fill="#b55ad5" stroke="#b55ad5" stroke-width="1.51"/><path d="M50,27L65,50L98,35Z" fill="#b55bd6" stroke="#b55bd6" stroke-width="1.51"/><path d="M96,-8L126,36L138,-4Z" fill="#b75dd7" stroke="#b75dd7" stroke-width="1.51"/><path d="M28,155L46,144L23,129Z" fill="#a24cc7" stroke="#a24cc7" stroke-width="1.51"/><path d="M267,287L318,294L317,270Z" fill="#622681" stroke="#622681" stroke-width="1.51"/><path d="M224,299L255,310L267,287Z" fill="#6a3083" stroke="#6a3083" stroke-width="1.51"/><path d="M217,357L255,310L224,299Z" fill="#66327a" stroke="#66327a" stroke-width="1.51"/><path d="M180,-44L155,-40L152,2Z" fill="#a652cc" stroke="#a652cc" stroke-width="1.51"/><path d="M124,304L177,309L177,284Z" fill="#844496" stroke="#844496" stroke-width="1.51"/><path d="M199,305L196,331L224,299Z" fill="#713885" stroke="#713885" stroke-width="1.51"/><path d="M124,304L177,284L135,266Z" fill="#8e48a2" stroke="#8e48a2" stroke-width="1.51"/><path d="M395,41L381,25L369,75Z" fill="#8f40b2" stroke="#8f40b2" stroke-width="1.51"/><path d="M263,-37L244,-57L219,-3Z" fill="#8c3db7" stroke="#8c3db7" stroke-width="1.51"/><path d="M180,-44L141,-45L155,-40Z" fill="#9f4cc6" stroke="#9f4cc6" stroke-width="1.51"/><path d="M316,-49L244,-57L263,-37Z" fill="#7930aa" stroke="#7930aa" stroke-width="1.51"/><path d="M316,-49L263,-37L307,-18Z" fill="#7b2faa" stroke="#7b2faa" stroke-width="1.51"/><path d="M327,-40L307,-18L354,9Z" fill="#7b2faa" stroke="#7b2faa" stroke-width="1.51"/><path d="M346,275L374,244L324,247Z" fill="#5f1d87" stroke="#5f1d87" stroke-width="1.51"/><path d="M346,275L324,247L317,270Z" fill="#612086" stroke="#612086" stroke-width="1.51"/><path d="M86,228L106,288L120,239Z" fill="#8c41ab" stroke="#8c41ab" stroke-width="1.51"/><path d="M54,168L53,204L101,203Z" fill="#9944c0" stroke="#9944c0" stroke-width="1.51"/><path d="M10,186L53,204L54,168Z" fill="#913eb9" stroke="#913eb9" stroke-width="1.51"/><path d="M53,204L66,229L86,228Z" fill="#8c3ab6" stroke="#8c3ab6" stroke-width="1.51"/><path d="M141,-45L96,-8L138,-4Z" fill="#a953ce" stroke="#a953ce" stroke-width="1.51"/><path d="M291,337L318,294L267,287Z" fill="#5c2776" stroke="#5c2776" stroke-width="1.51"/><path d="M318,294L346,275L317,270Z" fill="#5c207d" stroke="#5c207d" stroke-width="1.51"/><path d="M391,73L395,41L369,75Z" fill="#9746b7" stroke="#9746b7" stroke-width="1.51"/><path d="M451,63L395,41L391,73Z" fill="#8e42aa" stroke="#8e42aa" stroke-width="1.51"/><path d="M414,184L373,161L385,204Z" fill="#712898" stroke="#712898" stroke-width="1.51"/><path d="M459,128L415,98L399,129Z" fill="#853da0" stroke="#853da0" stroke-width="1.51"/><path d="M399,129L415,98L381,99Z" fill="#9041ae" stroke="#9041ae" stroke-width="1.51"/><path d="M155,-40L141,-45L138,-4Z" fill="#ab54cf" stroke="#ab54cf" stroke-width="1.51"/><path d="M244,-57L141,-45L180,-44Z" fill="#9343bd" stroke="#9343bd" stroke-width="1.51"/><path d="M412,204L414,184L385,204Z" fill="#68238e" stroke="#68238e" stroke-width="1.51"/><path d="M383,-29L327,-40L354,9Z" fill="#7127a2" stroke="#7127a2" stroke-width="1.51"/><path d="M382,-4L354,9L381,25Z" fill="#7d32a7" stroke="#7d32a7" stroke-width="1.51"/><path d="M51,278L106,288L86,228Z" fill="#7f3a9e" stroke="#7f3a9e" stroke-width="1.51"/><path d="M327,-40L316,-49L307,-18Z" fill="#742aa5" stroke="#742aa5" stroke-width="1.51"/><path d="M46,144L28,155L54,168Z" fill="#a04ac5" stroke="#a04ac5" stroke-width="1.51"/><path d="M23,129L46,144L67,106Z" fill="#ae55d0" stroke="#ae55d0" stroke-width="1.51"/><path d="M410,253L385,204L374,244Z" fill="#5c1b84" stroke="#5c1b84" stroke-width="1.51"/><path d="M410,253L412,204L385,204Z" fill="#5e1b87" stroke="#5e1b87" stroke-width="1.51"/><path d="M106,288L124,304L135,266Z" fill="#85429b" stroke="#85429b" stroke-width="1.51"/><path d="M16,80L23,129L67,106Z" fill="#b45ad5" stroke="#b45ad5" stroke-width="1.51"/><path d="M65,50L31,64L85,70Z" fill="#be62dd" stroke="#be62dd" stroke-width="1.51"/><path d="M62,-4L50,27L98,35Z" fill="#aa54ce" stroke="#aa54ce" stroke-width="1.51"/><path d="M62,-4L98,35L96,-8Z" fill="#a953ce" stroke="#a953ce" stroke-width="1.51"/><path d="M150,356L196,331L177,309Z" fill="#723d80" stroke="#723d80" stroke-width="1.51"/><path d="M177,309L196,331L199,305Z" fill="#743b86" stroke="#743b86" stroke-width="1.51"/><path d="M291,337L333,306L318,294Z" fill="#53226d" stroke="#53226d" stroke-width="1.51"/><path d="M327,-40L424,-59L316,-49Z" fill="#601c96" stroke="#601c96" stroke-width="1.51"/><path d="M411,-3L382,-4L381,25Z" fill="#76309e" stroke="#76309e" stroke-width="1.51"/><path d="M383,-29L382,-4L411,-3Z" fill="#6c2997" stroke="#6c2997" stroke-width="1.51"/><path d="M50,27L31,64L65,50Z" fill="#b259d4" stroke="#b259d4" stroke-width="1.51"/><path d="M346,275L366,288L374,244Z" fill="#561a7b" stroke="#561a7b" stroke-width="1.51"/><path d="M318,294L333,306L346,275Z" fill="#561f75" stroke="#561f75" stroke-width="1.51"/><path d="M291,337L267,287L255,310Z" fill="#5f2b77" stroke="#5f2b77" stroke-width="1.51"/><path d="M-11,74L16,80L31,64Z" fill="#b35ad5" stroke="#b35ad5" stroke-width="1.51"/><path d="M63,-34L62,-4L96,-8Z" fill="#9848c2" stroke="#9848c2" stroke-width="1.51"/><path d="M333,306L366,288L346,275Z" fill="#521b73" stroke="#521b73" stroke-width="1.51"/><path d="M141,-45L90,-37L96,-8Z" fill="#9d4bc5" stroke="#9d4bc5" stroke-width="1.51"/><path d="M31,64L16,80L67,106Z" fill="#bf63de" stroke="#bf63de" stroke-width="1.51"/><path d="M37,11L31,64L50,27Z" fill="#a751cc" stroke="#a751cc" stroke-width="1.51"/><path d="M260,349L291,337L255,310Z" fill="#58296b" stroke="#58296b" stroke-width="1.51"/><path d="M333,306L369,298L366,288Z" fill="#4d196c" stroke="#4d196c" stroke-width="1.51"/><path d="M366,288L393,270L374,244Z" fill="#531a76" stroke="#531a76" stroke-width="1.51"/><path d="M366,288L369,298L393,270Z" fill="#4c1a6c" stroke="#4c1a6c" stroke-width="1.51"/><path d="M369,340L369,298L333,306Z" fill="#461863" stroke="#461863" stroke-width="1.51"/><path d="M441,287L410,253L393,270Z" fill="#491966" stroke="#491966" stroke-width="1.51"/><path d="M393,270L410,253L374,244Z" fill="#531a77" stroke="#531a77" stroke-width="1.51"/><path d="M462,155L452,150L414,184Z" fill="#6c2d8a" stroke="#6c2d8a" stroke-width="1.51"/><path d="M217,357L260,349L255,310Z" fill="#5c2e6d" stroke="#5c2e6d" stroke-width="1.51"/><path d="M382,-4L383,-29L354,9Z" fill="#732ba0" stroke="#732ba0" stroke-width="1.51"/><path d="M411,-3L381,25L395,41Z" fill="#7d35a2" stroke="#7d35a2" stroke-width="1.51"/><path d="M62,-4L37,11L50,27Z" fill="#9e4cc6" stroke="#9e4cc6" stroke-width="1.51"/><path d="M30,-15L37,11L62,-4Z" fill="#9344be" stroke="#9344be" stroke-width="1.51"/><path d="M28,155L10,186L54,168Z" fill="#9542bd" stroke="#9542bd" stroke-width="1.51"/><path d="M19,253L51,278L66,229Z" fill="#77329b" stroke="#77329b" stroke-width="1.51"/><path d="M66,229L51,278L86,228Z" fill="#8238a7" stroke="#8238a7" stroke-width="1.51"/><path d="M3,144L10,186L28,155Z" fill="#9241bb" stroke="#9241bb" stroke-width="1.51"/><path d="M3,144L28,155L23,129Z" fill="#9c48c3" stroke="#9c48c3" stroke-width="1.51"/><path d="M4,97L3,144L23,129Z" fill="#a24dc8" stroke="#a24dc8" stroke-width="1.51"/><path d="M16,80L4,97L23,129Z" fill="#ad56d0" stroke="#ad56d0" stroke-width="1.51"/><path d="M-11,74L4,97L16,80Z" fill="#b259d3" stroke="#b259d3" stroke-width="1.51"/><path d="M451,215L414,184L412,204Z" fill="#602185" stroke="#602185" stroke-width="1.51"/><path d="M414,184L452,150L399,129Z" fill="#763196" stroke="#763196" stroke-width="1.51"/><path d="M442,27L411,-3L395,41Z" fill="#78359a" stroke="#78359a" stroke-width="1.51"/><path d="M451,63L391,73L415,98Z" fill="#9649af" stroke="#9649af" stroke-width="1.51"/><path d="M196,331L217,357L224,299Z" fill="#693679" stroke="#693679" stroke-width="1.51"/><path d="M150,356L217,357L196,331Z" fill="#673974" stroke="#673974" stroke-width="1.51"/><path d="M19,253L66,229L53,204Z" fill="#8034ab" stroke="#8034ab" stroke-width="1.51"/><path d="M106,288L93,320L124,304Z" fill="#793d8d" stroke="#793d8d" stroke-width="1.51"/><path d="M124,304L150,356L177,309Z" fill="#7d438a" stroke="#7d438a" stroke-width="1.51"/><path d="M410,253L436,223L412,204Z" fill="#571a7d" stroke="#571a7d" stroke-width="1.51"/><path d="M13,-39L63,-34L90,-37Z" fill="#853bb4" stroke="#853bb4" stroke-width="1.51"/><path d="M90,-37L63,-34L96,-8Z" fill="#9546c0" stroke="#9546c0" stroke-width="1.51"/><path d="M59,293L93,320L106,288Z" fill="#72388a" stroke="#72388a" stroke-width="1.51"/><path d="M452,150L459,128L399,129Z" fill="#7a3796" stroke="#7a3796" stroke-width="1.51"/><path d="M462,155L459,128L452,150Z" fill="#70338b" stroke="#70338b" stroke-width="1.51"/><path d="M51,278L59,293L106,288Z" fill="#73368f" stroke="#73368f" stroke-width="1.51"/><path d="M459,89L451,63L415,98Z" fill="#8f48a5" stroke="#8f48a5" stroke-width="1.51"/><path d="M459,128L459,89L415,98Z" fill="#85409d" stroke="#85409d" stroke-width="1.51"/><path d="M459,128L472,125L459,89Z" fill="#7c3c93" stroke="#7c3c93" stroke-width="1.51"/><path d="M451,215L462,155L414,184Z" fill="#632684" stroke="#632684" stroke-width="1.51"/><path d="M463,29L442,27L451,63Z" fill="#783a93" stroke="#783a93" stroke-width="1.51"/><path d="M451,63L442,27L395,41Z" fill="#813c9d" stroke="#813c9d" stroke-width="1.51"/><path d="M110,341L150,356L124,304Z" fill="#733f81" stroke="#733f81" stroke-width="1.51"/><path d="M93,320L97,332L124,304Z" fill="#723b84" stroke="#723b84" stroke-width="1.51"/><path d="M49,353L97,332L93,320Z" fill="#633474" stroke="#633474" stroke-width="1.51"/><path d="M436,223L451,215L412,204Z" fill="#591c7d" stroke="#591c7d" stroke-width="1.51"/><path d="M466,259L451,215L436,223Z" fill="#4e1a6d" stroke="#4e1a6d" stroke-width="1.51"/><path d="M466,259L436,223L410,253Z" fill="#4c196c" stroke="#4c196c" stroke-width="1.51"/><path d="M59,293L49,353L93,320Z" fill="#633279" stroke="#633279" stroke-width="1.51"/><path d="M51,278L35,306L59,293Z" fill="#693085" stroke="#693085" stroke-width="1.51"/><path d="M-2,225L19,253L53,204Z" fill="#782ea5" stroke="#782ea5" stroke-width="1.51"/><path d="M-2,225L53,204L10,186Z" fill="#8133ae" stroke="#8133ae" stroke-width="1.51"/><path d="M97,332L110,341L124,304Z" fill="#713c81" stroke="#713c81" stroke-width="1.51"/><path d="M369,298L404,307L393,270Z" fill="#471964" stroke="#471964" stroke-width="1.51"/><path d="M291,337L341,343L333,306Z" fill="#4b1f62" stroke="#4b1f62" stroke-width="1.51"/><path d="M260,349L341,343L291,337Z" fill="#4d235f" stroke="#4d235f" stroke-width="1.51"/><path d="M430,357L341,343L260,349Z" fill="#3e1953" stroke="#3e1953" stroke-width="1.51"/><path d="M63,-34L30,-15L62,-4Z" fill="#8e41bb" stroke="#8e41bb" stroke-width="1.51"/><path d="M1,13L-11,74L31,64Z" fill="#a450ca" stroke="#a450ca" stroke-width="1.51"/><path d="M4,97L-57,118L3,144Z" fill="#9a47c2" stroke="#9a47c2" stroke-width="1.51"/><path d="M-26,190L-2,225L10,186Z" fill="#7a2ea8" stroke="#7a2ea8" stroke-width="1.51"/><path d="M1,13L31,64L37,11Z" fill="#9e4cc6" stroke="#9e4cc6" stroke-width="1.51"/><path d="M19,253L25,269L51,278Z" fill="#6c2e90" stroke="#6c2e90" stroke-width="1.51"/><path d="M462,155L472,125L459,128Z" fill="#72358b" stroke="#72358b" stroke-width="1.51"/><path d="M479,69L463,29L451,63Z" fill="#7c3e93" stroke="#7c3e93" stroke-width="1.51"/><path d="M508,180L472,125L462,155Z" fill="#672e7f" stroke="#672e7f" stroke-width="1.51"/><path d="M19,253L-2,270L25,269Z" fill="#672a8d" stroke="#672a8d" stroke-width="1.51"/><path d="M-24,184L10,186L3,144Z" fill="#8839b3" stroke="#8839b3" stroke-width="1.51"/><path d="M369,340L404,307L369,298Z" fill="#41185a" stroke="#41185a" stroke-width="1.51"/><path d="M-1,4L1,13L37,11Z" fill="#8f41bb" stroke="#8f41bb" stroke-width="1.51"/><path d="M341,343L369,340L333,306Z" fill="#44195d" stroke="#44195d" stroke-width="1.51"/><path d="M402,341L369,340L430,357Z" fill="#311543" stroke="#311543" stroke-width="1.51"/><path d="M-60,174L-24,184L3,144Z" fill="#8034af" stroke="#8034af" stroke-width="1.51"/><path d="M479,69L451,63L459,89Z" fill="#88459b" stroke="#88459b" stroke-width="1.51"/><path d="M442,27L456,-13L411,-3Z" fill="#692d8b" stroke="#692d8b" stroke-width="1.51"/><path d="M411,-3L424,-59L383,-29Z" fill="#5e228a" stroke="#5e228a" stroke-width="1.51"/><path d="M503,76L481,87L523,111Z" fill="#7b418a" stroke="#7b418a" stroke-width="1.51"/><path d="M472,125L481,87L459,89Z" fill="#804094" stroke="#804094" stroke-width="1.51"/><path d="M30,-15L-1,4L37,11Z" fill="#8d40ba" stroke="#8d40ba" stroke-width="1.51"/><path d="M1,13L-38,38L-11,74Z" fill="#9647c0" stroke="#9647c0" stroke-width="1.51"/><path d="M-24,184L-26,190L10,186Z" fill="#7d31ac" stroke="#7d31ac" stroke-width="1.51"/><path d="M-2,270L35,306L25,269Z" fill="#622a84" stroke="#622a84" stroke-width="1.51"/><path d="M-60,174L-26,190L-24,184Z" fill="#762ca7" stroke="#762ca7" stroke-width="1.51"/><path d="M481,87L479,69L459,89Z" fill="#874799" stroke="#874799" stroke-width="1.51"/><path d="M-2,270L19,253L-2,225Z" fill="#692894" stroke="#692894" stroke-width="1.51"/><path d="M25,269L35,306L51,278Z" fill="#672e87" stroke="#672e87" stroke-width="1.51"/><path d="M97,332L49,353L110,341Z" fill="#623471" stroke="#623471" stroke-width="1.51"/><path d="M441,296L441,287L404,307Z" fill="#3c1753" stroke="#3c1753" stroke-width="1.51"/><path d="M404,307L441,287L393,270Z" fill="#43185d" stroke="#43185d" stroke-width="1.51"/><path d="M451,215L491,208L462,155Z" fill="#592277" stroke="#592277" stroke-width="1.51"/><path d="M-31,246L-2,270L-2,225Z" fill="#642490" stroke="#642490" stroke-width="1.51"/><path d="M467,-23L456,-13L495,-21Z" fill="#542475" stroke="#542475" stroke-width="1.51"/><path d="M463,29L456,-13L442,27Z" fill="#6a3089" stroke="#6a3089" stroke-width="1.51"/><path d="M383,-29L424,-59L327,-40Z" fill="#5e1e90" stroke="#5e1e90" stroke-width="1.51"/><path d="M30,-15L13,-39L-1,4Z" fill="#8138b1" stroke="#8138b1" stroke-width="1.51"/><path d="M63,-34L13,-39L30,-15Z" fill="#8238b2" stroke="#8238b2" stroke-width="1.51"/><path d="M141,-45L13,-39L90,-37Z" fill="#8d40ba" stroke="#8d40ba" stroke-width="1.51"/><path d="M-54,-42L13,-39L141,-45Z" fill="#7a33ac" stroke="#7a33ac" stroke-width="1.51"/><path d="M430,357L441,296L404,307Z" fill="#351648" stroke="#351648" stroke-width="1.51"/><path d="M441,287L466,259L410,253Z" fill="#44195f" stroke="#44195f" stroke-width="1.51"/><path d="M474,301L466,259L441,287Z" fill="#39174f" stroke="#39174f" stroke-width="1.51"/><path d="M456,-13L424,-59L411,-3Z" fill="#5b2383" stroke="#5b2383" stroke-width="1.51"/><path d="M316,-49L424,-59L244,-57Z" fill="#65209b" stroke="#65209b" stroke-width="1.51"/><path d="M430,357L369,340L341,343Z" fill="#361649" stroke="#361649" stroke-width="1.51"/><path d="M369,340L402,341L404,307Z" fill="#3a164e" stroke="#3a164e" stroke-width="1.51"/><path d="M479,251L491,208L451,215Z" fill="#4b196a" stroke="#4b196a" stroke-width="1.51"/><path d="M-11,74L-57,118L4,97Z" fill="#a34ec8" stroke="#a34ec8" stroke-width="1.51"/><path d="M-1,4L-38,38L1,13Z" fill="#8a3eb8" stroke="#8a3eb8" stroke-width="1.51"/><path d="M-59,-18L-38,38L-1,4Z" fill="#7d35af" stroke="#7d35af" stroke-width="1.51"/><path d="M466,259L479,251L451,215Z" fill="#471863" stroke="#471863" stroke-width="1.51"/><path d="M501,248L479,251L522,268Z" fill="#3a174f" stroke="#3a174f" stroke-width="1.51"/><path d="M523,111L481,87L472,125Z" fill="#773d89" stroke="#773d89" stroke-width="1.51"/><path d="M481,87L503,76L479,69Z" fill="#824593" stroke="#824593" stroke-width="1.51"/><path d="M479,69L523,38L463,29Z" fill="#713987" stroke="#713987" stroke-width="1.51"/><path d="M36,359L49,353L35,306Z" fill="#542a69" stroke="#542a69" stroke-width="1.51"/><path d="M-50,218L-31,246L-2,225Z" fill="#652197" stroke="#652197" stroke-width="1.51"/><path d="M-50,218L-2,225L-26,190Z" fill="#6d25a0" stroke="#6d25a0" stroke-width="1.51"/><path d="M-62,93L-57,118L-11,74Z" fill="#9b49c3" stroke="#9b49c3" stroke-width="1.51"/><path d="M495,-21L456,-13L463,29Z" fill="#5d2a7b" stroke="#5d2a7b" stroke-width="1.51"/><path d="M456,-13L461,-33L424,-59Z" fill="#521f78" stroke="#521f78" stroke-width="1.51"/><path d="M-38,38L-49,53L-11,74Z" fill="#9847c1" stroke="#9847c1" stroke-width="1.51"/><path d="M-59,-18L-49,53L-38,38Z" fill="#8138b1" stroke="#8138b1" stroke-width="1.51"/><path d="M36,359L35,306L-10,335Z" fill="#4f2667" stroke="#4f2667" stroke-width="1.51"/><path d="M35,306L49,353L59,293Z" fill="#5e2e76" stroke="#5e2e76" stroke-width="1.51"/><path d="M110,341L49,353L150,356Z" fill="#643771" stroke="#643771" stroke-width="1.51"/><path d="M467,-23L461,-33L456,-13Z" fill="#552378" stroke="#552378" stroke-width="1.51"/><path d="M491,208L508,180L462,155Z" fill="#5a2574" stroke="#5a2574" stroke-width="1.51"/><path d="M528,217L508,180L491,208Z" fill="#4c1e65" stroke="#4c1e65" stroke-width="1.51"/><path d="M-57,118L-60,174L3,144Z" fill="#8639b3" stroke="#8639b3" stroke-width="1.51"/><path d="M-60,174L-50,218L-26,190Z" fill="#6d26a1" stroke="#6d26a1" stroke-width="1.51"/><path d="M-57,118L-62,93L-60,174Z" fill="#8639b3" stroke="#8639b3" stroke-width="1.51"/><path d="M-49,53L-62,93L-11,74Z" fill="#9f4cc6" stroke="#9f4cc6" stroke-width="1.51"/><path d="M13,-39L-19,-36L-1,4Z" fill="#7732aa" stroke="#7732aa" stroke-width="1.51"/><path d="M461,-33L454,-59L424,-59Z" fill="#4a1973" stroke="#4a1973" stroke-width="1.51"/><path d="M503,-28L454,-59L461,-33Z" fill="#491c6d" stroke="#491c6d" stroke-width="1.51"/><path d="M495,-21L461,-33L467,-23Z" fill="#502172" stroke="#502172" stroke-width="1.51"/><path d="M524,118L523,111L472,125Z" fill="#6e3980" stroke="#6e3980" stroke-width="1.51"/><path d="M523,38L495,-21L463,29Z" fill="#612e79" stroke="#612e79" stroke-width="1.51"/><path d="M508,180L524,118L472,125Z" fill="#66317b" stroke="#66317b" stroke-width="1.51"/><path d="M49,353L36,359L150,356Z" fill="#5a3268" stroke="#5a3268" stroke-width="1.51"/><path d="M150,356L36,359L217,357Z" fill="#6c3e75" stroke="#6c3e75" stroke-width="1.51"/><path d="M-10,335L35,306L-2,270Z" fill="#562675" stroke="#562675" stroke-width="1.51"/><path d="M-43,263L-2,270L-31,246Z" fill="#5a2086" stroke="#5a2086" stroke-width="1.51"/><path d="M508,180L554,138L524,118Z" fill="#5d2e6f" stroke="#5d2e6f" stroke-width="1.51"/><path d="M479,251L501,248L491,208Z" fill="#43185d" stroke="#43185d" stroke-width="1.51"/><path d="M474,301L479,251L466,259Z" fill="#3b1751" stroke="#3b1751" stroke-width="1.51"/><path d="M474,301L441,287L441,296Z" fill="#37164b" stroke="#37164b" stroke-width="1.51"/><path d="M-50,218L-43,263L-31,246Z" fill="#5b1d8c" stroke="#5b1d8c" stroke-width="1.51"/><path d="M-60,174L-43,263L-50,218Z" fill="#601c97" stroke="#601c97" stroke-width="1.51"/><path d="M486,340L474,301L441,296Z" fill="#2e143d" stroke="#2e143d" stroke-width="1.51"/><path d="M402,341L430,357L404,307Z" fill="#331545" stroke="#331545" stroke-width="1.51"/><path d="M217,357L430,357L260,349Z" fill="#472159" stroke="#472159" stroke-width="1.51"/><path d="M36,359L430,357L217,357Z" fill="#592f66" stroke="#592f66" stroke-width="1.51"/><path d="M523,38L479,69L503,76Z" fill="#763e87" stroke="#763e87" stroke-width="1.51"/><path d="M544,49L503,76L559,93Z" fill="#72407f" stroke="#72407f" stroke-width="1.51"/><path d="M544,49L523,38L503,76Z" fill="#6c3a7c" stroke="#6c3a7c" stroke-width="1.51"/><path d="M-30,322L-10,335L-2,270Z" fill="#4c206c" stroke="#4c206c" stroke-width="1.51"/><path d="M501,248L528,217L491,208Z" fill="#43185e" stroke="#43185e" stroke-width="1.51"/><path d="M559,93L503,76L523,111Z" fill="#733e7f" stroke="#733e7f" stroke-width="1.51"/><path d="M540,207L528,217L555,244Z" fill="#3c1753" stroke="#3c1753" stroke-width="1.51"/><path d="M523,38L503,-28L495,-21Z" fill="#53276d" stroke="#53276d" stroke-width="1.51"/><path d="M495,-21L503,-28L461,-33Z" fill="#4c206d" stroke="#4c206d" stroke-width="1.51"/><path d="M-43,263L-30,322L-2,270Z" fill="#521f77" stroke="#521f77" stroke-width="1.51"/><path d="M-19,-36L-59,-18L-1,4Z" fill="#722ea7" stroke="#722ea7" stroke-width="1.51"/><path d="M-49,53L-59,-18L-62,93Z" fill="#883db6" stroke="#883db6" stroke-width="1.51"/><path d="M528,217L540,207L508,180Z" fill="#481d5f" stroke="#481d5f" stroke-width="1.51"/><path d="M522,268L528,217L501,248Z" fill="#3a164f" stroke="#3a164f" stroke-width="1.51"/><path d="M520,304L522,268L474,301Z" fill="#2c143b" stroke="#2c143b" stroke-width="1.51"/><path d="M474,301L522,268L479,251Z" fill="#361649" stroke="#361649" stroke-width="1.51"/><path d="M523,38L564,8L503,-28Z" fill="#532969" stroke="#532969" stroke-width="1.51"/><path d="M559,93L523,111L524,118Z" fill="#6b3a78" stroke="#6b3a78" stroke-width="1.51"/><path d="M-19,-36L-54,-42L-59,-18Z" fill="#62249c" stroke="#62249c" stroke-width="1.51"/><path d="M13,-39L-54,-42L-19,-36Z" fill="#67289f" stroke="#67289f" stroke-width="1.51"/><path d="M244,-57L-54,-42L141,-45Z" fill="#9344be" stroke="#9344be" stroke-width="1.51"/><path d="M-43,263L-38,324L-30,322Z" fill="#471b6a" stroke="#471b6a" stroke-width="1.51"/><path d="M-30,322L-37,346L-10,335Z" fill="#3f1c5b" stroke="#3f1c5b" stroke-width="1.51"/><path d="M-10,335L-37,346L36,359Z" fill="#42205a" stroke="#42205a" stroke-width="1.51"/><path d="M-60,174L-38,324L-43,263Z" fill="#551b84" stroke="#551b84" stroke-width="1.51"/><path d="M560,162L554,138L508,180Z" fill="#542966" stroke="#542966" stroke-width="1.51"/><path d="M430,357L486,340L441,296Z" fill="#2b1339" stroke="#2b1339" stroke-width="1.51"/><path d="M554,138L559,93L524,118Z" fill="#653772" stroke="#653772" stroke-width="1.51"/><path d="M554,138L560,162L559,93Z" fill="#5c3168" stroke="#5c3168" stroke-width="1.51"/><path d="M540,207L560,162L508,180Z" fill="#4c2261" stroke="#4c2261" stroke-width="1.51"/><path d="M555,244L560,162L540,207Z" fill="#401b55" stroke="#401b55" stroke-width="1.51"/><path d="M544,49L549,33L523,38Z" fill="#613471" stroke="#613471" stroke-width="1.51"/><path d="M559,93L549,33L544,49Z" fill="#683a73" stroke="#683a73" stroke-width="1.51"/><path d="M-38,324L-37,346L-30,322Z" fill="#3d1a5c" stroke="#3d1a5c" stroke-width="1.51"/><path d="M-60,174L-37,346L-38,324Z" fill="#4c1b74" stroke="#4c1b74" stroke-width="1.51"/><path d="M522,268L549,255L528,217Z" fill="#351648" stroke="#351648" stroke-width="1.51"/><path d="M486,340L520,304L474,301Z" fill="#271233" stroke="#271233" stroke-width="1.51"/><path d="M533,307L549,255L522,268Z" fill="#2b1338" stroke="#2b1338" stroke-width="1.51"/><path d="M549,255L555,244L528,217Z" fill="#351649" stroke="#351649" stroke-width="1.51"/><path d="M549,255L536,330L555,244Z" fill="#281335" stroke="#281335" stroke-width="1.51"/><path d="M520,304L533,307L522,268Z" fill="#281233" stroke="#281233" stroke-width="1.51"/><path d="M536,330L533,307L520,304Z" fill="#201028" stroke="#201028" stroke-width="1.51"/><path d="M549,33L564,8L523,38Z" fill="#592f6a" stroke="#592f6a" stroke-width="1.51"/><path d="M503,-28L556,-45L454,-59Z" fill="#401960" stroke="#401960" stroke-width="1.51"/><path d="M559,93L564,8L549,33Z" fill="#5f356c" stroke="#5f356c" stroke-width="1.51"/><path d="M560,162L564,8L559,93Z" fill="#6d3e75" stroke="#6d3e75" stroke-width="1.51"/><path d="M486,340L509,350L520,304Z" fill="#1f1027" stroke="#1f1027" stroke-width="1.51"/><path d="M430,357L509,350L486,340Z" fill="#201028" stroke="#201028" stroke-width="1.51"/><path d="M533,307L536,330L549,255Z" fill="#23112d" stroke="#23112d" stroke-width="1.51"/><path d="M509,350L536,330L520,304Z" fill="#1d0f23" stroke="#1d0f23" stroke-width="1.51"/><path d="M564,8L556,-45L503,-28Z" fill="#421f5b" stroke="#421f5b" stroke-width="1.51"/></svg>