<svg xmlns="http://www.w3.org/2000/svg" width="400" height="900"><path d="M198,500L197,538L213,542Z" fill="#9b44bf" stroke="#9b44bf" stroke-width="1.51"/><path d="M213,542L265,544L198,500Z" fill="#943eba" stroke="#943eba" stroke-width="1.51"/><path d="M247,449L201,455L198,500Z" fill="#a148c4" stroke="#a148c4" stroke-width="1.51"/><path d="M213,542L217,593L265,544Z" fill="#8d38b4" stroke="#8d38b4" stroke-width="1.51"/><path d="M197,538L217,593L213,542Z" fill="#943eba" stroke="#943eba" stroke-width="1.51"/><path d="M265,544L247,449L198,500Z" fill="#963fbb" stroke="#963fbb" stroke-width="1.51"/><path d="M197,538L177,621L217,593Z" fill="#933db9" stroke="#933db9" stroke-width="1.51"/><path d="M92,611L177,621L197,538Z" fill="#9f46c2" stroke="#9f46c2" stroke-width="1.51"/><path d="M100,478L197,538L198,500Z" fill="#aa4ecb" stroke="#aa4ecb" stroke-width="1.51"/><path d="M201,455L100,478L198,500Z" fill="#af52ce" stroke="#af52ce" stroke-width="1.51"/><path d="M265,544L323,464L247,449Z" fill="#8b37b3" stroke="#8b37b3" stroke-width="1.51"/><path d="M201,455L138,416L100,478Z" fill="#b95ad6" stroke="#b95ad6" stroke-width="1.51"/><path d="M146,381L138,416L201,455Z" fill="#ba5bd7" stroke="#ba5bd7" stroke-width="1.51"/><path d="M146,381L201,455L216,324Z" fill="#b859d5" stroke="#b859d5" stroke-width="1.51"/><path d="M100,478L82,516L197,538Z" fill="#b557d3" stroke="#b557d3" stroke-width="1.51"/><path d="M217,593L274,633L265,544Z" fill="#822fac" stroke="#822fac" stroke-width="1.51"/><path d="M265,544L349,480L323,464Z" fill="#802fa9" stroke="#802fa9" stroke-width="1.51"/><path d="M177,621L274,633L217,593Z" fill="#8633b0" stroke="#8633b0" stroke-width="1.51"/><path d="M364,547L349,480L265,544Z" fill="#772aa0" stroke="#772aa0" stroke-width="1.51"/><path d="M138,416L100,422L100,478Z" fill="#c664e0" stroke="#c664e0" stroke-width="1.51"/><path d="M100,478L28,501L82,516Z" fill="#b85ad6" stroke="#b85ad6" stroke-width="1.51"/><path d="M82,516L92,611L197,538Z" fill="#af52ce" stroke="#af52ce" stroke-width="1.51"/><path d="M177,621L203,697L274,633Z" fill="#8230ab" stroke="#8230ab" stroke-width="1.51"/><path d="M120,660L162,661L177,621Z" fill="#9640ba" stroke="#9640ba" stroke-width="1.51"/><path d="M138,416L146,381L100,422Z" fill="#c664e0" stroke="#c664e0" stroke-width="1.51"/><path d="M216,324L201,455L247,449Z" fill="#a94eca" stroke="#a94eca" stroke-width="1.51"/><path d="M274,633L364,547L265,544Z" fill="#7625a3" stroke="#7625a3" stroke-width="1.51"/><path d="M323,464L307,388L247,449Z" fill="#903ab7" stroke="#903ab7" stroke-width="1.51"/><path d="M373,424L307,388L323,464Z" fill="#8537a9" stroke="#8537a9" stroke-width="1.51"/><path d="M92,611L120,660L177,621Z" fill="#a046c3" stroke="#a046c3" stroke-width="1.51"/><path d="M82,516L38,555L92,611Z" fill="#ad52ce" stroke="#ad52ce" stroke-width="1.51"/><path d="M92,611L53,684L120,660Z" fill="#a44bc5" stroke="#a44bc5" stroke-width="1.51"/><path d="M28,501L38,555L82,516Z" fill="#ab51cd" stroke="#ab51cd" stroke-width="1.51"/><path d="M188,748L203,697L162,661Z" fill="#8537a7" stroke="#8537a7" stroke-width="1.51"/><path d="M162,661L203,697L177,621Z" fill="#8c39b2" stroke="#8c39b2" stroke-width="1.51"/><path d="M100,422L28,501L100,478Z" fill="#bf5fdb" stroke="#bf5fdb" stroke-width="1.51"/><path d="M38,555L49,607L92,611Z" fill="#a44bc7" stroke="#a44bc7" stroke-width="1.51"/><path d="M349,480L373,424L323,464Z" fill="#7d32a0" stroke="#7d32a0" stroke-width="1.51"/><path d="M405,476L373,424L349,480Z" fill="#753194" stroke="#753194" stroke-width="1.51"/><path d="M373,424L334,373L307,388Z" fill="#8a3bab" stroke="#8a3bab" stroke-width="1.51"/><path d="M307,388L216,324L247,449Z" fill="#a248c5" stroke="#a248c5" stroke-width="1.51"/><path d="M303,337L216,324L307,388Z" fill="#a349c5" stroke="#a349c5" stroke-width="1.51"/><path d="M364,547L405,476L349,480Z" fill="#6f2c90" stroke="#6f2c90" stroke-width="1.51"/><path d="M274,633L378,632L364,547Z" fill="#671f91" stroke="#671f91" stroke-width="1.51"/><path d="M364,547L454,499L405,476Z" fill="#652a82" stroke="#652a82" stroke-width="1.51"/><path d="M309,697L378,632L274,633Z" fill="#641b90" stroke="#641b90" stroke-width="1.51"/><path d="M203,697L309,697L274,633Z" fill="#72259b" stroke="#72259b" stroke-width="1.51"/><path d="M334,373L303,337L307,388Z" fill="#9540b8" stroke="#9540b8" stroke-width="1.51"/><path d="M100,422L46,392L28,501Z" fill="#bd5eda" stroke="#bd5eda" stroke-width="1.51"/><path d="M93,332L46,392L100,422Z" fill="#cf6ce8" stroke="#cf6ce8" stroke-width="1.51"/><path d="M93,332L100,422L146,381Z" fill="#d06ce8" stroke="#d06ce8" stroke-width="1.51"/><path d="M106,319L93,332L146,381Z" fill="#d570ec" stroke="#d570ec" stroke-width="1.51"/><path d="M303,337L254,302L216,324Z" fill="#ad51cd" stroke="#ad51cd" stroke-width="1.51"/><path d="M216,324L196,295L146,381Z" fill="#c160dd" stroke="#c160dd" stroke-width="1.51"/><path d="M309,697L374,678L378,632Z" fill="#5a1b80" stroke="#5a1b80" stroke-width="1.51"/><path d="M203,697L304,721L309,697Z" fill="#6b2393" stroke="#6b2393" stroke-width="1.51"/><path d="M203,697L225,743L304,721Z" fill="#712996" stroke="#712996" stroke-width="1.51"/><path d="M188,748L225,743L203,697Z" fill="#7a329c" stroke="#7a329c" stroke-width="1.51"/><path d="M188,748L162,661L99,728Z" fill="#8d3fad" stroke="#8d3fad" stroke-width="1.51"/><path d="M254,302L196,295L216,324Z" fill="#bb5bd8" stroke="#bb5bd8" stroke-width="1.51"/><path d="M196,295L106,319L146,381Z" fill="#cc69e5" stroke="#cc69e5" stroke-width="1.51"/><path d="M49,607L53,684L92,611Z" fill="#9e47c2" stroke="#9e47c2" stroke-width="1.51"/><path d="M-43,641L53,684L49,607Z" fill="#8c3ab5" stroke="#8c3ab5" stroke-width="1.51"/><path d="M-10,586L49,607L38,555Z" fill="#9943bf" stroke="#9943bf" stroke-width="1.51"/><path d="M378,632L433,574L364,547Z" fill="#5d207f" stroke="#5d207f" stroke-width="1.51"/><path d="M373,729L374,678L309,697Z" fill="#561a7a" stroke="#561a7a" stroke-width="1.51"/><path d="M429,611L433,574L378,632Z" fill="#551e74" stroke="#551e74" stroke-width="1.51"/><path d="M99,728L162,661L120,660Z" fill="#9945b9" stroke="#9945b9" stroke-width="1.51"/><path d="M28,501L-19,538L38,555Z" fill="#9d47c3" stroke="#9d47c3" stroke-width="1.51"/><path d="M-32,451L-19,538L28,501Z" fill="#9a46c1" stroke="#9a46c1" stroke-width="1.51"/><path d="M-19,538L-10,586L38,555Z" fill="#9340bc" stroke="#9340bc" stroke-width="1.51"/><path d="M362,299L320,281L303,337Z" fill="#9b47bb" stroke="#9b47bb" stroke-width="1.51"/><path d="M303,337L320,281L254,302Z" fill="#a54bc7" stroke="#a54bc7" stroke-width="1.51"/><path d="M373,424L391,374L334,373Z" fill="#833aa1" stroke="#833aa1" stroke-width="1.51"/><path d="M434,420L391,374L373,424Z" fill="#773692" stroke="#773692" stroke-width="1.51"/><path d="M434,420L373,424L405,476Z" fill="#70328b" stroke="#70328b" stroke-width="1.51"/><path d="M46,392L-4,422L28,501Z" fill="#b056d1" stroke="#b056d1" stroke-width="1.51"/><path d="M31,366L-4,422L46,392Z" fill="#b85bd7" stroke="#b85bd7" stroke-width="1.51"/><path d="M31,366L46,392L93,332Z" fill="#c968e4" stroke="#c968e4" stroke-width="1.51"/><path d="M5,326L31,366L93,332Z" fill="#c867e3" stroke="#c867e3" stroke-width="1.51"/><path d="M53,684L99,728L120,660Z" fill="#a04bbd" stroke="#a04bbd" stroke-width="1.51"/><path d="M426,699L429,611L378,632Z" fill="#4f1a6f" stroke="#4f1a6f" stroke-width="1.51"/><path d="M433,574L454,499L364,547Z" fill="#5e257a" stroke="#5e257a" stroke-width="1.51"/><path d="M464,517L454,499L433,574Z" fill="#57256f" stroke="#57256f" stroke-width="1.51"/><path d="M461,446L434,420L405,476Z" fill="#68307f" stroke="#68307f" stroke-width="1.51"/><path d="M-53,434L-32,451L-4,422Z" fill="#9c48c3" stroke="#9c48c3" stroke-width="1.51"/><path d="M-4,422L-32,451L28,501Z" fill="#a34dc7" stroke="#a34dc7" stroke-width="1.51"/><path d="M454,499L461,446L405,476Z" fill="#622c7a" stroke="#622c7a" stroke-width="1.51"/><path d="M458,611L464,517L433,574Z" fill="#51216a" stroke="#51216a" stroke-width="1.51"/><path d="M464,517L461,446L454,499Z" fill="#5b2a70" stroke="#5b2a70" stroke-width="1.51"/><path d="M362,299L334,373L398,318Z" fill="#8d41a9" stroke="#8d41a9" stroke-width="1.51"/><path d="M254,302L195,250L196,295Z" fill="#c160dc" stroke="#c160dc" stroke-width="1.51"/><path d="M362,299L303,337L334,373Z" fill="#9543b5" stroke="#9543b5" stroke-width="1.51"/><path d="M334,373L391,374L398,318Z" fill="#863ea2" stroke="#863ea2" stroke-width="1.51"/><path d="M429,611L458,611L433,574Z" fill="#4e1d6b" stroke="#4e1d6b" stroke-width="1.51"/><path d="M426,699L458,611L429,611Z" fill="#491966" stroke="#491966" stroke-width="1.51"/><path d="M374,678L426,699L378,632Z" fill="#501971" stroke="#501971" stroke-width="1.51"/><path d="M304,721L373,729L309,697Z" fill="#591b80" stroke="#591b80" stroke-width="1.51"/><path d="M351,819L373,729L304,721Z" fill="#501a72" stroke="#501a72" stroke-width="1.51"/><path d="M290,823L304,721L225,743Z" fill="#622286" stroke="#622286" stroke-width="1.51"/><path d="M398,318L391,374L481,336Z" fill="#7b3d90" stroke="#7b3d90" stroke-width="1.51"/><path d="M196,295L103,246L106,319Z" fill="#d973ef" stroke="#d973ef" stroke-width="1.51"/><path d="M57,277L5,326L93,332Z" fill="#d06de9" stroke="#d06de9" stroke-width="1.51"/><path d="M255,238L195,250L254,302Z" fill="#be5eda" stroke="#be5eda" stroke-width="1.51"/><path d="M481,336L391,374L434,420Z" fill="#733887" stroke="#733887" stroke-width="1.51"/><path d="M-76,465L-66,575L-19,538Z" fill="#8536b1" stroke="#8536b1" stroke-width="1.51"/><path d="M-64,615L-43,641L-10,586Z" fill="#7b2ea9" stroke="#7b2ea9" stroke-width="1.51"/><path d="M-88,383L-53,434L-4,422Z" fill="#9946c1" stroke="#9946c1" stroke-width="1.51"/><path d="M188,748L217,796L225,743Z" fill="#743094" stroke="#743094" stroke-width="1.51"/><path d="M162,799L217,796L188,748Z" fill="#773495" stroke="#773495" stroke-width="1.51"/><path d="M373,729L395,729L374,678Z" fill="#4d196d" stroke="#4d196d" stroke-width="1.51"/><path d="M415,797L395,729L373,729Z" fill="#441860" stroke="#441860" stroke-width="1.51"/><path d="M395,729L426,699L374,678Z" fill="#4b1969" stroke="#4b1969" stroke-width="1.51"/><path d="M53,684L29,747L99,728Z" fill="#9042ae" stroke="#9042ae" stroke-width="1.51"/><path d="M-10,586L-43,641L49,607Z" fill="#8938b4" stroke="#8938b4" stroke-width="1.51"/><path d="M-66,575L-10,586L-19,538Z" fill="#8637b1" stroke="#8637b1" stroke-width="1.51"/><path d="M-76,465L-19,538L-32,451Z" fill="#8f3fb9" stroke="#8f3fb9" stroke-width="1.51"/><path d="M31,366L5,326L-4,422Z" fill="#b65ad6" stroke="#b65ad6" stroke-width="1.51"/><path d="M57,277L93,332L106,319Z" fill="#dd77f3" stroke="#dd77f3" stroke-width="1.51"/><path d="M99,728L162,799L188,748Z" fill="#863ea2" stroke="#863ea2" stroke-width="1.51"/><path d="M74,795L162,799L99,728Z" fill="#8f46a8" stroke="#8f46a8" stroke-width="1.51"/><path d="M281,242L320,281L358,226Z" fill="#a34cc2" stroke="#a34cc2" stroke-width="1.51"/><path d="M281,242L254,302L320,281Z" fill="#ad50cd" stroke="#ad50cd" stroke-width="1.51"/><path d="M281,242L255,238L254,302Z" fill="#b658d4" stroke="#b658d4" stroke-width="1.51"/><path d="M358,226L320,281L362,299Z" fill="#9c4ab8" stroke="#9c4ab8" stroke-width="1.51"/><path d="M103,246L196,295L195,250Z" fill="#d46eeb" stroke="#d46eeb" stroke-width="1.51"/><path d="M103,246L57,277L106,319Z" fill="#e47cf8" stroke="#e47cf8" stroke-width="1.51"/><path d="M-66,575L-64,615L-10,586Z" fill="#7c2faa" stroke="#7c2faa" stroke-width="1.51"/><path d="M-43,641L29,747L53,684Z" fill="#8338a9" stroke="#8338a9" stroke-width="1.51"/><path d="M39,766L29,747L-16,790Z" fill="#793798" stroke="#793798" stroke-width="1.51"/><path d="M-53,434L-76,465L-32,451Z" fill="#9140bb" stroke="#9140bb" stroke-width="1.51"/><path d="M-66,575L-94,682L-64,615Z" fill="#6c249f" stroke="#6c249f" stroke-width="1.51"/><path d="M-88,383L-76,465L-53,434Z" fill="#8e3fb9" stroke="#8e3fb9" stroke-width="1.51"/><path d="M150,170L103,246L195,250Z" fill="#d06de9" stroke="#d06de9" stroke-width="1.51"/><path d="M-26,762L29,747L-43,641Z" fill="#75309c" stroke="#75309c" stroke-width="1.51"/><path d="M29,747L39,766L99,728Z" fill="#8a40a7" stroke="#8a40a7" stroke-width="1.51"/><path d="M39,766L74,795L99,728Z" fill="#8d44a7" stroke="#8d44a7" stroke-width="1.51"/><path d="M217,796L290,823L225,743Z" fill="#672887" stroke="#672887" stroke-width="1.51"/><path d="M219,847L290,823L217,796Z" fill="#632780" stroke="#632780" stroke-width="1.51"/><path d="M219,847L217,796L162,799Z" fill="#70318b" stroke="#70318b" stroke-width="1.51"/><path d="M490,715L486,682L426,699Z" fill="#3a1650" stroke="#3a1650" stroke-width="1.51"/><path d="M426,699L486,682L458,611Z" fill="#42185b" stroke="#42185b" stroke-width="1.51"/><path d="M458,611L486,682L464,517Z" fill="#471c60" stroke="#471c60" stroke-width="1.51"/><path d="M464,517L481,336L461,446Z" fill="#612f73" stroke="#612f73" stroke-width="1.51"/><path d="M490,715L426,699L474,784Z" fill="#37164b" stroke="#37164b" stroke-width="1.51"/><path d="M5,326L-88,383L-4,422Z" fill="#a650cb" stroke="#a650cb" stroke-width="1.51"/><path d="M57,277L-7,279L5,326Z" fill="#c767e2" stroke="#c767e2" stroke-width="1.51"/><path d="M35,233L-7,279L57,277Z" fill="#d06ee9" stroke="#d06ee9" stroke-width="1.51"/><path d="M427,238L358,226L362,299Z" fill="#9248a9" stroke="#9248a9" stroke-width="1.51"/><path d="M461,446L481,336L434,420Z" fill="#68347b" stroke="#68347b" stroke-width="1.51"/><path d="M486,682L481,336L464,517Z" fill="#532667" stroke="#532667" stroke-width="1.51"/><path d="M195,862L219,847L162,799Z" fill="#6f3288" stroke="#6f3288" stroke-width="1.51"/><path d="M-106,304L-88,383L5,326Z" fill="#a04cc7" stroke="#a04cc7" stroke-width="1.51"/><path d="M-76,465L-94,682L-66,575Z" fill="#7329a4" stroke="#7329a4" stroke-width="1.51"/><path d="M281,242L248,190L255,238Z" fill="#af53cf" stroke="#af53cf" stroke-width="1.51"/><path d="M255,238L248,190L195,250Z" fill="#b85ad6" stroke="#b85ad6" stroke-width="1.51"/><path d="M427,238L362,299L398,318Z" fill="#8c46a2" stroke="#8c46a2" stroke-width="1.51"/><path d="M290,823L351,819L304,721Z" fill="#531a76" stroke="#531a76" stroke-width="1.51"/><path d="M322,856L351,819L290,823Z" fill="#4c196a" stroke="#4c196a" stroke-width="1.51"/><path d="M272,172L248,190L281,242Z" fill="#a84eca" stroke="#a84eca" stroke-width="1.51"/><path d="M103,246L35,233L57,277Z" fill="#dc76f2" stroke="#dc76f2" stroke-width="1.51"/><path d="M36,168L35,233L103,246Z" fill="#d16feb" stroke="#d16feb" stroke-width="1.51"/><path d="M481,336L481,318L398,318Z" fill="#753d86" stroke="#753d86" stroke-width="1.51"/><path d="M499,190L481,318L481,336Z" fill="#73407e" stroke="#73407e" stroke-width="1.51"/><path d="M-62,754L-26,762L-43,641Z" fill="#6a2993" stroke="#6a2993" stroke-width="1.51"/><path d="M39,766L17,853L74,795Z" fill="#7c3c97" stroke="#7c3c97" stroke-width="1.51"/><path d="M168,893L195,862L162,799Z" fill="#713688" stroke="#713688" stroke-width="1.51"/><path d="M486,682L490,715L481,336Z" fill="#471e5c" stroke="#471e5c" stroke-width="1.51"/><path d="M474,784L426,699L395,729Z" fill="#3e1755" stroke="#3e1755" stroke-width="1.51"/><path d="M253,923L322,856L290,823Z" fill="#4f1d6c" stroke="#4f1d6c" stroke-width="1.51"/><path d="M92,864L162,799L74,795Z" fill="#89459e" stroke="#89459e" stroke-width="1.51"/><path d="M-88,383L-94,682L-76,465Z" fill="#7b30ab" stroke="#7b30ab" stroke-width="1.51"/><path d="M-64,615L-94,682L-43,641Z" fill="#6c249e" stroke="#6c249e" stroke-width="1.51"/><path d="M351,819L415,797L373,729Z" fill="#44185f" stroke="#44185f" stroke-width="1.51"/><path d="M-59,772L-16,790L-26,762Z" fill="#662a8a" stroke="#662a8a" stroke-width="1.51"/><path d="M-26,762L-16,790L29,747Z" fill="#713294" stroke="#713294" stroke-width="1.51"/><path d="M358,226L272,172L281,242Z" fill="#9f48c3" stroke="#9f48c3" stroke-width="1.51"/><path d="M248,190L150,170L195,250Z" fill="#be5fda" stroke="#be5fda" stroke-width="1.51"/><path d="M159,101L150,170L248,190Z" fill="#b75bd6" stroke="#b75bd6" stroke-width="1.51"/><path d="M351,819L411,858L415,797Z" fill="#3b1752" stroke="#3b1752" stroke-width="1.51"/><path d="M323,898L322,856L253,923Z" fill="#491a66" stroke="#491a66" stroke-width="1.51"/><path d="M481,318L427,238L398,318Z" fill="#804291" stroke="#804291" stroke-width="1.51"/><path d="M358,226L357,171L272,172Z" fill="#9343b5" stroke="#9343b5" stroke-width="1.51"/><path d="M150,170L125,173L103,246Z" fill="#d26fea" stroke="#d26fea" stroke-width="1.51"/><path d="M-94,682L-62,754L-43,641Z" fill="#652494" stroke="#652494" stroke-width="1.51"/><path d="M17,853L92,864L74,795Z" fill="#7e3f94" stroke="#7e3f94" stroke-width="1.51"/><path d="M-16,790L17,853L39,766Z" fill="#723590" stroke="#723590" stroke-width="1.51"/><path d="M-62,754L-59,772L-26,762Z" fill="#612789" stroke="#612789" stroke-width="1.51"/><path d="M-80,880L-59,772L-62,754Z" fill="#56217c" stroke="#56217c" stroke-width="1.51"/><path d="M456,837L474,784L415,797Z" fill="#311542" stroke="#311542" stroke-width="1.51"/><path d="M415,797L474,784L395,729Z" fill="#3a1650" stroke="#3a1650" stroke-width="1.51"/><path d="M-16,153L-36,236L35,233Z" fill="#b85dd8" stroke="#b85dd8" stroke-width="1.51"/><path d="M35,233L-36,236L-7,279Z" fill="#c264df" stroke="#c264df" stroke-width="1.51"/><path d="M-7,279L-106,304L5,326Z" fill="#b058d3" stroke="#b058d3" stroke-width="1.51"/><path d="M253,923L290,823L219,847Z" fill="#5a2474" stroke="#5a2474" stroke-width="1.51"/><path d="M92,864L168,893L162,799Z" fill="#7b3d90" stroke="#7b3d90" stroke-width="1.51"/><path d="M262,76L159,101L248,190Z" fill="#a54dc8" stroke="#a54dc8" stroke-width="1.51"/><path d="M427,238L357,171L358,226Z" fill="#8a42a4" stroke="#8a42a4" stroke-width="1.51"/><path d="M322,856L374,862L351,819Z" fill="#43185d" stroke="#43185d" stroke-width="1.51"/><path d="M323,898L374,862L322,856Z" fill="#42175b" stroke="#42175b" stroke-width="1.51"/><path d="M-36,236L-106,304L-7,279Z" fill="#b058d3" stroke="#b058d3" stroke-width="1.51"/><path d="M-88,383L-106,304L-94,682Z" fill="#8035af" stroke="#8035af" stroke-width="1.51"/><path d="M92,864L87,939L168,893Z" fill="#7b418b" stroke="#7b418b" stroke-width="1.51"/><path d="M2,858L17,853L-16,790Z" fill="#6a3186" stroke="#6a3186" stroke-width="1.51"/><path d="M125,173L36,168L103,246Z" fill="#d974f0" stroke="#d974f0" stroke-width="1.51"/><path d="M129,99L36,168L125,173Z" fill="#d16eea" stroke="#d16eea" stroke-width="1.51"/><path d="M129,99L125,173L150,170Z" fill="#c565e1" stroke="#c565e1" stroke-width="1.51"/><path d="M374,862L411,858L351,819Z" fill="#3c1753" stroke="#3c1753" stroke-width="1.51"/><path d="M442,893L411,858L374,862Z" fill="#321543" stroke="#321543" stroke-width="1.51"/><path d="M253,923L219,847L195,862Z" fill="#612a78" stroke="#612a78" stroke-width="1.51"/><path d="M17,853L38,900L92,864Z" fill="#743a8a" stroke="#743a8a" stroke-width="1.51"/><path d="M-80,880L2,858L-16,790Z" fill="#5d297c" stroke="#5d297c" stroke-width="1.51"/><path d="M357,171L294,130L272,172Z" fill="#933fba" stroke="#933fba" stroke-width="1.51"/><path d="M411,858L456,837L415,797Z" fill="#321544" stroke="#321544" stroke-width="1.51"/><path d="M168,893L253,923L195,862Z" fill="#632d79" stroke="#632d79" stroke-width="1.51"/><path d="M227,959L253,923L168,893Z" fill="#5b2a70" stroke="#5b2a70" stroke-width="1.51"/><path d="M427,238L451,137L357,171Z" fill="#7b3d93" stroke="#7b3d93" stroke-width="1.51"/><path d="M357,171L367,115L294,130Z" fill="#863baa" stroke="#863baa" stroke-width="1.51"/><path d="M481,318L472,204L427,238Z" fill="#7d448a" stroke="#7d448a" stroke-width="1.51"/><path d="M2,858L38,900L17,853Z" fill="#6a3482" stroke="#6a3482" stroke-width="1.51"/><path d="M262,76L248,190L272,172Z" fill="#9f48c3" stroke="#9f48c3" stroke-width="1.51"/><path d="M159,101L129,99L150,170Z" fill="#bc5fdb" stroke="#bc5fdb" stroke-width="1.51"/><path d="M22,124L-16,153L36,168Z" fill="#b35ad5" stroke="#b35ad5" stroke-width="1.51"/><path d="M36,168L-16,153L35,233Z" fill="#bc60db" stroke="#bc60db" stroke-width="1.51"/><path d="M-36,236L-100,203L-106,304Z" fill="#a34fca" stroke="#a34fca" stroke-width="1.51"/><path d="M294,130L262,76L272,172Z" fill="#9541bd" stroke="#9541bd" stroke-width="1.51"/><path d="M451,137L367,115L357,171Z" fill="#793895" stroke="#793895" stroke-width="1.51"/><path d="M38,900L87,939L92,864Z" fill="#784089" stroke="#784089" stroke-width="1.51"/><path d="M129,99L22,124L36,168Z" fill="#c163df" stroke="#c163df" stroke-width="1.51"/><path d="M472,204L451,137L427,238Z" fill="#733c86" stroke="#733c86" stroke-width="1.51"/><path d="M481,318L499,190L472,204Z" fill="#73407f" stroke="#73407f" stroke-width="1.51"/><path d="M490,715L499,190L481,336Z" fill="#5e306e" stroke="#5e306e" stroke-width="1.51"/><path d="M411,858L442,893L456,837Z" fill="#2c143b" stroke="#2c143b" stroke-width="1.51"/><path d="M456,837L507,933L474,784Z" fill="#24122f" stroke="#24122f" stroke-width="1.51"/><path d="M341,953L442,893L374,862Z" fill="#331545" stroke="#331545" stroke-width="1.51"/><path d="M341,953L374,862L323,898Z" fill="#3c1653" stroke="#3c1653" stroke-width="1.51"/><path d="M273,976L341,953L323,898Z" fill="#3f1757" stroke="#3f1757" stroke-width="1.51"/><path d="M191,1005L227,959L168,893Z" fill="#5d2e6f" stroke="#5d2e6f" stroke-width="1.51"/><path d="M-52,129L-100,203L-16,153Z" fill="#9b4ac4" stroke="#9b4ac4" stroke-width="1.51"/><path d="M-16,153L-100,203L-36,236Z" fill="#a550ca" stroke="#a550ca" stroke-width="1.51"/><path d="M159,101L141,57L129,99Z" fill="#b55bd6" stroke="#b55bd6" stroke-width="1.51"/><path d="M367,115L262,76L294,130Z" fill="#8838b2" stroke="#8838b2" stroke-width="1.51"/><path d="M370,36L281,28L262,76Z" fill="#7c2faa" stroke="#7c2faa" stroke-width="1.51"/><path d="M499,190L451,137L472,204Z" fill="#6a387a" stroke="#6a387a" stroke-width="1.51"/><path d="M273,976L323,898L253,923Z" fill="#481c60" stroke="#481c60" stroke-width="1.51"/><path d="M227,959L273,976L253,923Z" fill="#4e2263" stroke="#4e2263" stroke-width="1.51"/><path d="M191,1005L273,976L227,959Z" fill="#502661" stroke="#502661" stroke-width="1.51"/><path d="M-59,772L-80,880L-16,790Z" fill="#5a257d" stroke="#5a257d" stroke-width="1.51"/><path d="M-53,921L4,953L38,900Z" fill="#5b2d71" stroke="#5b2d71" stroke-width="1.51"/><path d="M38,900L4,953L87,939Z" fill="#6a377b" stroke="#6a377b" stroke-width="1.51"/><path d="M-94,682L-80,880L-62,754Z" fill="#561f7f" stroke="#561f7f" stroke-width="1.51"/><path d="M451,137L414,99L367,115Z" fill="#6f348b" stroke="#6f348b" stroke-width="1.51"/><path d="M208,49L141,57L159,101Z" fill="#aa52cd" stroke="#aa52cd" stroke-width="1.51"/><path d="M129,99L61,57L22,124Z" fill="#bc61dc" stroke="#bc61dc" stroke-width="1.51"/><path d="M208,49L159,101L262,76Z" fill="#9f4ac5" stroke="#9f4ac5" stroke-width="1.51"/><path d="M22,124L-52,129L-16,153Z" fill="#a550cb" stroke="#a550cb" stroke-width="1.51"/><path d="M-85,87L-52,129L-67,60Z" fill="#883db6" stroke="#883db6" stroke-width="1.51"/><path d="M281,28L208,49L262,76Z" fill="#8e3db8" stroke="#8e3db8" stroke-width="1.51"/><path d="M341,953L358,974L442,893Z" fill="#301440" stroke="#301440" stroke-width="1.51"/><path d="M273,976L358,974L341,953Z" fill="#39164e" stroke="#39164e" stroke-width="1.51"/><path d="M87,939L191,1005L168,893Z" fill="#6a387a" stroke="#6a387a" stroke-width="1.51"/><path d="M-53,921L38,900L2,858Z" fill="#5f2e78" stroke="#5f2e78" stroke-width="1.51"/><path d="M-80,880L-53,921L2,858Z" fill="#522570" stroke="#522570" stroke-width="1.51"/><path d="M-100,203L-109,158L-106,304Z" fill="#9546c0" stroke="#9546c0" stroke-width="1.51"/><path d="M-52,129L-109,158L-100,203Z" fill="#9042bc" stroke="#9042bc" stroke-width="1.51"/><path d="M-52,129L-85,87L-109,158Z" fill="#893eb7" stroke="#893eb7" stroke-width="1.51"/><path d="M141,57L61,57L129,99Z" fill="#bc61db" stroke="#bc61db" stroke-width="1.51"/><path d="M114,22L61,57L141,57Z" fill="#b95dd9" stroke="#b95dd9" stroke-width="1.51"/><path d="M273,976L275,1054L358,974Z" fill="#3a174f" stroke="#3a174f" stroke-width="1.51"/><path d="M123,1016L191,1005L87,939Z" fill="#693974" stroke="#693974" stroke-width="1.51"/><path d="M4,953L59,987L87,939Z" fill="#683877" stroke="#683877" stroke-width="1.51"/><path d="M-10,1000L59,987L4,953Z" fill="#5a306b" stroke="#5a306b" stroke-width="1.51"/><path d="M180,3L114,22L141,57Z" fill="#a952cd" stroke="#a952cd" stroke-width="1.51"/><path d="M370,36L262,76L367,115Z" fill="#7b33a3" stroke="#7b33a3" stroke-width="1.51"/><path d="M59,987L123,1016L87,939Z" fill="#72417c" stroke="#72417c" stroke-width="1.51"/><path d="M-2,36L-52,129L22,124Z" fill="#9e4cc6" stroke="#9e4cc6" stroke-width="1.51"/><path d="M180,3L141,57L208,49Z" fill="#a14cc6" stroke="#a14cc6" stroke-width="1.51"/><path d="M414,99L370,36L367,115Z" fill="#6f3190" stroke="#6f3190" stroke-width="1.51"/><path d="M415,23L370,36L414,99Z" fill="#652c86" stroke="#652c86" stroke-width="1.51"/><path d="M502,72L414,99L451,137Z" fill="#603077" stroke="#603077" stroke-width="1.51"/><path d="M446,975L507,933L442,893Z" fill="#1d1025" stroke="#1d1025" stroke-width="1.51"/><path d="M442,893L507,933L456,837Z" fill="#22112c" stroke="#22112c" stroke-width="1.51"/><path d="M474,784L507,933L490,715Z" fill="#271233" stroke="#271233" stroke-width="1.51"/><path d="M490,715L507,933L499,190Z" fill="#3f1a54" stroke="#3f1a54" stroke-width="1.51"/><path d="M358,974L446,975L442,893Z" fill="#271232" stroke="#271232" stroke-width="1.51"/><path d="M420,1049L446,975L358,974Z" fill="#22112c" stroke="#22112c" stroke-width="1.51"/><path d="M275,1054L273,976L260,1060Z" fill="#401d52" stroke="#401d52" stroke-width="1.51"/><path d="M252,-48L180,3L208,49Z" fill="#8f3eb9" stroke="#8f3eb9" stroke-width="1.51"/><path d="M252,-48L208,49L281,28Z" fill="#8738b2" stroke="#8738b2" stroke-width="1.51"/><path d="M-2,36L22,124L61,57Z" fill="#a852cd" stroke="#a852cd" stroke-width="1.51"/><path d="M123,1016L172,1045L191,1005Z" fill="#5c3368" stroke="#5c3368" stroke-width="1.51"/><path d="M77,1072L172,1045L123,1016Z" fill="#673a70" stroke="#673a70" stroke-width="1.51"/><path d="M56,-45L-2,36L61,57Z" fill="#a04dc7" stroke="#a04dc7" stroke-width="1.51"/><path d="M106,0L61,57L114,22Z" fill="#b75dd8" stroke="#b75dd8" stroke-width="1.51"/><path d="M59,987L77,1072L123,1016Z" fill="#6b3e74" stroke="#6b3e74" stroke-width="1.51"/><path d="M-55,1007L-10,1000L4,953Z" fill="#4d2761" stroke="#4d2761" stroke-width="1.51"/><path d="M-55,1007L4,953L-53,921Z" fill="#4b2563" stroke="#4b2563" stroke-width="1.51"/><path d="M180,3L106,0L114,22Z" fill="#a852cd" stroke="#a852cd" stroke-width="1.51"/><path d="M513,32L502,72L499,190Z" fill="#532c64" stroke="#532c64" stroke-width="1.51"/><path d="M499,190L502,72L451,137Z" fill="#5f3271" stroke="#5f3271" stroke-width="1.51"/><path d="M-2,36L-67,60L-52,129Z" fill="#8f42bb" stroke="#8f42bb" stroke-width="1.51"/><path d="M502,72L415,23L414,99Z" fill="#5c2b77" stroke="#5c2b77" stroke-width="1.51"/><path d="M370,36L338,-4L281,28Z" fill="#712b9d" stroke="#712b9d" stroke-width="1.51"/><path d="M260,1060L273,976L191,1005Z" fill="#482258" stroke="#482258" stroke-width="1.51"/><path d="M410,5L338,-4L370,36Z" fill="#64288b" stroke="#64288b" stroke-width="1.51"/><path d="M180,3L130,-57L106,0Z" fill="#a14dc7" stroke="#a14dc7" stroke-width="1.51"/><path d="M-10,1000L32,1031L59,987Z" fill="#5a3168" stroke="#5a3168" stroke-width="1.51"/><path d="M172,1045L260,1060L191,1005Z" fill="#50295f" stroke="#50295f" stroke-width="1.51"/><path d="M77,1072L260,1060L172,1045Z" fill="#5b3166" stroke="#5b3166" stroke-width="1.51"/><path d="M415,23L410,5L370,36Z" fill="#5f2882" stroke="#5f2882" stroke-width="1.51"/><path d="M513,32L410,5L415,23Z" fill="#532570" stroke="#532570" stroke-width="1.51"/><path d="M-80,880L-55,1007L-53,921Z" fill="#451f61" stroke="#451f61" stroke-width="1.51"/><path d="M-10,1000L-12,1055L32,1031Z" fill="#502b60" stroke="#502b60" stroke-width="1.51"/><path d="M388,-55L302,-30L338,-4Z" fill="#632391" stroke="#632391" stroke-width="1.51"/><path d="M338,-4L302,-30L281,28Z" fill="#7228a2" stroke="#7228a2" stroke-width="1.51"/><path d="M260,1060L380,1051L275,1054Z" fill="#37164b" stroke="#37164b" stroke-width="1.51"/><path d="M275,1054L380,1051L358,974Z" fill="#301440" stroke="#301440" stroke-width="1.51"/><path d="M446,975L486,1011L507,933Z" fill="#160a1a" stroke="#160a1a" stroke-width="1.51"/><path d="M464,1024L486,1011L446,975Z" fill="#160a19" stroke="#160a19" stroke-width="1.51"/><path d="M420,1049L464,1024L446,975Z" fill="#190c1e" stroke="#190c1e" stroke-width="1.51"/><path d="M-12,1055L77,1072L32,1031Z" fill="#5a3267" stroke="#5a3267" stroke-width="1.51"/><path d="M32,1031L77,1072L59,987Z" fill="#61376c" stroke="#61376c" stroke-width="1.51"/><path d="M230,-106L252,-48L294,-117Z" fill="#6e27a1" stroke="#6e27a1" stroke-width="1.51"/><path d="M302,-30L252,-48L281,28Z" fill="#782da7" stroke="#782da7" stroke-width="1.51"/><path d="M380,1051L420,1049L358,974Z" fill="#251230" stroke="#251230" stroke-width="1.51"/><path d="M260,1060L420,1049L380,1051Z" fill="#2c143a" stroke="#2c143a" stroke-width="1.51"/><path d="M410,5L388,-55L338,-4Z" fill="#5d2484" stroke="#5d2484" stroke-width="1.51"/><path d="M502,72L513,32L415,23Z" fill="#502767" stroke="#502767" stroke-width="1.51"/><path d="M507,933L513,32L499,190Z" fill="#5e336b" stroke="#5e336b" stroke-width="1.51"/><path d="M-55,1007L-12,1055L-10,1000Z" fill="#472559" stroke="#472559" stroke-width="1.51"/><path d="M153,-90L130,-57L180,3Z" fill="#9644c0" stroke="#9644c0" stroke-width="1.51"/><path d="M106,0L56,-45L61,57Z" fill="#ab55d0" stroke="#ab55d0" stroke-width="1.51"/><path d="M-2,36L-103,-40L-67,60Z" fill="#7d35ae" stroke="#7d35ae" stroke-width="1.51"/><path d="M130,-57L56,-45L106,0Z" fill="#aa54cf" stroke="#aa54cf" stroke-width="1.51"/><path d="M424,-74L388,-55L410,5Z" fill="#501f76" stroke="#501f76" stroke-width="1.51"/><path d="M252,-48L153,-90L180,3Z" fill="#8b3cb6" stroke="#8b3cb6" stroke-width="1.51"/><path d="M56,-45L-2,-45L-2,36Z" fill="#9143bc" stroke="#9143bc" stroke-width="1.51"/><path d="M-67,60L-103,-40L-85,87Z" fill="#7631a9" stroke="#7631a9" stroke-width="1.51"/><path d="M29,-86L-2,-45L56,-45Z" fill="#8c40ba" stroke="#8c40ba" stroke-width="1.51"/><path d="M130,-57L29,-86L56,-45Z" fill="#9c4ac4" stroke="#9c4ac4" stroke-width="1.51"/><path d="M230,-106L153,-90L252,-48Z" fill="#7e33ad" stroke="#7e33ad" stroke-width="1.51"/><path d="M294,-117L252,-48L302,-30Z" fill="#6c249f" stroke="#6c249f" stroke-width="1.51"/><path d="M388,-55L294,-117L302,-30Z" fill="#5f1f91" stroke="#5f1f91" stroke-width="1.51"/><path d="M514,-37L424,-74L410,5Z" fill="#481f67" stroke="#481f67" stroke-width="1.51"/><path d="M-45,-108L29,-86L153,-90Z" fill="#8c40b9" stroke="#8c40b9" stroke-width="1.51"/><path d="M153,-90L29,-86L130,-57Z" fill="#9f4cc7" stroke="#9f4cc7" stroke-width="1.51"/><path d="M513,32L514,-37L410,5Z" fill="#472261" stroke="#472261" stroke-width="1.51"/><path d="M507,933L514,-37L513,32Z" fill="#683b71" stroke="#683b71" stroke-width="1.51"/><path d="M-95,-85L-103,-40L-2,-45Z" fill="#6a28a1" stroke="#6a28a1" stroke-width="1.51"/><path d="M-2,-45L-103,-40L-2,36Z" fill="#7e36af" stroke="#7e36af" stroke-width="1.51"/><path d="M-85,87L-103,-40L-109,158Z" fill="#7732ab" stroke="#7732ab" stroke-width="1.51"/><path d="M-55,1007L-103,1079L-12,1055Z" fill="#3c1e52" stroke="#3c1e52" stroke-width="1.51"/><path d="M-12,1055L-103,1079L77,1072Z" fill="#4b285c" stroke="#4b285c" stroke-width="1.51"/><path d="M-80,880L-103,1079L-55,1007Z" fill="#391a53" stroke="#391a53" stroke-width="1.51"/><path d="M-94,682L-103,1079L-80,880Z" fill="#431a65" stroke="#431a65" stroke-width="1.51"/><path d="M-106,304L-103,1079L-94,682Z" fill="#591b8c" stroke="#591b8c" stroke-width="1.51"/><path d="M-109,158L-103,1079L-106,304Z" fill="#732ba5" stroke="#732ba5" stroke-width="1.51"/><path d="M-45,-108L-2,-45L29,-86Z" fill="#7c35ae" stroke="#7c35ae" stroke-width="1.51"/><path d="M424,-74L294,-117L388,-55Z" fill="#521c7f" stroke="#521c7f" stroke-width="1.51"/><path d="M424,-74L500,-84L294,-117Z" fill="#471970" stroke="#471970" stroke-width="1.51"/><path d="M514,-37L500,-84L424,-74Z" fill="#3b1a58" stroke="#3b1a58" stroke-width="1.51"/><path d="M-45,-108L-95,-85L-2,-45Z" fill="#6c2aa3" stroke="#6c2aa3" stroke-width="1.51"/><path d="M-45,-108L153,-90L230,-106Z" fill="#9847c1" stroke="#9847c1" stroke-width="1.51"/><path d="M294,-117L-45,-108L230,-106Z" fill="#883bb5" stroke="#883bb5" stroke-width="1.51"/></svg>