<svg xmlns="http://www.w3.org/2000/svg" width="720" height="450"><path d="M408,236L443,259L445,196Z" fill="#d34a3f" stroke="#d34a3f" stroke-width="1.51"/><path d="M443,259L499,202L445,196Z" fill="#d1483d" stroke="#d1483d" stroke-width="1.51"/><path d="M473,275L499,202L443,259Z" fill="#cb3f35" stroke="#cb3f35" stroke-width="1.51"/><path d="M445,196L395,175L408,236Z" fill="#da5549" stroke="#da5549" stroke-width="1.51"/><path d="M481,168L420,164L445,196Z" fill="#da564a" stroke="#da564a" stroke-width="1.51"/><path d="M420,164L395,175L445,196Z" fill="#de5a4e" stroke="#de5a4e" stroke-width="1.51"/><path d="M499,202L481,168L445,196Z" fill="#d54e42" stroke="#d54e42" stroke-width="1.51"/><path d="M408,236L435,304L443,259Z" fill="#cd4137" stroke="#cd4137" stroke-width="1.51"/><path d="M443,259L435,304L473,275Z" fill="#c83a30" stroke="#c83a30" stroke-width="1.51"/><path d="M473,275L547,274L499,202Z" fill="#c6372f" stroke="#c6372f" stroke-width="1.51"/><path d="M435,304L486,292L473,275Z" fill="#c4342c" stroke="#c4342c" stroke-width="1.51"/><path d="M499,202L524,196L481,168Z" fill="#d2493e" stroke="#d2493e" stroke-width="1.51"/><path d="M547,274L524,196L499,202Z" fill="#c63d34" stroke="#c63d34" stroke-width="1.51"/><path d="M460,123L392,134L420,164Z" fill="#e46357" stroke="#e46357" stroke-width="1.51"/><path d="M420,164L392,134L395,175Z" fill="#e36256" stroke="#e36256" stroke-width="1.51"/><path d="M408,236L362,300L435,304Z" fill="#cd4338" stroke="#cd4338" stroke-width="1.51"/><path d="M352,301L362,300L324,240Z" fill="#d44c41" stroke="#d44c41" stroke-width="1.51"/><path d="M362,300L408,236L324,240Z" fill="#d64f43" stroke="#d64f43" stroke-width="1.51"/><path d="M481,168L460,123L420,164Z" fill="#df5b4f" stroke="#df5b4f" stroke-width="1.51"/><path d="M513,114L460,123L481,168Z" fill="#dd5a4e" stroke="#dd5a4e" stroke-width="1.51"/><path d="M362,300L436,348L435,304Z" fill="#c5362e" stroke="#c5362e" stroke-width="1.51"/><path d="M324,240L408,236L323,199Z" fill="#dd5a4d" stroke="#dd5a4d" stroke-width="1.51"/><path d="M323,199L408,236L395,175Z" fill="#df5b4f" stroke="#df5b4f" stroke-width="1.51"/><path d="M486,292L547,274L473,275Z" fill="#c12f28" stroke="#c12f28" stroke-width="1.51"/><path d="M329,157L323,199L395,175Z" fill="#e6665a" stroke="#e6665a" stroke-width="1.51"/><path d="M435,304L436,348L486,292Z" fill="#c12e28" stroke="#c12e28" stroke-width="1.51"/><path d="M486,292L543,303L547,274Z" fill="#b92a24" stroke="#b92a24" stroke-width="1.51"/><path d="M368,371L436,348L362,300Z" fill="#c0372f" stroke="#c0372f" stroke-width="1.51"/><path d="M504,353L543,303L486,292Z" fill="#b9201f" stroke="#b9201f" stroke-width="1.51"/><path d="M392,134L329,157L395,175Z" fill="#e7685c" stroke="#e7685c" stroke-width="1.51"/><path d="M524,196L547,150L481,168Z" fill="#d24c41" stroke="#d24c41" stroke-width="1.51"/><path d="M601,175L547,150L524,196Z" fill="#c4493e" stroke="#c4493e" stroke-width="1.51"/><path d="M547,150L513,114L481,168Z" fill="#d85348" stroke="#d85348" stroke-width="1.51"/><path d="M460,123L405,90L392,134Z" fill="#e66659" stroke="#e66659" stroke-width="1.51"/><path d="M352,301L331,330L362,300Z" fill="#ce4439" stroke="#ce4439" stroke-width="1.51"/><path d="M324,240L309,278L352,301Z" fill="#d85146" stroke="#d85146" stroke-width="1.51"/><path d="M265,257L309,278L324,240Z" fill="#de5a4e" stroke="#de5a4e" stroke-width="1.51"/><path d="M265,257L324,240L323,199Z" fill="#e26054" stroke="#e26054" stroke-width="1.51"/><path d="M420,53L405,90L460,123Z" fill="#e35d4f" stroke="#e35d4f" stroke-width="1.51"/><path d="M392,134L312,120L329,157Z" fill="#ee7165" stroke="#ee7165" stroke-width="1.51"/><path d="M436,348L504,353L486,292Z" fill="#b92521" stroke="#b92521" stroke-width="1.51"/><path d="M513,114L499,95L460,123Z" fill="#dd584c" stroke="#dd584c" stroke-width="1.51"/><path d="M519,69L499,95L513,114Z" fill="#d95043" stroke="#d95043" stroke-width="1.51"/><path d="M329,157L301,180L323,199Z" fill="#ea6b5f" stroke="#ea6b5f" stroke-width="1.51"/><path d="M283,133L301,180L329,157Z" fill="#ef7367" stroke="#ef7367" stroke-width="1.51"/><path d="M547,274L599,269L524,196Z" fill="#b7362d" stroke="#b7362d" stroke-width="1.51"/><path d="M543,303L577,280L547,274Z" fill="#b02a24" stroke="#b02a24" stroke-width="1.51"/><path d="M585,371L577,280L543,303Z" fill="#a6201c" stroke="#a6201c" stroke-width="1.51"/><path d="M309,278L331,330L352,301Z" fill="#d2493e" stroke="#d2493e" stroke-width="1.51"/><path d="M331,330L368,371L362,300Z" fill="#c73e34" stroke="#c73e34" stroke-width="1.51"/><path d="M516,398L541,374L504,353Z" fill="#9c1d1a" stroke="#9c1d1a" stroke-width="1.51"/><path d="M577,280L599,269L547,274Z" fill="#ac2e26" stroke="#ac2e26" stroke-width="1.51"/><path d="M621,281L599,269L577,280Z" fill="#a42c25" stroke="#a42c25" stroke-width="1.51"/><path d="M374,59L312,120L392,134Z" fill="#ec6c60" stroke="#ec6c60" stroke-width="1.51"/><path d="M599,269L601,175L524,196Z" fill="#b73e34" stroke="#b73e34" stroke-width="1.51"/><path d="M611,88L519,69L513,114Z" fill="#cd4e41" stroke="#cd4e41" stroke-width="1.51"/><path d="M405,90L374,59L392,134Z" fill="#e86558" stroke="#e86558" stroke-width="1.51"/><path d="M499,95L420,53L460,123Z" fill="#df584b" stroke="#df584b" stroke-width="1.51"/><path d="M216,220L265,257L301,180Z" fill="#e96a5e" stroke="#e96a5e" stroke-width="1.51"/><path d="M301,180L265,257L323,199Z" fill="#e6665a" stroke="#e6665a" stroke-width="1.51"/><path d="M258,315L298,369L331,330Z" fill="#cb493e" stroke="#cb493e" stroke-width="1.51"/><path d="M357,410L396,422L368,371Z" fill="#a4362e" stroke="#a4362e" stroke-width="1.51"/><path d="M499,95L499,54L420,53Z" fill="#dc5042" stroke="#dc5042" stroke-width="1.51"/><path d="M611,88L513,114L547,150Z" fill="#cc5448" stroke="#cc5448" stroke-width="1.51"/><path d="M504,353L541,374L543,303Z" fill="#a81d1a" stroke="#a81d1a" stroke-width="1.51"/><path d="M489,411L504,353L436,348Z" fill="#a6251f" stroke="#a6251f" stroke-width="1.51"/><path d="M368,371L439,407L436,348Z" fill="#ab3129" stroke="#ab3129" stroke-width="1.51"/><path d="M420,53L374,59L405,90Z" fill="#e55c4e" stroke="#e55c4e" stroke-width="1.51"/><path d="M312,120L283,133L329,157Z" fill="#f2776b" stroke="#f2776b" stroke-width="1.51"/><path d="M287,96L283,133L312,120Z" fill="#f57a6e" stroke="#f57a6e" stroke-width="1.51"/><path d="M519,69L499,54L499,95Z" fill="#d84b3f" stroke="#d84b3f" stroke-width="1.51"/><path d="M489,411L516,398L504,353Z" fill="#9a1f1b" stroke="#9a1f1b" stroke-width="1.51"/><path d="M599,269L656,208L601,175Z" fill="#a83b32" stroke="#a83b32" stroke-width="1.51"/><path d="M632,341L621,281L577,280Z" fill="#9c251f" stroke="#9c251f" stroke-width="1.51"/><path d="M439,407L489,411L436,348Z" fill="#a02922" stroke="#a02922" stroke-width="1.51"/><path d="M601,175L610,142L547,150Z" fill="#bd4d42" stroke="#bd4d42" stroke-width="1.51"/><path d="M615,131L610,142L681,117Z" fill="#b14f46" stroke="#b14f46" stroke-width="1.51"/><path d="M283,133L256,152L301,180Z" fill="#f2776b" stroke="#f2776b" stroke-width="1.51"/><path d="M255,115L256,152L283,133Z" fill="#f77f74" stroke="#f77f74" stroke-width="1.51"/><path d="M368,371L396,422L439,407Z" fill="#a13229" stroke="#a13229" stroke-width="1.51"/><path d="M439,407L477,474L489,411Z" fill="#8b251e" stroke="#8b251e" stroke-width="1.51"/><path d="M298,369L368,371L331,330Z" fill="#be4037" stroke="#be4037" stroke-width="1.51"/><path d="M258,315L331,330L309,278Z" fill="#d54d42" stroke="#d54d42" stroke-width="1.51"/><path d="M298,369L357,410L368,371Z" fill="#b03e34" stroke="#b03e34" stroke-width="1.51"/><path d="M302,64L287,96L312,120Z" fill="#f27366" stroke="#f27366" stroke-width="1.51"/><path d="M610,142L615,131L547,150Z" fill="#be5045" stroke="#be5045" stroke-width="1.51"/><path d="M519,69L502,18L499,54Z" fill="#d54436" stroke="#d54436" stroke-width="1.51"/><path d="M656,208L610,142L601,175Z" fill="#ae453c" stroke="#ae453c" stroke-width="1.51"/><path d="M265,257L258,315L309,278Z" fill="#dc584b" stroke="#dc584b" stroke-width="1.51"/><path d="M209,248L258,315L265,257Z" fill="#e26054" stroke="#e26054" stroke-width="1.51"/><path d="M621,281L639,271L599,269Z" fill="#9e2d25" stroke="#9e2d25" stroke-width="1.51"/><path d="M632,341L639,271L621,281Z" fill="#96251f" stroke="#96251f" stroke-width="1.51"/><path d="M541,374L585,371L543,303Z" fill="#9d1d19" stroke="#9d1d19" stroke-width="1.51"/><path d="M585,386L585,371L541,374Z" fill="#8c1d18" stroke="#8c1d18" stroke-width="1.51"/><path d="M585,386L541,374L516,398Z" fill="#8f1d19" stroke="#8f1d19" stroke-width="1.51"/><path d="M374,59L302,64L312,120Z" fill="#ee6b5e" stroke="#ee6b5e" stroke-width="1.51"/><path d="M287,96L255,115L283,133Z" fill="#f77d71" stroke="#f77d71" stroke-width="1.51"/><path d="M323,37L302,64L374,59Z" fill="#eb6455" stroke="#eb6455" stroke-width="1.51"/><path d="M173,304L257,345L258,315Z" fill="#db564a" stroke="#db564a" stroke-width="1.51"/><path d="M219,51L255,115L287,96Z" fill="#f77a6d" stroke="#f77a6d" stroke-width="1.51"/><path d="M532,452L585,386L516,398Z" fill="#841d17" stroke="#841d17" stroke-width="1.51"/><path d="M585,371L632,341L577,280Z" fill="#991d1a" stroke="#991d1a" stroke-width="1.51"/><path d="M258,315L257,345L298,369Z" fill="#cc4c41" stroke="#cc4c41" stroke-width="1.51"/><path d="M334,427L393,442L357,410Z" fill="#98372e" stroke="#98372e" stroke-width="1.51"/><path d="M216,220L301,180L256,152Z" fill="#f07468" stroke="#f07468" stroke-width="1.51"/><path d="M639,271L656,208L599,269Z" fill="#9e332a" stroke="#9e332a" stroke-width="1.51"/><path d="M541,5L502,18L519,69Z" fill="#cf3e31" stroke="#cf3e31" stroke-width="1.51"/><path d="M499,54L502,18L420,53Z" fill="#d9493b" stroke="#d9493b" stroke-width="1.51"/><path d="M367,3L323,37L374,59Z" fill="#e65b4c" stroke="#e65b4c" stroke-width="1.51"/><path d="M396,422L416,466L439,407Z" fill="#902e25" stroke="#902e25" stroke-width="1.51"/><path d="M489,411L532,452L516,398Z" fill="#8a1d18" stroke="#8a1d18" stroke-width="1.51"/><path d="M357,410L393,442L396,422Z" fill="#97342b" stroke="#97342b" stroke-width="1.51"/><path d="M334,427L357,410L303,408Z" fill="#a13d33" stroke="#a13d33" stroke-width="1.51"/><path d="M615,131L611,88L547,150Z" fill="#c15348" stroke="#c15348" stroke-width="1.51"/><path d="M630,89L611,88L615,131Z" fill="#b64d42" stroke="#b64d42" stroke-width="1.51"/><path d="M173,102L195,141L255,115Z" fill="#ff897e" stroke="#ff897e" stroke-width="1.51"/><path d="M367,3L374,59L420,53Z" fill="#e35748" stroke="#e35748" stroke-width="1.51"/><path d="M195,141L216,220L256,152Z" fill="#f67d71" stroke="#f67d71" stroke-width="1.51"/><path d="M650,397L632,341L585,371Z" fill="#7f1c17" stroke="#7f1c17" stroke-width="1.51"/><path d="M639,271L672,215L656,208Z" fill="#9a362d" stroke="#9a362d" stroke-width="1.51"/><path d="M303,408L357,410L298,369Z" fill="#ad4037" stroke="#ad4037" stroke-width="1.51"/><path d="M241,412L303,408L298,369Z" fill="#b1473d" stroke="#b1473d" stroke-width="1.51"/><path d="M216,220L209,248L265,257Z" fill="#e86a5e" stroke="#e86a5e" stroke-width="1.51"/><path d="M656,208L681,117L610,142Z" fill="#a8493f" stroke="#a8493f" stroke-width="1.51"/><path d="M701,244L672,215L639,271Z" fill="#933329" stroke="#933329" stroke-width="1.51"/><path d="M419,-10L367,3L420,53Z" fill="#de4e3f" stroke="#de4e3f" stroke-width="1.51"/><path d="M611,88L600,50L519,69Z" fill="#c1473a" stroke="#c1473a" stroke-width="1.51"/><path d="M681,117L630,89L615,131Z" fill="#af4d44" stroke="#af4d44" stroke-width="1.51"/><path d="M502,18L419,-10L420,53Z" fill="#d94839" stroke="#d94839" stroke-width="1.51"/><path d="M630,89L600,50L611,88Z" fill="#b5463b" stroke="#b5463b" stroke-width="1.51"/><path d="M502,18L491,-51L419,-10Z" fill="#d3382b" stroke="#d3382b" stroke-width="1.51"/><path d="M393,442L416,466L396,422Z" fill="#8c2f27" stroke="#8c2f27" stroke-width="1.51"/><path d="M341,496L416,466L393,442Z" fill="#833128" stroke="#833128" stroke-width="1.51"/><path d="M683,362L699,295L632,341Z" fill="#811d17" stroke="#811d17" stroke-width="1.51"/><path d="M477,474L532,452L489,411Z" fill="#801e19" stroke="#801e19" stroke-width="1.51"/><path d="M600,50L541,5L519,69Z" fill="#c64033" stroke="#c64033" stroke-width="1.51"/><path d="M416,466L477,474L439,407Z" fill="#852820" stroke="#852820" stroke-width="1.51"/><path d="M255,115L195,141L256,152Z" fill="#fa8378" stroke="#fa8378" stroke-width="1.51"/><path d="M216,220L153,222L209,248Z" fill="#ec6e61" stroke="#ec6e61" stroke-width="1.51"/><path d="M219,51L287,96L302,64Z" fill="#f47365" stroke="#f47365" stroke-width="1.51"/><path d="M323,37L284,-26L302,64Z" fill="#ec6252" stroke="#ec6252" stroke-width="1.51"/><path d="M367,3L320,-4L323,37Z" fill="#e65949" stroke="#e65949" stroke-width="1.51"/><path d="M384,-31L320,-4L367,3Z" fill="#e14f3e" stroke="#e14f3e" stroke-width="1.51"/><path d="M195,141L178,195L216,220Z" fill="#f4796d" stroke="#f4796d" stroke-width="1.51"/><path d="M168,364L241,412L257,345Z" fill="#c35247" stroke="#c35247" stroke-width="1.51"/><path d="M699,295L701,244L639,271Z" fill="#8b2b23" stroke="#8b2b23" stroke-width="1.51"/><path d="M710,170L681,117L656,208Z" fill="#9c453b" stroke="#9c453b" stroke-width="1.51"/><path d="M419,-10L384,-31L367,3Z" fill="#dd4839" stroke="#dd4839" stroke-width="1.51"/><path d="M458,-72L384,-31L419,-10Z" fill="#d73b2d" stroke="#d73b2d" stroke-width="1.51"/><path d="M477,474L482,488L532,452Z" fill="#751e18" stroke="#751e18" stroke-width="1.51"/><path d="M448,507L482,488L477,474Z" fill="#70221b" stroke="#70221b" stroke-width="1.51"/><path d="M630,89L642,34L600,50Z" fill="#b04135" stroke="#b04135" stroke-width="1.51"/><path d="M710,170L656,208L672,215Z" fill="#983d34" stroke="#983d34" stroke-width="1.51"/><path d="M650,397L585,371L585,386Z" fill="#7d1c16" stroke="#7d1c16" stroke-width="1.51"/><path d="M632,341L699,295L639,271Z" fill="#8d241d" stroke="#8d241d" stroke-width="1.51"/><path d="M334,427L341,496L393,442Z" fill="#8b362d" stroke="#8b362d" stroke-width="1.51"/><path d="M416,466L448,507L477,474Z" fill="#75251e" stroke="#75251e" stroke-width="1.51"/><path d="M303,408L302,460L334,427Z" fill="#9b3f35" stroke="#9b3f35" stroke-width="1.51"/><path d="M241,412L302,460L303,408Z" fill="#a2443b" stroke="#a2443b" stroke-width="1.51"/><path d="M241,412L298,369L257,345Z" fill="#bc4b40" stroke="#bc4b40" stroke-width="1.51"/><path d="M173,304L258,315L209,248Z" fill="#e26154" stroke="#e26154" stroke-width="1.51"/><path d="M624,473L650,397L585,386Z" fill="#6a1b15" stroke="#6a1b15" stroke-width="1.51"/><path d="M569,474L585,386L532,452Z" fill="#731c16" stroke="#731c16" stroke-width="1.51"/><path d="M541,5L491,-51L502,18Z" fill="#ce3126" stroke="#ce3126" stroke-width="1.51"/><path d="M600,50L586,-2L541,5Z" fill="#bc392b" stroke="#bc392b" stroke-width="1.51"/><path d="M639,7L586,-2L600,50Z" fill="#b1372a" stroke="#b1372a" stroke-width="1.51"/><path d="M158,249L173,304L209,248Z" fill="#e56255" stroke="#e56255" stroke-width="1.51"/><path d="M741,174L710,170L701,244Z" fill="#8d3c33" stroke="#8d3c33" stroke-width="1.51"/><path d="M701,244L710,170L672,215Z" fill="#913a30" stroke="#913a30" stroke-width="1.51"/><path d="M650,397L683,362L632,341Z" fill="#771c16" stroke="#771c16" stroke-width="1.51"/><path d="M529,501L569,474L532,452Z" fill="#671b14" stroke="#671b14" stroke-width="1.51"/><path d="M721,283L717,250L701,244Z" fill="#832d25" stroke="#832d25" stroke-width="1.51"/><path d="M721,283L701,244L699,295Z" fill="#822a22" stroke="#822a22" stroke-width="1.51"/><path d="M482,488L529,501L532,452Z" fill="#6e1b15" stroke="#6e1b15" stroke-width="1.51"/><path d="M381,523L448,507L416,466Z" fill="#712922" stroke="#712922" stroke-width="1.51"/><path d="M681,117L642,34L630,89Z" fill="#aa453a" stroke="#aa453a" stroke-width="1.51"/><path d="M639,7L642,34L703,18Z" fill="#a03629" stroke="#a03629" stroke-width="1.51"/><path d="M153,222L216,220L178,195Z" fill="#ef7064" stroke="#ef7064" stroke-width="1.51"/><path d="M153,222L158,249L209,248Z" fill="#e9685b" stroke="#e9685b" stroke-width="1.51"/><path d="M95,188L153,222L178,195Z" fill="#ee6c5e" stroke="#ee6c5e" stroke-width="1.51"/><path d="M226,-4L219,51L302,64Z" fill="#f36e5e" stroke="#f36e5e" stroke-width="1.51"/><path d="M561,-76L491,-51L541,5Z" fill="#c4261c" stroke="#c4261c" stroke-width="1.51"/><path d="M125,135L178,195L195,141Z" fill="#f77b6f" stroke="#f77b6f" stroke-width="1.51"/><path d="M302,460L341,496L334,427Z" fill="#8c3a31" stroke="#8c3a31" stroke-width="1.51"/><path d="M272,477L341,496L302,460Z" fill="#863c34" stroke="#863c34" stroke-width="1.51"/><path d="M717,250L741,174L701,244Z" fill="#87352d" stroke="#87352d" stroke-width="1.51"/><path d="M714,334L721,283L699,295Z" fill="#7c221b" stroke="#7c221b" stroke-width="1.51"/><path d="M481,549L529,501L482,488Z" fill="#621c15" stroke="#621c15" stroke-width="1.51"/><path d="M219,51L173,102L255,115Z" fill="#fb8174" stroke="#fb8174" stroke-width="1.51"/><path d="M683,362L714,334L699,295Z" fill="#7a1c16" stroke="#7a1c16" stroke-width="1.51"/><path d="M716,379L714,334L683,362Z" fill="#6c1b15" stroke="#6c1b15" stroke-width="1.51"/><path d="M320,-4L284,-26L323,37Z" fill="#e85b4a" stroke="#e85b4a" stroke-width="1.51"/><path d="M165,26L146,100L173,102Z" fill="#f97768" stroke="#f97768" stroke-width="1.51"/><path d="M305,-50L284,-26L320,-4Z" fill="#e75442" stroke="#e75442" stroke-width="1.51"/><path d="M305,-50L320,-4L384,-31Z" fill="#e24e3c" stroke="#e24e3c" stroke-width="1.51"/><path d="M586,-2L561,-76L541,5Z" fill="#bb2c20" stroke="#bb2c20" stroke-width="1.51"/><path d="M642,34L639,7L600,50Z" fill="#ac3a2d" stroke="#ac3a2d" stroke-width="1.51"/><path d="M704,28L642,34L681,117Z" fill="#a03f34" stroke="#a03f34" stroke-width="1.51"/><path d="M491,-51L458,-72L419,-10Z" fill="#d13124" stroke="#d13124" stroke-width="1.51"/><path d="M561,-76L458,-72L491,-51Z" fill="#c81c15" stroke="#c81c15" stroke-width="1.51"/><path d="M229,444L272,477L241,412Z" fill="#9c473f" stroke="#9c473f" stroke-width="1.51"/><path d="M241,412L272,477L302,460Z" fill="#98433a" stroke="#98433a" stroke-width="1.51"/><path d="M324,543L381,523L341,496Z" fill="#6e312b" stroke="#6e312b" stroke-width="1.51"/><path d="M341,496L381,523L416,466Z" fill="#773027" stroke="#773027" stroke-width="1.51"/><path d="M554,529L563,516L529,501Z" fill="#551912" stroke="#551912" stroke-width="1.51"/><path d="M198,426L229,444L241,412Z" fill="#a84d44" stroke="#a84d44" stroke-width="1.51"/><path d="M173,304L168,364L257,345Z" fill="#d6564a" stroke="#d6564a" stroke-width="1.51"/><path d="M152,347L168,364L173,304Z" fill="#d35043" stroke="#d35043" stroke-width="1.51"/><path d="M140,286L173,304L158,249Z" fill="#e15b4e" stroke="#e15b4e" stroke-width="1.51"/><path d="M134,268L140,286L158,249Z" fill="#e35c4f" stroke="#e35c4f" stroke-width="1.51"/><path d="M134,268L158,249L153,222Z" fill="#e76254" stroke="#e76254" stroke-width="1.51"/><path d="M710,170L728,106L681,117Z" fill="#9a4b42" stroke="#9a4b42" stroke-width="1.51"/><path d="M804,224L741,174L717,250Z" fill="#7d352d" stroke="#7d352d" stroke-width="1.51"/><path d="M748,159L741,174L812,162Z" fill="#813f38" stroke="#813f38" stroke-width="1.51"/><path d="M95,188L134,268L153,222Z" fill="#e96355" stroke="#e96355" stroke-width="1.51"/><path d="M569,474L624,473L585,386Z" fill="#671b14" stroke="#671b14" stroke-width="1.51"/><path d="M650,397L700,398L683,362Z" fill="#681a15" stroke="#681a15" stroke-width="1.51"/><path d="M612,483L624,473L569,474Z" fill="#561813" stroke="#561813" stroke-width="1.51"/><path d="M310,-73L305,-50L384,-31Z" fill="#e04836" stroke="#e04836" stroke-width="1.51"/><path d="M563,516L612,483L569,474Z" fill="#561912" stroke="#561912" stroke-width="1.51"/><path d="M168,364L198,426L241,412Z" fill="#b65046" stroke="#b65046" stroke-width="1.51"/><path d="M140,286L152,347L173,304Z" fill="#db5245" stroke="#db5245" stroke-width="1.51"/><path d="M149,406L152,347L71,367Z" fill="#bf463a" stroke="#bf463a" stroke-width="1.51"/><path d="M711,474L700,398L650,397Z" fill="#541912" stroke="#541912" stroke-width="1.51"/><path d="M149,406L198,426L168,364Z" fill="#b54c41" stroke="#b54c41" stroke-width="1.51"/><path d="M250,514L324,543L272,477Z" fill="#793c35" stroke="#793c35" stroke-width="1.51"/><path d="M748,159L728,106L710,170Z" fill="#90463e" stroke="#90463e" stroke-width="1.51"/><path d="M554,529L529,501L481,549Z" fill="#581912" stroke="#581912" stroke-width="1.51"/><path d="M529,501L563,516L569,474Z" fill="#5b1913" stroke="#5b1913" stroke-width="1.51"/><path d="M212,-39L226,-4L284,-26Z" fill="#ee604e" stroke="#ee604e" stroke-width="1.51"/><path d="M284,-26L226,-4L302,64Z" fill="#ee6453" stroke="#ee6453" stroke-width="1.51"/><path d="M700,398L716,379L683,362Z" fill="#641a14" stroke="#641a14" stroke-width="1.51"/><path d="M807,303L791,261L721,283Z" fill="#6d251e" stroke="#6d251e" stroke-width="1.51"/><path d="M741,174L748,159L710,170Z" fill="#8b4139" stroke="#8b4139" stroke-width="1.51"/><path d="M791,261L717,250L721,283Z" fill="#792a22" stroke="#792a22" stroke-width="1.51"/><path d="M173,102L125,135L195,141Z" fill="#fc8376" stroke="#fc8376" stroke-width="1.51"/><path d="M165,26L173,102L219,51Z" fill="#f97768" stroke="#f97768" stroke-width="1.51"/><path d="M563,516L571,531L612,483Z" fill="#4d1711" stroke="#4d1711" stroke-width="1.51"/><path d="M481,549L482,488L448,507Z" fill="#642019" stroke="#642019" stroke-width="1.51"/><path d="M381,523L407,549L448,507Z" fill="#652821" stroke="#652821" stroke-width="1.51"/><path d="M324,543L407,549L381,523Z" fill="#692e27" stroke="#692e27" stroke-width="1.51"/><path d="M407,549L429,551L448,507Z" fill="#63251e" stroke="#63251e" stroke-width="1.51"/><path d="M429,551L481,549L448,507Z" fill="#60221b" stroke="#60221b" stroke-width="1.51"/><path d="M458,-72L310,-73L384,-31Z" fill="#d93c2c" stroke="#d93c2c" stroke-width="1.51"/><path d="M305,-50L212,-39L284,-26Z" fill="#ea5845" stroke="#ea5845" stroke-width="1.51"/><path d="M607,-60L561,-76L586,-2Z" fill="#b22419" stroke="#b22419" stroke-width="1.51"/><path d="M458,-72L561,-76L310,-73Z" fill="#cf2a1e" stroke="#cf2a1e" stroke-width="1.51"/><path d="M146,100L125,135L173,102Z" fill="#fb7d70" stroke="#fb7d70" stroke-width="1.51"/><path d="M639,7L617,-49L586,-2Z" fill="#ac2e21" stroke="#ac2e21" stroke-width="1.51"/><path d="M674,-33L617,-49L639,7Z" fill="#a12a1e" stroke="#a12a1e" stroke-width="1.51"/><path d="M554,529L571,531L563,516Z" fill="#4c1711" stroke="#4c1711" stroke-width="1.51"/><path d="M690,511L711,474L624,473Z" fill="#3e150e" stroke="#3e150e" stroke-width="1.51"/><path d="M766,401L716,379L700,398Z" fill="#561912" stroke="#561912" stroke-width="1.51"/><path d="M481,549L571,531L554,529Z" fill="#531812" stroke="#531812" stroke-width="1.51"/><path d="M728,106L704,28L681,117Z" fill="#984339" stroke="#984339" stroke-width="1.51"/><path d="M703,18L704,28L747,6Z" fill="#8e3327" stroke="#8e3327" stroke-width="1.51"/><path d="M617,-49L607,-60L586,-2Z" fill="#ad271b" stroke="#ad271b" stroke-width="1.51"/><path d="M674,-33L607,-60L617,-49Z" fill="#a32317" stroke="#a32317" stroke-width="1.51"/><path d="M272,477L324,543L341,496Z" fill="#793831" stroke="#793831" stroke-width="1.51"/><path d="M407,549L297,577L429,551Z" fill="#682d26" stroke="#682d26" stroke-width="1.51"/><path d="M250,514L272,477L229,444Z" fill="#8c433c" stroke="#8c433c" stroke-width="1.51"/><path d="M704,28L703,18L642,34Z" fill="#9a372a" stroke="#9a372a" stroke-width="1.51"/><path d="M756,41L704,28L728,106Z" fill="#8e3c31" stroke="#8e3c31" stroke-width="1.51"/><path d="M77,100L77,152L125,135Z" fill="#f87667" stroke="#f87667" stroke-width="1.51"/><path d="M179,-5L165,26L219,51Z" fill="#f66e5d" stroke="#f66e5d" stroke-width="1.51"/><path d="M179,-5L219,51L226,-4Z" fill="#f66f5f" stroke="#f66f5f" stroke-width="1.51"/><path d="M171,499L250,514L229,444Z" fill="#8b4841" stroke="#8b4841" stroke-width="1.51"/><path d="M152,347L149,406L168,364Z" fill="#c14c40" stroke="#c14c40" stroke-width="1.51"/><path d="M86,279L152,347L140,286Z" fill="#db4f42" stroke="#db4f42" stroke-width="1.51"/><path d="M161,470L229,444L198,426Z" fill="#9f4b43" stroke="#9f4b43" stroke-width="1.51"/><path d="M125,135L95,188L178,195Z" fill="#f37264" stroke="#f37264" stroke-width="1.51"/><path d="M134,268L86,279L140,286Z" fill="#df5547" stroke="#df5547" stroke-width="1.51"/><path d="M77,152L95,188L125,135Z" fill="#f37061" stroke="#f37061" stroke-width="1.51"/><path d="M212,-39L179,-5L226,-4Z" fill="#f36755" stroke="#f36755" stroke-width="1.51"/><path d="M310,-73L212,-39L305,-50Z" fill="#e7523f" stroke="#e7523f" stroke-width="1.51"/><path d="M703,18L674,-33L639,7Z" fill="#9b3023" stroke="#9b3023" stroke-width="1.51"/><path d="M779,352L721,283L714,334Z" fill="#711c16" stroke="#711c16" stroke-width="1.51"/><path d="M748,159L782,108L728,106Z" fill="#8c4942" stroke="#8c4942" stroke-width="1.51"/><path d="M74,259L86,279L134,268Z" fill="#df5345" stroke="#df5345" stroke-width="1.51"/><path d="M716,379L779,352L714,334Z" fill="#641b14" stroke="#641b14" stroke-width="1.51"/><path d="M766,401L779,352L716,379Z" fill="#551912" stroke="#551912" stroke-width="1.51"/><path d="M711,474L650,397L624,473Z" fill="#511812" stroke="#511812" stroke-width="1.51"/><path d="M703,18L747,6L674,-33Z" fill="#902e21" stroke="#902e21" stroke-width="1.51"/><path d="M812,162L782,108L748,159Z" fill="#80433c" stroke="#80433c" stroke-width="1.51"/><path d="M791,261L804,224L717,250Z" fill="#742d26" stroke="#742d26" stroke-width="1.51"/><path d="M815,268L804,224L791,261Z" fill="#692a23" stroke="#692a23" stroke-width="1.51"/><path d="M131,465L161,470L149,406Z" fill="#9c4439" stroke="#9c4439" stroke-width="1.51"/><path d="M95,188L74,259L134,268Z" fill="#e55b4d" stroke="#e55b4d" stroke-width="1.51"/><path d="M112,-7L129,30L165,26Z" fill="#f16350" stroke="#f16350" stroke-width="1.51"/><path d="M165,26L129,30L146,100Z" fill="#f66e5d" stroke="#f66e5d" stroke-width="1.51"/><path d="M15,176L28,273L74,259Z" fill="#e15242" stroke="#e15242" stroke-width="1.51"/><path d="M112,-7L165,26L179,-5Z" fill="#f16350" stroke="#f16350" stroke-width="1.51"/><path d="M690,511L624,473L683,533Z" fill="#38140e" stroke="#38140e" stroke-width="1.51"/><path d="M782,108L756,41L728,106Z" fill="#884037" stroke="#884037" stroke-width="1.51"/><path d="M149,406L161,470L198,426Z" fill="#a4483e" stroke="#a4483e" stroke-width="1.51"/><path d="M131,465L149,406L88,452Z" fill="#9d4135" stroke="#9d4135" stroke-width="1.51"/><path d="M77,100L125,135L146,100Z" fill="#f97869" stroke="#f97869" stroke-width="1.51"/><path d="M760,442L766,401L700,398Z" fill="#491710" stroke="#491710" stroke-width="1.51"/><path d="M820,370L807,303L779,352Z" fill="#571913" stroke="#571913" stroke-width="1.51"/><path d="M779,352L807,303L721,283Z" fill="#691e17" stroke="#691e17" stroke-width="1.51"/><path d="M250,514L297,577L324,543Z" fill="#713933" stroke="#713933" stroke-width="1.51"/><path d="M324,543L297,577L407,549Z" fill="#6b322b" stroke="#6b322b" stroke-width="1.51"/><path d="M429,551L297,577L481,549Z" fill="#652922" stroke="#652922" stroke-width="1.51"/><path d="M229,555L297,577L250,514Z" fill="#733e38" stroke="#733e38" stroke-width="1.51"/><path d="M807,303L815,268L791,261Z" fill="#64241d" stroke="#64241d" stroke-width="1.51"/><path d="M820,188L812,162L741,174Z" fill="#783b35" stroke="#783b35" stroke-width="1.51"/><path d="M820,188L741,174L804,224Z" fill="#763730" stroke="#763730" stroke-width="1.51"/><path d="M793,9L747,6L756,41Z" fill="#803125" stroke="#803125" stroke-width="1.51"/><path d="M683,533L624,473L612,483Z" fill="#43160f" stroke="#43160f" stroke-width="1.51"/><path d="M711,474L760,442L700,398Z" fill="#441610" stroke="#441610" stroke-width="1.51"/><path d="M683,533L612,483L653,568Z" fill="#34130d" stroke="#34130d" stroke-width="1.51"/><path d="M212,-39L179,-49L179,-5Z" fill="#f0604d" stroke="#f0604d" stroke-width="1.51"/><path d="M310,-73L179,-49L212,-39Z" fill="#ec5946" stroke="#ec5946" stroke-width="1.51"/><path d="M778,44L756,41L782,108Z" fill="#813b31" stroke="#813b31" stroke-width="1.51"/><path d="M756,41L747,6L704,28Z" fill="#893428" stroke="#893428" stroke-width="1.51"/><path d="M131,465L171,499L161,470Z" fill="#8d4239" stroke="#8d4239" stroke-width="1.51"/><path d="M161,470L171,499L229,444Z" fill="#92473f" stroke="#92473f" stroke-width="1.51"/><path d="M815,268L820,188L804,224Z" fill="#6a2f28" stroke="#6a2f28" stroke-width="1.51"/><path d="M129,30L77,100L146,100Z" fill="#f6705f" stroke="#f6705f" stroke-width="1.51"/><path d="M36,296L86,279L74,259Z" fill="#db4b3c" stroke="#db4b3c" stroke-width="1.51"/><path d="M66,65L77,100L129,30Z" fill="#f36856" stroke="#f36856" stroke-width="1.51"/><path d="M821,112L782,108L812,162Z" fill="#7a443f" stroke="#7a443f" stroke-width="1.51"/><path d="M821,112L778,44L782,108Z" fill="#7c3e36" stroke="#7c3e36" stroke-width="1.51"/><path d="M766,401L820,370L779,352Z" fill="#4d1811" stroke="#4d1811" stroke-width="1.51"/><path d="M782,469L760,442L711,474Z" fill="#33130c" stroke="#33130c" stroke-width="1.51"/><path d="M71,367L152,347L86,279Z" fill="#d34538" stroke="#d34538" stroke-width="1.51"/><path d="M171,499L229,555L250,514Z" fill="#79443e" stroke="#79443e" stroke-width="1.51"/><path d="M193,573L229,555L171,499Z" fill="#78433d" stroke="#78433d" stroke-width="1.51"/><path d="M754,513L782,469L711,474Z" fill="#2a110a" stroke="#2a110a" stroke-width="1.51"/><path d="M653,568L612,483L571,531Z" fill="#3e150f" stroke="#3e150f" stroke-width="1.51"/><path d="M653,568L571,531L481,549Z" fill="#4a1711" stroke="#4a1711" stroke-width="1.51"/><path d="M51,349L86,279L36,296Z" fill="#d54133" stroke="#d54133" stroke-width="1.51"/><path d="M51,349L71,367L86,279Z" fill="#cf3e31" stroke="#cf3e31" stroke-width="1.51"/><path d="M836,145L821,112L812,162Z" fill="#76413c" stroke="#76413c" stroke-width="1.51"/><path d="M179,-49L112,-7L179,-5Z" fill="#ef5d4a" stroke="#ef5d4a" stroke-width="1.51"/><path d="M297,577L653,568L481,549Z" fill="#5e1e18" stroke="#5e1e18" stroke-width="1.51"/><path d="M71,367L79,410L149,406Z" fill="#b34034" stroke="#b34034" stroke-width="1.51"/><path d="M112,-7L97,11L129,30Z" fill="#ef5e4a" stroke="#ef5e4a" stroke-width="1.51"/><path d="M820,188L836,145L812,162Z" fill="#723c36" stroke="#723c36" stroke-width="1.51"/><path d="M844,307L836,145L820,188Z" fill="#6b322b" stroke="#6b322b" stroke-width="1.51"/><path d="M36,296L74,259L28,273Z" fill="#da4839" stroke="#da4839" stroke-width="1.51"/><path d="M71,367L52,426L79,410Z" fill="#ad3a2d" stroke="#ad3a2d" stroke-width="1.51"/><path d="M77,100L41,132L77,152Z" fill="#f77262" stroke="#f77262" stroke-width="1.51"/><path d="M97,11L66,65L129,30Z" fill="#f1624e" stroke="#f1624e" stroke-width="1.51"/><path d="M825,382L820,370L766,401Z" fill="#441610" stroke="#441610" stroke-width="1.51"/><path d="M807,303L844,307L815,268Z" fill="#60211a" stroke="#60211a" stroke-width="1.51"/><path d="M815,268L844,307L820,188Z" fill="#652922" stroke="#652922" stroke-width="1.51"/><path d="M15,176L95,188L77,152Z" fill="#ef6656" stroke="#ef6656" stroke-width="1.51"/><path d="M33,94L41,132L77,100Z" fill="#f56d5b" stroke="#f56d5b" stroke-width="1.51"/><path d="M820,370L844,307L807,303Z" fill="#5a1913" stroke="#5a1913" stroke-width="1.51"/><path d="M-3,348L52,426L51,349Z" fill="#b83528" stroke="#b83528" stroke-width="1.51"/><path d="M15,176L74,259L95,188Z" fill="#e85d4d" stroke="#e85d4d" stroke-width="1.51"/><path d="M820,370L825,382L844,307Z" fill="#4f1812" stroke="#4f1812" stroke-width="1.51"/><path d="M815,437L825,382L766,401Z" fill="#3c150e" stroke="#3c150e" stroke-width="1.51"/><path d="M815,437L766,401L760,442Z" fill="#39140e" stroke="#39140e" stroke-width="1.51"/><path d="M711,474L690,511L754,513Z" fill="#2d110a" stroke="#2d110a" stroke-width="1.51"/><path d="M778,44L793,9L756,41Z" fill="#7d3328" stroke="#7d3328" stroke-width="1.51"/><path d="M747,6L754,-58L674,-33Z" fill="#87271a" stroke="#87271a" stroke-width="1.51"/><path d="M674,-33L754,-58L607,-60Z" fill="#942215" stroke="#942215" stroke-width="1.51"/><path d="M836,28L793,9L778,44Z" fill="#753126" stroke="#753126" stroke-width="1.51"/><path d="M836,28L778,44L821,112Z" fill="#74382f" stroke="#74382f" stroke-width="1.51"/><path d="M52,426L88,452L79,410Z" fill="#a0392d" stroke="#a0392d" stroke-width="1.51"/><path d="M79,410L88,452L149,406Z" fill="#a53f33" stroke="#a53f33" stroke-width="1.51"/><path d="M133,524L193,573L171,499Z" fill="#763e37" stroke="#763e37" stroke-width="1.51"/><path d="M754,513L690,511L683,533Z" fill="#281009" stroke="#281009" stroke-width="1.51"/><path d="M133,524L171,499L131,465Z" fill="#843f36" stroke="#843f36" stroke-width="1.51"/><path d="M229,555L193,573L297,577Z" fill="#75403a" stroke="#75403a" stroke-width="1.51"/><path d="M793,9L754,-58L747,6Z" fill="#7d291c" stroke="#7d291c" stroke-width="1.51"/><path d="M607,-60L754,-58L561,-76Z" fill="#9e1d12" stroke="#9e1d12" stroke-width="1.51"/><path d="M757,567L754,513L683,533Z" fill="#200d06" stroke="#200d06" stroke-width="1.51"/><path d="M91,513L133,524L131,465Z" fill="#813a31" stroke="#813a31" stroke-width="1.51"/><path d="M41,132L15,176L77,152Z" fill="#f16857" stroke="#f16857" stroke-width="1.51"/><path d="M5,167L15,176L41,132Z" fill="#ee6251" stroke="#ee6251" stroke-width="1.51"/><path d="M6,98L33,94L-15,65Z" fill="#f05f4c" stroke="#f05f4c" stroke-width="1.51"/><path d="M66,65L33,94L77,100Z" fill="#f36856" stroke="#f36856" stroke-width="1.51"/><path d="M795,499L815,437L782,469Z" fill="#250f08" stroke="#250f08" stroke-width="1.51"/><path d="M782,469L815,437L760,442Z" fill="#2f120b" stroke="#2f120b" stroke-width="1.51"/><path d="M825,382L855,482L844,307Z" fill="#3f150f" stroke="#3f150f" stroke-width="1.51"/><path d="M23,24L33,94L66,65Z" fill="#ef5e4b" stroke="#ef5e4b" stroke-width="1.51"/><path d="M112,-7L45,1L97,11Z" fill="#ed5642" stroke="#ed5642" stroke-width="1.51"/><path d="M179,-49L130,-77L112,-7Z" fill="#ec5440" stroke="#ec5440" stroke-width="1.51"/><path d="M310,-73L130,-77L179,-49Z" fill="#ee5a46" stroke="#ee5a46" stroke-width="1.51"/><path d="M561,-76L130,-77L310,-73Z" fill="#de4130" stroke="#de4130" stroke-width="1.51"/><path d="M91,513L123,534L133,524Z" fill="#76382f" stroke="#76382f" stroke-width="1.51"/><path d="M51,349L52,426L71,367Z" fill="#b73a2d" stroke="#b73a2d" stroke-width="1.51"/><path d="M-3,348L51,349L36,296Z" fill="#cd362a" stroke="#cd362a" stroke-width="1.51"/><path d="M6,98L5,167L41,132Z" fill="#f36958" stroke="#f36958" stroke-width="1.51"/><path d="M-34,224L-3,283L28,273Z" fill="#da4333" stroke="#da4333" stroke-width="1.51"/><path d="M28,273L-3,283L36,296Z" fill="#d74033" stroke="#d74033" stroke-width="1.51"/><path d="M91,513L131,465L88,452Z" fill="#8b3a30" stroke="#8b3a30" stroke-width="1.51"/><path d="M133,524L123,534L193,573Z" fill="#763c35" stroke="#763c35" stroke-width="1.51"/><path d="M793,9L807,-52L754,-58Z" fill="#752317" stroke="#752317" stroke-width="1.51"/><path d="M836,145L836,28L821,112Z" fill="#763e37" stroke="#763e37" stroke-width="1.51"/><path d="M857,-50L836,28L836,145Z" fill="#723329" stroke="#723329" stroke-width="1.51"/><path d="M-34,224L28,273L15,176Z" fill="#e14e3e" stroke="#e14e3e" stroke-width="1.51"/><path d="M754,513L795,499L782,469Z" fill="#210d06" stroke="#210d06" stroke-width="1.51"/><path d="M796,545L795,499L754,513Z" fill="#150703" stroke="#150703" stroke-width="1.51"/><path d="M41,464L91,513L88,452Z" fill="#8a362b" stroke="#8a362b" stroke-width="1.51"/><path d="M5,167L-34,224L15,176Z" fill="#e75645" stroke="#e75645" stroke-width="1.51"/><path d="M33,94L6,98L41,132Z" fill="#f36856" stroke="#f36856" stroke-width="1.51"/><path d="M45,1L66,65L97,11Z" fill="#ee5a46" stroke="#ee5a46" stroke-width="1.51"/><path d="M94,-70L45,1L112,-7Z" fill="#e94e3a" stroke="#e94e3a" stroke-width="1.51"/><path d="M130,-77L94,-70L112,-7Z" fill="#e94c38" stroke="#e94c38" stroke-width="1.51"/><path d="M-3,283L-3,348L36,296Z" fill="#d1372a" stroke="#d1372a" stroke-width="1.51"/><path d="M52,426L41,464L88,452Z" fill="#973629" stroke="#973629" stroke-width="1.51"/><path d="M836,28L829,-15L793,9Z" fill="#702c20" stroke="#702c20" stroke-width="1.51"/><path d="M829,-15L807,-52L793,9Z" fill="#6e261a" stroke="#6e261a" stroke-width="1.51"/><path d="M1,-22L23,24L45,1Z" fill="#e84b36" stroke="#e84b36" stroke-width="1.51"/><path d="M45,1L23,24L66,65Z" fill="#ed5742" stroke="#ed5742" stroke-width="1.51"/><path d="M-15,441L41,464L52,426Z" fill="#963024" stroke="#963024" stroke-width="1.51"/><path d="M653,568L757,567L683,533Z" fill="#271009" stroke="#271009" stroke-width="1.51"/><path d="M297,577L757,567L653,568Z" fill="#4a1711" stroke="#4a1711" stroke-width="1.51"/><path d="M-82,179L-34,224L5,167Z" fill="#e5503e" stroke="#e5503e" stroke-width="1.51"/><path d="M-72,323L-44,364L-3,348Z" fill="#c1251b" stroke="#c1251b" stroke-width="1.51"/><path d="M-38,232L-34,224L-82,179Z" fill="#df4736" stroke="#df4736" stroke-width="1.51"/><path d="M-82,179L5,167L-89,143Z" fill="#e95442" stroke="#e95442" stroke-width="1.51"/><path d="M-34,224L-38,232L-3,283Z" fill="#db4333" stroke="#db4333" stroke-width="1.51"/><path d="M795,499L855,482L815,437Z" fill="#200d06" stroke="#200d06" stroke-width="1.51"/><path d="M815,437L855,482L825,382Z" fill="#2e120b" stroke="#2e120b" stroke-width="1.51"/><path d="M757,567L796,545L754,513Z" fill="#150703" stroke="#150703" stroke-width="1.51"/><path d="M23,24L-15,65L33,94Z" fill="#ed5946" stroke="#ed5946" stroke-width="1.51"/><path d="M1,-22L-15,65L23,24Z" fill="#e94d39" stroke="#e94d39" stroke-width="1.51"/><path d="M41,464L39,507L91,513Z" fill="#803226" stroke="#803226" stroke-width="1.51"/><path d="M91,513L72,563L123,534Z" fill="#73352b" stroke="#73352b" stroke-width="1.51"/><path d="M123,534L72,563L193,573Z" fill="#753931" stroke="#753931" stroke-width="1.51"/><path d="M-31,507L39,507L41,464Z" fill="#7f2c1f" stroke="#7f2c1f" stroke-width="1.51"/><path d="M-15,441L52,426L-3,348Z" fill="#a73023" stroke="#a73023" stroke-width="1.51"/><path d="M827,556L855,482L795,499Z" fill="#0d0401" stroke="#0d0401" stroke-width="1.51"/><path d="M844,307L857,-50L836,145Z" fill="#77423d" stroke="#77423d" stroke-width="1.51"/><path d="M94,-70L53,-76L45,1Z" fill="#e5442f" stroke="#e5442f" stroke-width="1.51"/><path d="M130,-77L53,-76L94,-70Z" fill="#e5422d" stroke="#e5422d" stroke-width="1.51"/><path d="M39,507L72,563L91,513Z" fill="#723126" stroke="#723126" stroke-width="1.51"/><path d="M39,507L22,552L72,563Z" fill="#702d22" stroke="#702d22" stroke-width="1.51"/><path d="M-44,422L-15,441L-3,348Z" fill="#a6291d" stroke="#a6291d" stroke-width="1.51"/><path d="M-72,323L-3,348L-3,283Z" fill="#cd2c21" stroke="#cd2c21" stroke-width="1.51"/><path d="M829,-15L857,-50L807,-52Z" fill="#6c2115" stroke="#6c2115" stroke-width="1.51"/><path d="M807,-52L857,-50L754,-58Z" fill="#6c1d11" stroke="#6c1d11" stroke-width="1.51"/><path d="M754,-58L857,-50L561,-76Z" fill="#841e11" stroke="#841e11" stroke-width="1.51"/><path d="M836,28L857,-50L829,-15Z" fill="#6e271b" stroke="#6e271b" stroke-width="1.51"/><path d="M855,482L857,-50L844,307Z" fill="#672b24" stroke="#672b24" stroke-width="1.51"/><path d="M-1,-36L1,-22L45,1Z" fill="#e5432f" stroke="#e5432f" stroke-width="1.51"/><path d="M757,567L827,556L796,545Z" fill="#0b0301" stroke="#0b0301" stroke-width="1.51"/><path d="M796,545L827,556L795,499Z" fill="#040100" stroke="#040100" stroke-width="1.51"/><path d="M53,-76L-1,-36L45,1Z" fill="#e4412c" stroke="#e4412c" stroke-width="1.51"/><path d="M1,-22L-55,64L-15,65Z" fill="#e84c37" stroke="#e84c37" stroke-width="1.51"/><path d="M-87,259L-72,323L-3,283Z" fill="#d12f23" stroke="#d12f23" stroke-width="1.51"/><path d="M-44,364L-44,422L-3,348Z" fill="#b2281c" stroke="#b2281c" stroke-width="1.51"/><path d="M-87,259L-3,283L-38,232Z" fill="#d73c2c" stroke="#d73c2c" stroke-width="1.51"/><path d="M-70,86L6,98L-15,65Z" fill="#ed5845" stroke="#ed5845" stroke-width="1.51"/><path d="M-84,-16L-55,64L1,-22Z" fill="#e43f2b" stroke="#e43f2b" stroke-width="1.51"/><path d="M-7,542L22,552L39,507Z" fill="#6f291e" stroke="#6f291e" stroke-width="1.51"/><path d="M-62,388L-44,422L-44,364Z" fill="#a92317" stroke="#a92317" stroke-width="1.51"/><path d="M-89,143L5,167L6,98Z" fill="#ef604e" stroke="#ef604e" stroke-width="1.51"/><path d="M-72,323L-62,388L-44,364Z" fill="#b92017" stroke="#b92017" stroke-width="1.51"/><path d="M-72,323L-77,562L-62,388Z" fill="#981d12" stroke="#981d12" stroke-width="1.51"/><path d="M-82,179L-87,259L-38,232Z" fill="#dc4030" stroke="#dc4030" stroke-width="1.51"/><path d="M-84,-16L-70,86L-55,64Z" fill="#e64531" stroke="#e64531" stroke-width="1.51"/><path d="M-55,64L-70,86L-15,65Z" fill="#ea513d" stroke="#ea513d" stroke-width="1.51"/><path d="M-7,542L39,507L-31,507Z" fill="#71271b" stroke="#71271b" stroke-width="1.51"/><path d="M41,464L-15,441L-31,507Z" fill="#882a1d" stroke="#882a1d" stroke-width="1.51"/><path d="M-70,86L-89,143L6,98Z" fill="#ee5b47" stroke="#ee5b47" stroke-width="1.51"/><path d="M-82,179L-89,143L-87,259Z" fill="#e04634" stroke="#e04634" stroke-width="1.51"/><path d="M-31,507L-15,441L-54,476Z" fill="#832517" stroke="#832517" stroke-width="1.51"/><path d="M-54,476L-15,441L-44,422Z" fill="#902518" stroke="#902518" stroke-width="1.51"/><path d="M-31,507L-53,508L-7,542Z" fill="#702216" stroke="#702216" stroke-width="1.51"/><path d="M-62,388L-54,476L-44,422Z" fill="#982216" stroke="#982216" stroke-width="1.51"/><path d="M-53,508L-54,476L-77,562Z" fill="#6f1e11" stroke="#6f1e11" stroke-width="1.51"/><path d="M-54,476L-53,508L-31,507Z" fill="#792114" stroke="#792114" stroke-width="1.51"/><path d="M-77,562L-54,476L-62,388Z" fill="#811f11" stroke="#811f11" stroke-width="1.51"/><path d="M-1,-36L-84,-16L1,-22Z" fill="#e13824" stroke="#e13824" stroke-width="1.51"/><path d="M-70,86L-84,-16L-89,143Z" fill="#e84b36" stroke="#e84b36" stroke-width="1.51"/><path d="M-78,-52L-84,-16L-1,-36Z" fill="#de2d1b" stroke="#de2d1b" stroke-width="1.51"/><path d="M53,-76L-78,-52L-1,-36Z" fill="#df311f" stroke="#df311f" stroke-width="1.51"/><path d="M-53,508L-77,562L-7,542Z" fill="#6b1f13" stroke="#6b1f13" stroke-width="1.51"/><path d="M-7,542L-77,562L22,552Z" fill="#6d2417" stroke="#6d2417" stroke-width="1.51"/><path d="M22,552L-77,562L72,563Z" fill="#6e271c" stroke="#6e271c" stroke-width="1.51"/><path d="M72,563L-77,562L193,573Z" fill="#723025" stroke="#723025" stroke-width="1.51"/><path d="M-87,259L-77,562L-72,323Z" fill="#ad1c12" stroke="#ad1c12" stroke-width="1.51"/></svg>