<?xml version="1.0" encoding="iso-8859-1"?>
<!-- Generator: Adobe Illustrator 18.1.1, SVG Export Plug-In . SVG Version: 6.00 Build 0)  -->
<svg version="1.1" id="Capa_1"
  xmlns="http://www.w3.org/2000/svg"
  xmlns:xlink="http://www.w3.org/1999/xlink" x="0px" y="0px" viewBox="0 0 572.833 572.833" style="enable-background:new 0 0 572.833 572.833;" xml:space="preserve">
  <g>
    <g>
      <path style="fill:#FFFFFF;fill-opacity:0.3" d="M520.813,253.368c5.304,0,9.791,1.836,13.464,5.508c3.672,3.672,5.508,8.16,5.508,13.464v281.519
			c0,5.713-1.836,10.305-5.508,13.771c-3.673,3.469-8.16,5.203-13.464,5.203H52.02c-5.304,0-9.792-1.734-13.464-5.203
			c-3.672-3.466-5.508-8.06-5.508-13.771V272.34c0-5.304,1.836-9.792,5.508-13.464s8.16-5.508,13.464-5.508h26.928h41.616v-80.172
			c0-23.664,4.59-46.104,13.77-67.32c9.18-21.216,21.522-39.576,37.026-55.08s33.762-27.846,54.774-37.026S269.688,0,293.76,0
			c23.664,0,45.798,4.488,66.402,13.464s38.76,21.114,54.468,36.414c15.708,15.3,28.152,33.252,37.332,53.854
			c9.18,20.604,13.974,42.738,14.382,66.402c0.408,0.408,0.612,1.428,0.612,3.06c0,4.08-1.326,7.548-3.979,10.404
			c-2.649,2.856-6.018,4.284-10.098,4.284h-0.612h-73.438c-4.08,0-7.446-1.428-10.098-4.284c-2.652-2.856-3.979-6.324-3.979-10.404
			c0-9.792-1.836-18.972-5.508-27.54s-8.772-16.116-15.3-22.644s-14.076-11.628-22.646-15.3c-8.565-3.672-17.748-5.508-27.54-5.508
			s-18.972,1.836-27.54,5.508c-8.568,3.672-16.116,8.771-22.644,15.3c-6.528,6.528-11.628,14.076-15.3,22.644
			s-5.508,17.748-5.508,27.54v80.172h175.032h96.084L520.813,253.368L520.813,253.368z"/>
    </g>
  </g>
  <g>
  </g>
  <g>
  </g>
  <g>
  </g>
  <g>
  </g>
  <g>
  </g>
  <g>
  </g>
  <g>
  </g>
  <g>
  </g>
  <g>
  </g>
  <g>
  </g>
  <g>
  </g>
  <g>
  </g>
  <g>
  </g>
  <g>
  </g>
  <g>
  </g>
</svg>
