<?xml version="1.0" encoding="iso-8859-1"?>
<!-- Generator: Adobe Illustrator 16.0.0, SVG Export Plug-In . SVG Version: 6.00 Build 0)  -->
<!DOCTYPE svg PUBLIC "-//W3C//DTD SVG 1.1//EN" "http://www.w3.org/Graphics/SVG/1.1/DTD/svg11.dtd">
<svg xmlns="http://www.w3.org/2000/svg"
  xmlns:xlink="http://www.w3.org/1999/xlink" version="1.1" id="Capa_1" x="0px" y="0px" width="512px" height="512px" viewBox="0 0 30.018 30.018" style="enable-background:new 0 0 30.018 30.018;" xml:space="preserve">
  <g>
    <g>
      <path d="M3.498,16.54L0,26.038h2.939l0.427-1.356h3.02l0.398,1.356h3.033L6.358,16.54H3.498z M4.004,22.646l0.918-2.927h0.026    L5.8,22.646H4.004z" fill="#FFFFFF" fill-opacity="0.8"/>
      <path d="M18.54,8.988c-0.149-0.191-0.325-0.348-0.524-0.473s-0.406-0.222-0.619-0.292c0.354-0.195,0.64-0.435,0.852-0.719    c0.213-0.283,0.32-0.665,0.32-1.144c0-0.24-0.041-0.499-0.121-0.778c-0.079-0.279-0.231-0.539-0.459-0.778    c-0.227-0.239-0.536-0.437-0.93-0.592c-0.396-0.156-0.904-0.233-1.525-0.233h-5.202v9.499h5.389c0.417,0,0.826-0.062,1.225-0.187    c0.397-0.124,0.754-0.306,1.062-0.545c0.311-0.239,0.561-0.539,0.752-0.898c0.191-0.359,0.285-0.778,0.285-1.258    c0-0.345-0.045-0.652-0.138-0.917C18.812,9.407,18.691,9.179,18.54,8.988z M13.259,6.24h1.542c0.302,0,0.544,0.049,0.726,0.147    C15.709,6.484,15.8,6.652,15.8,6.893c0,0.311-0.09,0.519-0.267,0.625c-0.177,0.107-0.422,0.16-0.732,0.16h-1.542V6.24z     M16.025,10.765c-0.062,0.115-0.146,0.206-0.252,0.272c-0.106,0.067-0.229,0.113-0.365,0.14c-0.139,0.026-0.283,0.04-0.434,0.04    h-1.716v-1.77h1.836c0.683,0,1.024,0.288,1.024,0.865C16.119,10.498,16.088,10.648,16.025,10.765z" fill="#FFFFFF" fill-opacity="0.8"/>
      <path d="M27.146,19.646c-0.047,0.222-0.104,0.431-0.181,0.625c-0.075,0.194-0.174,0.364-0.294,0.505    c-0.119,0.143-0.266,0.252-0.438,0.333c-0.172,0.08-0.385,0.119-0.633,0.119c-0.346,0-0.634-0.074-0.863-0.226    c-0.23-0.15-0.416-0.351-0.555-0.6c-0.137-0.248-0.235-0.527-0.297-0.837c-0.063-0.312-0.095-0.626-0.095-0.944    s0.031-0.635,0.095-0.944c0.062-0.312,0.16-0.591,0.297-0.839c0.139-0.248,0.323-0.447,0.555-0.599    c0.229-0.149,0.519-0.226,0.863-0.226c0.303,0,0.549,0.058,0.738,0.173c0.191,0.115,0.344,0.248,0.46,0.399    c0.114,0.15,0.195,0.305,0.238,0.459c0.045,0.156,0.075,0.276,0.094,0.365h2.849c-0.127-1.197-0.545-2.123-1.258-2.773    c-0.715-0.652-1.728-0.983-3.041-0.991c-0.736,0-1.398,0.119-1.988,0.359c-0.59,0.239-1.096,0.577-1.517,1.01    c-0.422,0.436-0.745,0.958-0.973,1.569c-0.226,0.612-0.339,1.291-0.339,2.035c0,0.701,0.107,1.356,0.318,1.963    c0.215,0.607,0.525,1.133,0.938,1.576c0.411,0.444,0.915,0.795,1.51,1.053c0.595,0.257,1.278,0.385,2.05,0.385    c0.691,0,1.309-0.115,1.85-0.346c0.539-0.23,0.994-0.535,1.363-0.912c0.367-0.377,0.646-0.799,0.838-1.27    c0.189-0.471,0.285-0.943,0.285-1.424L27.146,19.646L27.146,19.646z" fill="#FFFFFF" fill-opacity="0.8"/>
    </g>
  </g>
  <g>
  </g>
  <g>
  </g>
  <g>
  </g>
  <g>
  </g>
  <g>
  </g>
  <g>
  </g>
  <g>
  </g>
  <g>
  </g>
  <g>
  </g>
  <g>
  </g>
  <g>
  </g>
  <g>
  </g>
  <g>
  </g>
  <g>
  </g>
  <g>
  </g>
</svg>
