<svg viewBox="0 0 512 512" 
    xmlns="http://www.w3.org/2000/svg">
    <path d="m437.019531 74.980469c-48.351562-48.351563-112.640625-74.980469-181.019531-74.980469s-132.667969 26.628906-181.019531 74.980469c-48.351563 48.351562-74.980469 112.640625-74.980469 181.019531s26.628906 132.667969 74.980469 181.019531c48.351562 48.351563 112.640625 74.980469 181.019531 74.980469s132.667969-26.628906 181.019531-74.980469c48.351563-48.351562 74.980469-112.640625 74.980469-181.019531s-26.628906-132.667969-74.980469-181.019531zm-10.605469 351.433593c-45.519531 45.519532-106.039062 70.585938-170.414062 70.585938s-124.894531-25.066406-170.414062-70.585938c-45.519532-45.519531-70.585938-106.039062-70.585938-170.414062s25.066406-124.894531 70.585938-170.414062c45.519531-45.519532 106.039062-70.585938 170.414062-70.585938s124.894531 25.066406 170.414062 70.585938c45.519532 45.519531 70.585938 106.039062 70.585938 170.414062s-25.066406 124.894531-70.585938 170.414062zm0 0"/>
    <path d="m407.066406 104.933594c-40.351562-40.351563-94-62.574219-151.066406-62.574219s-110.714844 22.222656-151.066406 62.574219c-40.351563 40.351562-62.574219 94-62.574219 151.066406s22.222656 110.714844 62.574219 151.066406c40.351562 40.351563 94 62.574219 151.066406 62.574219s110.714844-22.222656 151.066406-62.574219c40.351563-40.351562 62.574219-94 62.574219-151.066406s-22.222656-110.714844-62.574219-151.066406zm-151.066406 349.707031c-109.53125 0-198.640625-89.109375-198.640625-198.640625s89.109375-198.640625 198.640625-198.640625 198.640625 89.109375 198.640625 198.640625-89.109375 198.640625-198.640625 198.640625zm0 0"/>
    <path d="m261.53125 174.730469c-13.773438-7.875-29.789062-9.910157-45.09375-5.734375-15.304688 4.171875-28.070312 14.058594-35.945312 27.832031-7.871094 13.773437-9.90625 29.789063-5.730469 45.097656 4.171875 15.304688 14.058593 28.070313 27.832031 35.941407 9.097656 5.199218 19.171875 7.851562 29.375 7.851562 5.246094 0 10.523438-.699219 15.71875-2.117188 15.308594-4.171874 28.074219-14.058593 35.945312-27.832031 7.871094-13.773437 9.90625-29.789062 5.734376-45.097656-4.175782-15.304687-14.058594-28.070313-27.835938-35.941406zm9.078125 73.59375c-5.886719 10.296875-15.425781 17.6875-26.867187 20.804687-11.441407 3.121094-23.410157 1.597656-33.707032-4.285156s-17.683594-15.425781-20.804687-26.867188c-3.121094-11.441406-1.597657-23.410156 4.285156-33.707031s15.425781-17.683593 26.867187-20.804687c3.882813-1.058594 7.828126-1.582032 11.75-1.582032 7.625 0 15.15625 1.980469 21.957032 5.871094 10.296875 5.882813 17.683594 15.421875 20.804687 26.863282 3.121094 11.441406 1.597657 23.410156-4.285156 33.707031zm0 0"/>
    <path d="m435.261719 184.800781-63.644531-34.636719c-2.714844-1.476562-6.003907-1.570312-8.800782-.253906-2.800781 1.320313-4.828125 3.929688-5.421875 6.972656-8.988281 46.25-36.785156 81.664063-66.210937 119.15625-29.523438 37.617188-60.054688 76.519532-69.417969 127.050782-.773437 4.160156 1.210937 8.3125 4.929687 10.335937l63.644532 34.632813c1.441406.785156 3.046875 1.179687 4.652344 1.179687 1.417968 0 2.835937-.308593 4.148437-.925781 2.800781-1.320312 4.828125-3.925781 5.421875-6.972656 8.988281-46.25 36.785156-81.660156 66.207031-119.152344 29.527344-37.621094 60.058594-76.519531 69.421875-127.054688.769532-4.15625-1.210937-8.308593-4.929687-10.332031zm-189.632813 221.851563-8.378906-4.558594c9.453125-45.085938 36.8125-79.945312 65.734375-116.792969 27.855469-35.492187 56.613281-72.132812 67.632813-118.601562l8.367187 4.554687c-9.445313 45.070313-36.808594 79.953125-65.726563 116.796875-27.859374 35.496094-56.601562 72.125-67.628906 118.601563zm23.632813 12.863281-9.941407-5.410156c9.449219-45.074219 36.820313-79.953125 65.738282-116.792969 27.859375-35.5 56.605468-72.125 67.632812-118.601562l9.941406 5.410156c-9.445312 45.078125-36.816406 79.949218-65.734374 116.792968-27.859376 35.496094-56.605469 72.125-67.636719 118.601563zm89.707031-106.589844c-27.851562 35.488281-56.609375 72.132813-67.632812 118.597657l-8.363282-4.550782c9.445313-45.074218 36.808594-79.953125 65.722656-116.796875 27.863282-35.496093 56.601563-72.128906 67.628907-118.605469l8.378906 4.5625c-9.453125 45.085938-36.8125 79.945313-65.734375 116.792969zm0 0"/>
    <path d="m212.003906 349.675781c-19.5625-3.195312-36.699218-15.644531-54.839844-28.828125-3.964843-2.878906-8.0625-5.855468-12.195312-8.742187-8.488281-5.917969-17.246094-8.300781-24.972656-10.40625-15.566406-4.234375-26.808594-7.292969-34.636719-36-9.003906-33.011719 7.832031-50.660157 24.113281-67.726563 5.988282-6.28125 11.644532-12.207031 15.773438-18.707031 6.550781-10.3125 7.976562-21.574219 9.234375-31.511719 2.398437-18.976562 4.292969-33.960937 38.1875-43.203125 37.25-10.160156 53.695312 2.421875 74.519531 18.351563 5.695312 4.355468 11.578125 8.859375 18.210938 13.160156 6.875 4.460938 13.691406 7.3125 20.28125 10.074219 16.589843 6.945312 30.917968 12.941406 41.414062 44.308593 1.3125 3.929688 5.5625 6.050782 9.492188 4.734376 3.929687-1.316407 6.046874-5.566407 4.730468-9.492188-12.652344-37.816406-31.558594-45.734375-49.84375-53.386719-6.257812-2.621093-12.164062-5.09375-17.910156-8.820312-6.144531-3.988281-11.792969-8.308594-17.257812-12.492188-22.203126-16.980469-43.167969-33.019531-87.582032-20.910156-43.570312 11.878906-46.523437 35.210937-49.125 55.792969-1.164062 9.191406-2.261718 17.871094-7.011718 25.347656-3.339844 5.257812-8.503907 10.667969-13.96875 16.398438-17.359376 18.195312-38.960938 40.84375-27.730469 82.027343 10.082031 36.980469 28.722656 42.050781 45.167969 46.527344 7.1875 1.957031 13.976562 3.804687 20.328124 8.234375 4.015626 2.804688 8.058594 5.738281 11.964844 8.574219 18.757813 13.632812 38.15625 27.726562 61.234375 31.496093.410157.070313.816407.101563 1.21875.101563 3.609375 0 6.792969-2.613281 7.390625-6.292969.671875-4.085937-2.101562-7.941406-6.1875-8.609375zm0 0"/>
</svg>