<?xml version="1.0" encoding="iso-8859-1"?>
<!-- Generator: Adobe Illustrator 18.0.0, SVG Export Plug-In . SVG Version: 6.00 Build 0)  -->
<!DOCTYPE svg PUBLIC "-//W3C//DTD SVG 1.1//EN" "http://www.w3.org/Graphics/SVG/1.1/DTD/svg11.dtd">
<svg version="1.1" id="Capa_1"
	xmlns="http://www.w3.org/2000/svg"
	xmlns:xlink="http://www.w3.org/1999/xlink" x="0px" y="0px" viewBox="0 0 57 57" style="enable-background:new 0 0 57 57;" xml:space="preserve">
	<g>
		<path d="M48,8.5h-2.181h-1.206h-8.186h-1.206H23.762H9c-4.962,0-9,4.037-9,9v6c0,2.402,0.946,4.665,2.665,6.37
		C3.513,30.712,4,31.971,4,33.322v7.15c0,4.427,3.601,8.027,8.027,8.027h7.531h26.288c3.945,0,7.154-3.209,7.154-7.153v-7.796
		c0-1.467,0.538-2.839,1.515-3.864C56.117,28.005,57,25.808,57,23.5v-6C57,12.537,52.962,8.5,48,8.5z M45.819,10.5
		c0.065,0,0.11,0.019,0.122,0.029c1.096,0.979,1.333,2.299,0.724,4.037c-0.013,0.035-0.042,0.159-0.208,0.136
		c-0.161-0.006-0.192-0.116-0.202-0.152c-0.35-1.268-0.962-2.516-1.82-3.711c-0.05-0.07-0.056-0.145-0.017-0.221
		c0.027-0.054,0.084-0.118,0.196-0.118H45.819z M36.427,10.5c0.065,0,0.11,0.019,0.122,0.029c1.096,0.979,1.333,2.299,0.723,4.036
		c-0.012,0.035-0.029,0.16-0.208,0.137c-0.161-0.006-0.192-0.116-0.202-0.152c-0.35-1.268-0.962-2.516-1.82-3.711
		c-0.05-0.07-0.056-0.145-0.017-0.221c0.027-0.054,0.084-0.118,0.196-0.118H36.427z M12.027,46.5C8.704,46.5,6,43.796,6,40.473
		v-7.15c0-1.881-0.702-3.657-1.926-4.872C2.736,27.123,2,25.365,2,23.5v-6c0-3.859,3.14-7,7-7h14.762C26.65,10.5,29,12.85,29,15.738
		V23.5c0,1.865-0.736,3.623-2.073,4.95C25.684,29.683,25,31.247,25,32.854v8.203c0,3.001-2.441,5.442-5.442,5.442H12.027z M55,23.5
		c0,1.791-0.687,3.499-1.934,4.808C51.734,29.706,51,31.568,51,33.551v7.796c0,2.842-2.312,5.153-5.154,5.153H24.617
		C26.079,45.14,27,43.207,27,41.058v-8.203c0-1.07,0.474-2.13,1.335-2.984C30.054,28.165,31,25.902,31,23.5v-7.762
		c0-2.061-0.87-3.919-2.257-5.238h4.288c-0.052,0.525,0.067,1.059,0.388,1.505c0.72,1.003,1.23,2.038,1.517,3.077
		c0.259,0.936,1.087,1.586,2.063,1.619c0.027,0.001,0.054,0.001,0.081,0.001c0.954,0,1.766-0.572,2.082-1.475
		c0.63-1.797,0.572-3.398-0.132-4.728h3.394c-0.052,0.525,0.067,1.059,0.388,1.505c0.72,1.003,1.23,2.038,1.517,3.077
		c0.263,0.95,1.072,1.586,2.062,1.619c0.027,0.001,0.054,0.001,0.082,0.001c0.954,0,1.766-0.571,2.083-1.475v-0.001
		c0.626-1.788,0.571-3.38-0.122-4.705C52.09,10.746,55,13.786,55,17.5V23.5z"/>
		<path d="M47,29.5h-9c-0.552,0-1,0.447-1,1s0.448,1,1,1h9c0.552,0,1-0.447,1-1S47.552,29.5,47,29.5z"/>
		<path d="M34,29.5h-2c-0.552,0-1,0.447-1,1s0.448,1,1,1h2c0.552,0,1-0.447,1-1S34.552,29.5,34,29.5z"/>
		<path d="M11.207,35.707l1.5-1.5c0.391-0.391,0.391-1.023,0-1.414s-1.023-0.391-1.414,0l-1.5,1.5c-0.391,0.391-0.391,1.023,0,1.414
		C9.988,35.902,10.244,36,10.5,36S11.012,35.902,11.207,35.707z"/>
		<path d="M18.593,28.893c0.302,0,0.6-0.136,0.796-0.395c0.335-0.439,0.25-1.066-0.189-1.401l-1.688-1.285
		c-0.44-0.335-1.067-0.25-1.401,0.19c-0.335,0.439-0.25,1.066,0.189,1.401l1.688,1.285C18.169,28.826,18.382,28.893,18.593,28.893z" />
		<path d="M11.918,40.419c-0.44-0.335-1.067-0.249-1.401,0.19c-0.335,0.439-0.25,1.066,0.189,1.401l1.688,1.285
		c0.181,0.138,0.394,0.204,0.605,0.204c0.302,0,0.6-0.136,0.796-0.395c0.335-0.439,0.25-1.066-0.189-1.401L11.918,40.419z"/>
		<path d="M21.131,37.556c-0.157-0.53-0.714-0.825-1.244-0.674l-2.033,0.604c-0.529,0.158-0.831,0.715-0.673,1.244
		c0.129,0.435,0.527,0.715,0.958,0.715c0.094,0,0.19-0.014,0.286-0.041l2.033-0.604C20.987,38.642,21.289,38.085,21.131,37.556z"/>
		<path d="M7.034,17.707l1.5-1.5c0.391-0.391,0.391-1.023,0-1.414s-1.023-0.391-1.414,0l-1.5,1.5c-0.391,0.391-0.391,1.023,0,1.414
		C5.815,17.902,6.071,18,6.327,18S6.839,17.902,7.034,17.707z"/>
		<path d="M9.433,23.704l-1.688-1.285c-0.44-0.335-1.067-0.249-1.401,0.19c-0.335,0.439-0.25,1.066,0.189,1.401l1.688,1.285
		C8.402,25.434,8.615,25.5,8.826,25.5c0.302,0,0.6-0.136,0.796-0.395C9.958,24.666,9.873,24.039,9.433,23.704z"/>
		<path d="M25.019,24.903c0.055,0,0.111-0.005,0.167-0.014c0.544-0.092,0.912-0.608,0.819-1.152l-0.353-2.092
		c-0.092-0.545-0.603-0.909-1.152-0.82c-0.544,0.092-0.912,0.608-0.819,1.152l0.353,2.092C24.116,24.558,24.54,24.903,25.019,24.903
		z"/>
		<path d="M16.958,19.556c-0.157-0.529-0.714-0.825-1.244-0.674l-2.033,0.604c-0.529,0.158-0.831,0.715-0.673,1.244
		c0.129,0.435,0.527,0.715,0.958,0.715c0.094,0,0.19-0.014,0.286-0.041l2.033-0.604C16.814,20.642,17.116,20.085,16.958,19.556z"/>
		<path d="M19.638,16.433l1.978,0.768c0.119,0.046,0.241,0.067,0.362,0.067c0.4,0,0.779-0.242,0.932-0.638
		c0.2-0.516-0.055-1.095-0.57-1.295l-1.978-0.768c-0.515-0.199-1.095,0.056-1.294,0.57C18.868,15.653,19.123,16.232,19.638,16.433z" />
	</g>
	<g>
	</g>
	<g>
	</g>
	<g>
	</g>
	<g>
	</g>
	<g>
	</g>
	<g>
	</g>
	<g>
	</g>
	<g>
	</g>
	<g>
	</g>
	<g>
	</g>
	<g>
	</g>
	<g>
	</g>
	<g>
	</g>
	<g>
	</g>
	<g>
	</g>
</svg>
