<?xml version="1.0" encoding="iso-8859-1"?>
<!-- Generator: Adobe Illustrator 19.0.0, SVG Export Plug-In . SVG Version: 6.00 Build 0)  -->
<svg version="1.1" id="Capa_1" 
	xmlns="http://www.w3.org/2000/svg" 
	xmlns:xlink="http://www.w3.org/1999/xlink" x="0px" y="0px" viewBox="0 0 512.001 512.001" style="enable-background:new 0 0 512.001 512.001;" xml:space="preserve">
	<g>
		<g>
			<path d="M353.197,147.445H158.805c-4.142,0-7.5,3.357-7.5,7.5s3.358,7.5,7.5,7.5h194.393c4.142,0,7.5-3.357,7.5-7.5
			S357.34,147.445,353.197,147.445z"/>
		</g>
	</g>
	<g>
		<g>
			<path d="M474.639,95.686h-6.053h-77.797V33.579C390.789,15.064,375.725,0,357.209,0H154.793c-18.516,0-33.58,15.064-33.58,33.579
			v62.107H43.417h-6.053c-10.753,0-19.501,8.749-19.501,19.501v6.053c0,7.101,0,325.747,0,332.642
			c0,10.753,8.749,19.501,19.501,19.501h23.668v13.062c0,14.092,11.464,25.556,25.555,25.556h24.072
			c14.091,0,25.555-11.464,25.555-25.556v-13.062h239.574v13.062c0,14.092,11.464,25.556,25.555,25.556h24.072
			c14.091,0,25.555-11.464,25.555-25.556v-13.062h23.668c10.753,0,19.501-8.749,19.501-19.501V302.036c0-4.143-3.358-7.5-7.5-7.5
			c-4.142,0-7.5,3.357-7.5,7.5v151.846c0,2.439-2.061,4.5-4.5,4.5c-3.905,0-433.315,0-437.275,0c-2.439,0-4.5-2.061-4.5-4.5V203.351
			l172.025,80.571c-0.002,0.127-0.019,0.25-0.019,0.378v26.149c0,10.753,8.749,19.501,19.501,19.501h14.13
			c4.142,0,7.5-3.357,7.5-7.5s-3.358-7.5-7.5-7.5h-14.13c-2.439,0-4.5-2.061-4.5-4.5V284.3c0-2.466,2.094-4.5,4.5-4.5
			c6.898,0,56.837,0,63.262,0c2.421,0,4.5,2.047,4.5,4.5v26.149c0,2.439-2.061,4.5-4.5,4.5h-14.13c-4.142,0-7.5,3.357-7.5,7.5
			s3.358,7.5,7.5,7.5h14.13c10.753,0,19.501-8.748,19.501-19.501V284.3c0-0.128-0.017-0.251-0.019-0.378l172.025-80.571v63.683
			c0,4.143,3.358,7.5,7.5,7.5c4.142,0,7.5-3.357,7.5-7.5c0-4.359,0-134.829,0-145.794v-6.053
			C494.14,104.434,485.391,95.686,474.639,95.686z M390.789,473.383h45.18v13.062c0,5.819-4.734,10.555-10.554,10.555h-24.072
			c-5.819,0-10.554-4.734-10.554-10.555V473.383z M76.034,473.383h45.18v13.062c0,5.819-4.734,10.555-10.554,10.555H86.587
			c-5.819,0-10.554-4.734-10.554-10.555V473.383z M136.214,33.579c0-10.244,8.334-18.578,18.579-18.578h202.415
			c10.245,0,18.579,8.334,18.579,18.578v62.107h-15.09V37.591c0-4.143-3.358-7.5-7.5-7.5H158.805c-4.142,0-7.5,3.357-7.5,7.5v58.095
			h-15.09V33.579z M345.697,45.092v50.594H166.305V45.092H345.697z M479.139,186.785l-178.063,83.4
			c-3.45-3.29-8.301-5.386-13.445-5.386c-6.545,0-56.712,0-63.262,0c-5.001,0-9.915,2.019-13.445,5.386l-178.062-83.4v-65.546
			c0-5.818,4.734-10.554,10.554-10.554c4.361,0,420.271,0,425.169,0c5.819,0,10.554,4.734,10.554,10.554V186.785z"/>
		</g>
	</g>
	<g>
	</g>
	<g>
	</g>
	<g>
	</g>
	<g>
	</g>
	<g>
	</g>
	<g>
	</g>
	<g>
	</g>
	<g>
	</g>
	<g>
	</g>
	<g>
	</g>
	<g>
	</g>
	<g>
	</g>
	<g>
	</g>
	<g>
	</g>
	<g>
	</g>
</svg>
