<?xml version="1.0" encoding="iso-8859-1"?>
<!-- Generator: Adobe Illustrator 18.0.0, SVG Export Plug-In . SVG Version: 6.00 Build 0)  -->
<!DOCTYPE svg PUBLIC "-//W3C//DTD SVG 1.1//EN" "http://www.w3.org/Graphics/SVG/1.1/DTD/svg11.dtd">
<svg version="1.1" id="Capa_1" 
	xmlns="http://www.w3.org/2000/svg" 
	xmlns:xlink="http://www.w3.org/1999/xlink" x="0px" y="0px" viewBox="0 0 58 58" style="enable-background:new 0 0 58 58;" xml:space="preserve">
	<g>
		<path d="M57,50.5h-2v-11c0-1.654-1.346-3-3-3h-1v-11c0-1.654-1.346-3-3-3h-1v-1v-2.834v-4.332V11.5c0-1.654-1.346-3-3-3h-4.475
		h-0.051H29.025h-0.051H18.525h-0.051H14c-1.654,0-3,1.346-3,3v2.834v4.332V21.5v1h-1c-1.654,0-3,1.346-3,3v11H6
		c-1.654,0-3,1.346-3,3v11H1c-0.553,0-1,0.447-1,1s0.447,1,1,1h3h50h3c0.553,0,1-0.447,1-1S57.553,50.5,57,50.5z M18.5,12.609
		c1.108,1.742,3.046,2.891,5.25,2.891s4.142-1.149,5.25-2.891c1.108,1.742,3.046,2.891,5.25,2.891s4.142-1.149,5.25-2.891
		c1.108,1.742,3.046,2.891,5.25,2.891c0.081,0,0.167-0.013,0.25-0.017v2.033c-0.083-0.004-0.169-0.017-0.25-0.017
		c-2.204,0-4.142,1.149-5.25,2.891c-1.108-1.742-3.046-2.891-5.25-2.891s-4.142,1.149-5.25,2.891
		c-1.108-1.742-3.046-2.891-5.25-2.891s-4.142,1.149-5.25,2.891c-1.108-1.742-3.046-2.891-5.25-2.891
		c-0.081,0-0.167,0.013-0.25,0.017v-2.033c0.083,0.004,0.169,0.017,0.25,0.017C15.454,15.5,17.392,14.351,18.5,12.609z M13,21.5
		v-1.99c0.085-0.007,0.168-0.01,0.25-0.01c1.898,0,3.512,1.254,4.045,3H14C13.448,22.5,13,22.052,13,21.5z M23.75,19.5
		c1.898,0,3.512,1.254,4.045,3h-8.09C20.238,20.754,21.852,19.5,23.75,19.5z M34.25,19.5c1.898,0,3.512,1.254,4.045,3h-8.09
		C30.738,20.754,32.352,19.5,34.25,19.5z M44.75,19.5c0.082,0,0.165,0.003,0.25,0.01v1.99c0,0.552-0.448,1-1,1h-3.295
		C41.238,20.754,42.852,19.5,44.75,19.5z M44,10.5c0.552,0,1,0.448,1,1v1.99c-0.085,0.007-0.168,0.01-0.25,0.01
		c-1.898,0-3.513-1.254-4.045-3H44z M38.295,10.5c-0.532,1.746-2.146,3-4.045,3s-3.513-1.254-4.045-3H38.295z M27.795,10.5
		c-0.532,1.746-2.146,3-4.045,3s-3.513-1.254-4.045-3H27.795z M13,11.5c0-0.552,0.448-1,1-1h3.295c-0.532,1.746-2.146,3-4.045,3
		c-0.082,0-0.165-0.003-0.25-0.01V11.5z M9,25.5c0-0.552,0.448-1,1-1h2h2h4.475h0.051h10.449h0.051h10.449h0.051H44h2h2
		c0.552,0,1,0.448,1,1v11H9V25.5z M5,39.5c0-0.552,0.448-1,1-1h2h42h2c0.552,0,1,0.448,1,1v1.75c0,2.895-2.355,5.25-5.25,5.25
		s-5.25-2.355-5.25-5.25c0-0.553-0.447-1-1-1s-1,0.447-1,1c0,2.895-2.355,5.25-5.25,5.25S30,44.145,30,41.25c0-0.553-0.447-1-1-1
		s-1,0.447-1,1c0,2.895-2.355,5.25-5.25,5.25s-5.25-2.355-5.25-5.25c0-0.553-0.447-1-1-1s-1,0.447-1,1c0,2.895-2.355,5.25-5.25,5.25
		S5,44.145,5,41.25V39.5z M5,50.5v-4.264c1.322,1.391,3.184,2.264,5.25,2.264c2.664,0,4.99-1.448,6.25-3.593
		c1.26,2.146,3.586,3.593,6.25,3.593s4.99-1.448,6.25-3.593c1.26,2.146,3.586,3.593,6.25,3.593s4.99-1.448,6.25-3.593
		c1.26,2.146,3.586,3.593,6.25,3.593c2.066,0,3.928-0.873,5.25-2.264V50.5H5z"/>
		<path d="M53,53.5H5c-0.553,0-1,0.447-1,1s0.447,1,1,1h48c0.553,0,1-0.447,1-1S53.553,53.5,53,53.5z"/>
		<path d="M11,26.5c-0.553,0-1,0.447-1,1v6c0,0.553,0.447,1,1,1s1-0.447,1-1v-6C12,26.947,11.553,26.5,11,26.5z"/>
		<path d="M15,26.5c-0.553,0-1,0.447-1,1v6c0,0.553,0.447,1,1,1s1-0.447,1-1v-6C16,26.947,15.553,26.5,15,26.5z"/>
		<path d="M19,26.5c-0.553,0-1,0.447-1,1v6c0,0.553,0.447,1,1,1s1-0.447,1-1v-6C20,26.947,19.553,26.5,19,26.5z"/>
		<path d="M23,26.5c-0.553,0-1,0.447-1,1v6c0,0.553,0.447,1,1,1s1-0.447,1-1v-6C24,26.947,23.553,26.5,23,26.5z"/>
		<path d="M27,26.5c-0.553,0-1,0.447-1,1v6c0,0.553,0.447,1,1,1s1-0.447,1-1v-6C28,26.947,27.553,26.5,27,26.5z"/>
		<path d="M31,26.5c-0.553,0-1,0.447-1,1v6c0,0.553,0.447,1,1,1s1-0.447,1-1v-6C32,26.947,31.553,26.5,31,26.5z"/>
		<path d="M35,26.5c-0.553,0-1,0.447-1,1v6c0,0.553,0.447,1,1,1s1-0.447,1-1v-6C36,26.947,35.553,26.5,35,26.5z"/>
		<path d="M39,26.5c-0.553,0-1,0.447-1,1v6c0,0.553,0.447,1,1,1s1-0.447,1-1v-6C40,26.947,39.553,26.5,39,26.5z"/>
		<path d="M43,26.5c-0.553,0-1,0.447-1,1v6c0,0.553,0.447,1,1,1s1-0.447,1-1v-6C44,26.947,43.553,26.5,43,26.5z"/>
		<path d="M47,26.5c-0.553,0-1,0.447-1,1v6c0,0.553,0.447,1,1,1s1-0.447,1-1v-6C48,26.947,47.553,26.5,47,26.5z"/>
		<path d="M16.293,7.207C16.488,7.402,16.744,7.5,17,7.5s0.512-0.098,0.707-0.293L18.5,6.414l0.793,0.793
		C19.488,7.402,19.744,7.5,20,7.5s0.512-0.098,0.707-0.293c0.391-0.391,0.391-1.023,0-1.414L19.914,5l0.793-0.793
		c0.391-0.391,0.391-1.023,0-1.414s-1.023-0.391-1.414,0L18.5,3.586l-0.793-0.793c-0.391-0.391-1.023-0.391-1.414,0
		s-0.391,1.023,0,1.414L17.086,5l-0.793,0.793C15.902,6.184,15.902,6.816,16.293,7.207z"/>
		<path d="M23.293,7.207C23.488,7.402,23.744,7.5,24,7.5s0.512-0.098,0.707-0.293L25.5,6.414l0.793,0.793
		C26.488,7.402,26.744,7.5,27,7.5s0.512-0.098,0.707-0.293c0.391-0.391,0.391-1.023,0-1.414L26.914,5l0.793-0.793
		c0.391-0.391,0.391-1.023,0-1.414s-1.023-0.391-1.414,0L25.5,3.586l-0.793-0.793c-0.391-0.391-1.023-0.391-1.414,0
		s-0.391,1.023,0,1.414L24.086,5l-0.793,0.793C22.902,6.184,22.902,6.816,23.293,7.207z"/>
		<path d="M30.293,7.207C30.488,7.402,30.744,7.5,31,7.5s0.512-0.098,0.707-0.293L32.5,6.414l0.793,0.793
		C33.488,7.402,33.744,7.5,34,7.5s0.512-0.098,0.707-0.293c0.391-0.391,0.391-1.023,0-1.414L33.914,5l0.793-0.793
		c0.391-0.391,0.391-1.023,0-1.414s-1.023-0.391-1.414,0L32.5,3.586l-0.793-0.793c-0.391-0.391-1.023-0.391-1.414,0
		s-0.391,1.023,0,1.414L31.086,5l-0.793,0.793C29.902,6.184,29.902,6.816,30.293,7.207z"/>
		<path d="M37.293,7.207C37.488,7.402,37.744,7.5,38,7.5s0.512-0.098,0.707-0.293L39.5,6.414l0.793,0.793
		C40.488,7.402,40.744,7.5,41,7.5s0.512-0.098,0.707-0.293c0.391-0.391,0.391-1.023,0-1.414L40.914,5l0.793-0.793
		c0.391-0.391,0.391-1.023,0-1.414s-1.023-0.391-1.414,0L39.5,3.586l-0.793-0.793c-0.391-0.391-1.023-0.391-1.414,0
		s-0.391,1.023,0,1.414L38.086,5l-0.793,0.793C36.902,6.184,36.902,6.816,37.293,7.207z"/>
	</g>
	<g>
	</g>
	<g>
	</g>
	<g>
	</g>
	<g>
	</g>
	<g>
	</g>
	<g>
	</g>
	<g>
	</g>
	<g>
	</g>
	<g>
	</g>
	<g>
	</g>
	<g>
	</g>
	<g>
	</g>
	<g>
	</g>
	<g>
	</g>
	<g>
	</g>
</svg>
