<?xml version="1.0" encoding="iso-8859-1"?>
<!-- Generator: Adobe Illustrator 19.0.0, SVG Export Plug-In . SVG Version: 6.00 Build 0)  -->
<svg version="1.1" id="Capa_1" 
	xmlns="http://www.w3.org/2000/svg" 
	xmlns:xlink="http://www.w3.org/1999/xlink" x="0px" y="0px" viewBox="0 0 512 512" style="enable-background:new 0 0 512 512;" xml:space="preserve">
	<g>
		<g>
			<path d="M256.312,42.519c-162.58,0-267.814,176.467-183.302,321.861c82.561,138.705,283.61,139.437,366.606,0
			c20.727-35.659,30.064-72.89,30.064-108.493C469.68,139.268,374.714,42.519,256.312,42.519z M431.429,348.319l-17.993-10.388
			c-3.593-2.074-8.185-0.844-10.258,2.748c-2.074,3.592-0.843,8.185,2.749,10.258l17.962,10.37
			c-15.837,25.038-37.125,46.296-62.187,62.099L351.362,405.5c-2.074-3.593-6.667-4.82-10.258-2.749
			c-3.592,2.074-4.822,6.667-2.748,10.258l10.346,17.921c-25.521,13.509-54.326,21.603-84.881,22.747v-20.696
			c0-4.148-3.362-7.51-7.51-7.51c-4.147,0-7.51,3.361-7.51,7.51v20.696c-30.555-1.144-59.36-9.238-84.881-22.747l10.346-17.921
			c2.074-3.592,0.843-8.184-2.749-10.258c-3.593-2.073-8.184-0.844-10.258,2.749l-10.339,17.907
			c-25.061-15.804-46.349-37.061-62.187-62.099l17.962-10.37c3.592-2.074,4.822-6.667,2.748-10.258
			c-2.074-3.592-6.667-4.821-10.258-2.748l-17.993,10.388c-13.556-25.525-21.692-54.345-22.867-84.922h20.889
			c4.147,0,7.51-3.361,7.51-7.51c0-4.148-3.362-7.51-7.51-7.51H58.313c1.115-30.604,9.203-59.456,22.721-85.017l18.155,10.481
			c1.182,0.683,2.474,1.007,3.748,1.007c2.595,0,5.12-1.348,6.51-3.756c2.074-3.592,0.843-8.184-2.749-10.258l-18.146-10.476
			c15.821-25.109,37.115-46.433,62.201-62.288l10.508,18.201c1.391,2.409,3.915,3.756,6.51,3.756c1.274,0,2.565-0.324,3.748-1.007
			c3.592-2.074,4.822-6.667,2.748-10.258l-10.523-18.227c25.565-13.565,54.432-21.694,85.058-22.841v21.097
			c0,4.147,3.362,7.51,7.51,7.51c4.147,0,7.51-3.362,7.51-7.51V57.695c30.626,1.147,59.493,9.275,85.058,22.841l-10.523,18.227
			c-2.074,3.592-0.843,8.184,2.748,10.258c1.183,0.683,2.474,1.007,3.748,1.007c2.595,0,5.12-1.348,6.51-3.756l10.508-18.201
			c25.086,15.854,46.38,37.179,62.202,62.288l-18.146,10.476c-3.592,2.074-4.822,6.667-2.749,10.258
			c1.391,2.409,3.915,3.756,6.51,3.756c1.274,0,2.565-0.324,3.748-1.007l18.155-10.481c13.518,25.561,21.605,54.413,22.721,85.017
			h-20.905c-4.147,0-7.51,3.361-7.51,7.51c0,4.148,3.362,7.51,7.51,7.51h20.889C453.12,293.974,444.985,322.794,431.429,348.319z"/>
		</g>
	</g>
	<g>
		<g>
			<path d="M368.149,250.576l-23.439-23.439c-2.933-2.932-7.688-2.932-10.62,0c-2.933,2.934-2.933,7.688,0,10.621l10.723,10.723
			h-52.706v-9.063c0-10.766-8.759-19.525-19.525-19.525h-8.759v-90.239l10.723,10.724c1.466,1.467,3.388,2.2,5.31,2.2
			s3.844-0.733,5.31-2.2c2.933-2.933,2.933-7.688,0-10.62l-23.44-23.44c-1.408-1.409-3.318-2.2-5.31-2.2
			c-1.992,0-3.902,0.791-5.31,2.2l-23.44,23.44c-2.933,2.933-2.933,7.688,0,10.62c2.933,2.933,7.688,2.933,10.62,0l10.517-10.517
			v90.033h-8.759c-10.766,0-19.525,8.759-19.525,19.525v32.537c0,10.766,8.759,19.525,19.525,19.525h32.537
			c10.766,0,19.525-8.759,19.525-19.525v-8.455h52.501l-10.516,10.516c-2.933,2.933-2.933,7.688,0,10.62
			c1.466,1.467,3.388,2.2,5.31,2.2s3.844-0.733,5.31-2.199l23.44-23.439c1.409-1.409,2.2-3.318,2.2-5.311
			C370.349,253.895,369.558,251.985,368.149,250.576z M277.086,271.955c0,2.442-2.064,4.506-4.506,4.506h-32.537
			c-2.442,0-4.506-2.064-4.506-4.506v-32.537c0-2.442,2.064-4.506,4.506-4.506h32.537c2.442,0,4.506,2.064,4.506,4.506V271.955z"/>
		</g>
	</g>
	<g>
		<g>
			<path d="M511.981,237.64C503.095,110.558,401.193,8.885,274.358,0.018c-4.132-0.279-7.726,2.831-8.015,6.968
			c-0.288,4.137,2.831,7.726,6.968,8.015c119.189,8.333,215.354,104.498,223.687,223.687c0.277,3.959,3.575,6.986,7.484,6.986
			c0.176,0,0.353-0.006,0.532-0.019C509.15,245.366,512.27,241.778,511.981,237.64z"/>
		</g>
	</g>
	<g>
		<g>
			<path d="M505.013,265.718c-4.131-0.296-7.726,2.83-8.015,6.967C488.204,398.458,382.481,496.98,256.312,496.98
			c-133.049,0-241.293-108.243-241.293-241.293c0-126.17,98.522-231.892,224.294-240.686c4.137-0.289,7.257-3.878,6.968-8.015
			c-0.289-4.137-3.881-7.242-8.015-6.968C104.85,9.347,0,120.802,0,255.687c0,141.331,114.981,256.312,256.312,256.312
			c134.844,0,246.336-104.813,255.669-238.266C512.27,269.595,509.151,266.007,505.013,265.718z"/>
		</g>
	</g>
	<g>
	</g>
	<g>
	</g>
	<g>
	</g>
	<g>
	</g>
	<g>
	</g>
	<g>
	</g>
	<g>
	</g>
	<g>
	</g>
	<g>
	</g>
	<g>
	</g>
	<g>
	</g>
	<g>
	</g>
	<g>
	</g>
	<g>
	</g>
	<g>
	</g>
</svg>
