<?xml version="1.0" encoding="iso-8859-1"?>
<!-- Generator: Adobe Illustrator 18.0.0, SVG Export Plug-In . SVG Version: 6.00 Build 0)  -->
<!DOCTYPE svg PUBLIC "-//W3C//DTD SVG 1.1//EN" "http://www.w3.org/Graphics/SVG/1.1/DTD/svg11.dtd">
<svg version="1.1" id="Capa_1" 
	xmlns="http://www.w3.org/2000/svg" 
	xmlns:xlink="http://www.w3.org/1999/xlink" x="0px" y="0px" viewBox="0 0 48.349 48.349" style="enable-background:new 0 0 48.349 48.349;" xml:space="preserve">
	<g>
		<path d="M40.422,7.803C30.313-2.306,18.548-2.609,8.951,6.99c-9.823,9.823-11.021,32.635-5.695,37.962
		c2.102,2.155,6.327,3.361,11.9,3.396c0.078,0,0.156,0,0.235,0c8.387,0,19.562-2.792,25.844-9.074
		C50.833,29.675,50.53,17.91,40.422,7.803z M39.821,37.86c-5.877,5.877-16.454,8.489-24.425,8.488c-0.076,0-0.152,0-0.228,0
		c-4.888-0.031-8.807-1.075-10.49-2.801c-2.164-2.165-3.093-8.651-2.257-15.775c0.951-8.104,3.92-15.345,7.943-19.368
		c4.287-4.287,8.949-6.426,13.682-6.426c5.03,0,10.14,2.417,14.962,7.239C48.368,18.577,48.664,29.017,39.821,37.86z"/>
		<path d="M12.079,12.01c-0.35,0.515-8.529,12.792-5.022,28.402c0.104,0.465,0.518,0.781,0.975,0.781c0.072,0,0.146-0.008,0.22-0.024
		c0.539-0.121,0.878-0.656,0.757-1.195c-3.312-14.741,4.646-26.721,4.726-26.84c0.31-0.457,0.19-1.079-0.266-1.389
		C13.01,11.435,12.39,11.553,12.079,12.01z"/>
		<circle cx="27.141" cy="9.68" r="2.298"/>
		<circle cx="34.028" cy="10.947" r="2.298"/>
		<circle cx="29.154" cy="15.822" r="2.298"/>
	</g>
	<g>
	</g>
	<g>
	</g>
	<g>
	</g>
	<g>
	</g>
	<g>
	</g>
	<g>
	</g>
	<g>
	</g>
	<g>
	</g>
	<g>
	</g>
	<g>
	</g>
	<g>
	</g>
	<g>
	</g>
	<g>
	</g>
	<g>
	</g>
	<g>
	</g>
</svg>
