<?xml version="1.0" encoding="iso-8859-1"?>
<!-- Generator: Adobe Illustrator 18.0.0, SVG Export Plug-In . SVG Version: 6.00 Build 0)  -->
<!DOCTYPE svg PUBLIC "-//W3C//DTD SVG 1.1//EN" "http://www.w3.org/Graphics/SVG/1.1/DTD/svg11.dtd">
<svg version="1.1" id="Capa_1" 
	xmlns="http://www.w3.org/2000/svg" 
	xmlns:xlink="http://www.w3.org/1999/xlink" x="0px" y="0px" viewBox="0 0 58 58" style="enable-background:new 0 0 58 58;" xml:space="preserve">
	<g>
		<path d="M57.786,21.862c-0.007-0.052-0.006-0.104-0.015-0.156c-0.023-0.135-0.055-0.267-0.081-0.401
		c-0.017-0.087-0.034-0.173-0.053-0.26c-0.062-0.29-0.132-0.578-0.21-0.863c-0.011-0.041-0.021-0.082-0.033-0.123
		c-2.751-9.836-14.61-17.063-28.474-17.063c-0.188,0-0.371,0.016-0.558,0.018c-0.495,0.007-0.986,0.023-1.475,0.048
		c-0.284,0.015-0.569,0.027-0.851,0.048c-0.602,0.044-1.197,0.105-1.788,0.177c-0.29,0.035-0.578,0.073-0.865,0.115
		c-0.579,0.083-1.153,0.176-1.719,0.285c-0.289,0.055-0.572,0.119-0.857,0.181c-0.399,0.086-0.794,0.18-1.186,0.278
		c-0.448,0.113-0.889,0.234-1.327,0.362c-0.317,0.093-0.632,0.189-0.943,0.29c-0.579,0.187-1.146,0.391-1.706,0.605
		c-0.183,0.071-0.369,0.138-0.55,0.211C9.427,7.898,4.881,11.547,2.312,16.03c-0.017,0.029-0.034,0.058-0.051,0.087
		c-0.257,0.455-0.492,0.917-0.707,1.388C1.458,17.713,1.36,17.92,1.273,18.13c-0.103,0.251-0.2,0.503-0.292,0.758
		c-0.152,0.422-0.29,0.848-0.408,1.279c-0.018,0.067-0.046,0.13-0.063,0.198c-0.018,0.072-0.022,0.144-0.037,0.216
		C0.168,21.826,0,23.105,0,24.414l0.015,9.628c0,11.754,12.697,20.962,28.906,20.962C44.955,55.004,58,45.415,58,33.628v-9.216
		C58,23.549,57.922,22.699,57.786,21.862z M54.724,24.496c-1.457,0.888-2.059,3.809-2.75,7.838
		c-0.177,1.031-0.344,2.004-0.507,2.646c-0.091,0.36-0.255,0.644-0.364,0.77c-1.904-0.542-3.465-0.431-4.639,0.331
		c-1.834,1.188-2.149,3.556-2.318,4.829c-0.011,0.084-0.05,0.145-0.117,0.179c-0.041,0.021-0.126,0.048-0.228-0.006
		c-0.098-0.065-0.317-0.359-0.478-0.574c-0.713-0.956-1.904-2.563-4.472-2.276c-2.091,0.23-3.191,2.492-4.163,4.488
		c-0.347,0.712-0.674,1.384-0.983,1.817c-0.376,0.528-1.123,0.728-1.773,0.484c-0.043-0.094-0.099-0.253-0.142-0.376
		c-0.271-0.773-0.833-2.382-3.088-2.42c-1.756-0.024-2.561,1.388-3.019,2.234c-0.122,0.227-0.307,0.569-0.369,0.628
		c-0.562,0.279-1.189,0.13-1.523-0.368c-0.207-0.309-0.2-1.171-0.194-1.863c0.011-1.323,0.024-2.971-1.134-3.967
		c-0.591-0.509-1.383-0.761-2.4-0.761c-0.387,0-0.806,0.037-1.26,0.109c-1.29,0.206-2.376,1.176-3.249,1.955
		c-0.316,0.282-0.709,0.634-0.876,0.711c-0.096,0.045-0.186,0.044-0.274-0.006c-0.052-0.028-0.176-0.117-0.202-0.315
		c-0.055-0.418-0.162-0.815-0.29-1.292c-0.728-2.716-3.696-2.851-5.47-2.931c-0.502-0.022-0.976-0.044-1.254-0.109
		c-0.606-0.141-1.086-0.654-1.252-1.34c-0.092-0.383-0.141-1.479-0.188-2.539c-0.174-3.919-0.382-6.55-1.632-7.386
		c-1.346-0.9-2.007-2.48-1.691-3.977c0.026-0.104,0.05-0.209,0.078-0.312c0.12-0.445,0.262-0.884,0.422-1.316
		c0.06-0.162,0.125-0.323,0.191-0.483c0.158-0.386,0.329-0.767,0.518-1.142c0.11-0.217,0.231-0.431,0.352-0.644
		c0.109-0.194,0.225-0.385,0.342-0.576c0.255-0.412,0.527-0.818,0.819-1.214c0.06-0.081,0.119-0.162,0.18-0.242
		c2.48-3.247,6.211-5.93,10.723-7.709c0.124-0.049,0.251-0.094,0.376-0.141c0.57-0.216,1.152-0.419,1.745-0.606
		c0.248-0.078,0.499-0.153,0.751-0.226c0.456-0.132,0.919-0.255,1.387-0.37c0.328-0.08,0.657-0.156,0.99-0.227
		c0.292-0.062,0.584-0.125,0.881-0.181c0.509-0.095,1.024-0.177,1.543-0.25c0.287-0.041,0.576-0.078,0.867-0.112
		c0.537-0.063,1.077-0.117,1.622-0.156c0.279-0.02,0.561-0.032,0.842-0.046c0.431-0.021,0.864-0.035,1.299-0.042
		c0.19-0.003,0.379-0.01,0.57-0.01c12.579,0,23.18,6.179,26.209,14.524c0.022,0.06,0.041,0.121,0.061,0.181
		c0.082,0.234,0.159,0.47,0.228,0.708c0.03,0.102,0.056,0.205,0.083,0.308c0.054,0.199,0.105,0.399,0.15,0.601
		c0.028,0.123,0.052,0.248,0.076,0.372c0.026,0.134,0.049,0.268,0.072,0.403C55.944,23.069,55.53,24.004,54.724,24.496z
		 M28.921,53.004c-15.087,0-26.906-8.329-26.906-18.962c0-0.001-0.009-5.586-0.013-8.246c0.292,0.302,0.606,0.587,0.966,0.826
		c0.547,0.589,0.71,4.27,0.78,5.841c0.059,1.312,0.104,2.349,0.242,2.919c0.345,1.426,1.397,2.507,2.745,2.818
		c0.456,0.106,0.994,0.131,1.616,0.159c1.858,0.084,3.306,0.244,3.655,1.546c0.09,0.335,0.175,0.651,0.212,0.938
		c0.1,0.767,0.557,1.443,1.221,1.809c0.647,0.355,1.406,0.381,2.081,0.068c0.437-0.202,0.868-0.588,1.367-1.033
		c0.678-0.605,1.521-1.358,2.233-1.473c1-0.158,1.707-0.094,2.04,0.193c0.456,0.392,0.446,1.477,0.438,2.434
		c-0.009,1.068-0.018,2.172,0.533,2.994c0.605,0.901,1.584,1.395,2.607,1.395c0.492,0,0.994-0.113,1.469-0.351
		c0.608-0.303,0.928-0.896,1.237-1.468c0.484-0.896,0.72-1.21,1.226-1.185c0.861,0.015,0.978,0.349,1.233,1.08
		c0.184,0.525,0.413,1.181,1.092,1.491c1.554,0.705,3.378,0.246,4.339-1.098c0.406-0.569,0.769-1.315,1.153-2.104
		c0.708-1.455,1.589-3.266,2.583-3.375c1.421-0.158,2.021,0.64,2.65,1.483c0.342,0.459,0.666,0.893,1.138,1.142
		c0.658,0.349,1.438,0.356,2.088,0.02c0.644-0.332,1.085-0.965,1.182-1.692c0.136-1.02,0.362-2.727,1.422-3.413
		c0.691-0.446,1.742-0.465,3.125-0.052c0.459,0.137,0.927,0.083,1.353-0.16c0.922-0.522,1.288-1.721,1.377-2.075
		c0.182-0.719,0.348-1.684,0.54-2.8c0.333-1.943,1.027-5.986,1.82-6.47c0.083-0.051,0.156-0.113,0.235-0.169v7.594
		C56,44.312,43.853,53.004,28.921,53.004z"/>
		<path d="M28.496,16.504c-6.168,0-11,3.075-11,7c0,0.696,0.173,1.396,0.506,2.084c0.011,0.028,0.009,0.058,0.023,0.085
		c1.442,2.89,5.65,4.831,10.472,4.831s9.03-1.941,10.472-4.831c0.013-0.027,0.012-0.057,0.023-0.085
		c0.333-0.688,0.506-1.389,0.506-2.084C39.496,19.579,34.665,16.504,28.496,16.504z M28.496,18.504c4.878,0,9,2.29,9,5
		c0,0.129-0.01,0.257-0.031,0.387c-0.008-0.003-0.018-0.005-0.026-0.009c-0.611-0.235-1.245-0.439-1.892-0.623
		c-0.097-0.028-0.192-0.057-0.29-0.083c-0.627-0.169-1.27-0.313-1.924-0.433c-0.117-0.021-0.234-0.041-0.351-0.061
		c-0.661-0.112-1.332-0.202-2.014-0.264c-0.096-0.009-0.193-0.013-0.29-0.021c-0.719-0.057-1.446-0.093-2.181-0.093
		s-1.462,0.036-2.181,0.093c-0.096,0.008-0.194,0.012-0.29,0.021c-0.682,0.062-1.353,0.152-2.014,0.264
		c-0.118,0.02-0.235,0.04-0.351,0.061c-0.654,0.12-1.297,0.264-1.924,0.433c-0.098,0.026-0.193,0.055-0.29,0.083
		c-0.647,0.184-1.281,0.388-1.892,0.623c-0.008,0.003-0.018,0.005-0.026,0.009c-0.021-0.13-0.031-0.258-0.031-0.387
		C19.496,20.794,23.618,18.504,28.496,18.504z M20.438,25.686c0.034-0.013,0.07-0.024,0.105-0.036
		c0.517-0.19,1.052-0.359,1.598-0.509c0.086-0.024,0.171-0.05,0.258-0.073c0.559-0.147,1.133-0.269,1.716-0.374
		c0.117-0.021,0.233-0.042,0.35-0.061c0.587-0.096,1.183-0.173,1.789-0.227c0.099-0.009,0.2-0.014,0.299-0.022
		c0.641-0.049,1.287-0.08,1.943-0.08s1.302,0.032,1.943,0.08c0.1,0.008,0.2,0.013,0.299,0.022c0.606,0.053,1.202,0.13,1.789,0.227
		c0.117,0.019,0.234,0.04,0.35,0.061c0.583,0.105,1.157,0.227,1.716,0.374c0.087,0.023,0.171,0.049,0.258,0.073
		c0.546,0.151,1.08,0.319,1.598,0.509c0.035,0.013,0.071,0.023,0.105,0.036c-1.512,1.697-4.621,2.818-8.058,2.818
		S21.949,27.383,20.438,25.686z"/>
	</g>
	<g>
	</g>
	<g>
	</g>
	<g>
	</g>
	<g>
	</g>
	<g>
	</g>
	<g>
	</g>
	<g>
	</g>
	<g>
	</g>
	<g>
	</g>
	<g>
	</g>
	<g>
	</g>
	<g>
	</g>
	<g>
	</g>
	<g>
	</g>
	<g>
	</g>
</svg>
