<?xml version="1.0" encoding="iso-8859-1"?>
<!-- Generator: Adobe Illustrator 19.0.0, SVG Export Plug-In . SVG Version: 6.00 Build 0)  -->
<svg version="1.1" id="Capa_1" 
	xmlns="http://www.w3.org/2000/svg" 
	xmlns:xlink="http://www.w3.org/1999/xlink" x="0px" y="0px" viewBox="0 0 512.001 512.001" style="enable-background:new 0 0 512.001 512.001;" xml:space="preserve">
	<g>
		<g>
			<path d="M83.574,197.308H58.693c-4.143,0-7.5,3.358-7.5,7.5s3.357,7.5,7.5,7.5h24.882c4.143,0,7.5-3.358,7.5-7.5
			S87.717,197.308,83.574,197.308z"/>
		</g>
	</g>
	<g>
		<g>
			<path d="M453.308,197.308h-24.881c-4.143,0-7.5,3.358-7.5,7.5s3.357,7.5,7.5,7.5h24.881c4.143,0,7.5-3.358,7.5-7.5
			S457.452,197.308,453.308,197.308z"/>
		</g>
	</g>
	<g>
		<g>
			<path d="M139.38,321.429c-2.93-2.929-7.678-2.929-10.608,0l-17.594,17.594c-2.929,2.929-2.929,7.678,0,10.607
			c2.93,2.929,7.678,2.929,10.608,0l17.594-17.594C142.31,329.107,142.31,324.358,139.38,321.429z"/>
		</g>
	</g>
	<g>
		<g>
			<path d="M256,0c-4.143,0-7.5,3.358-7.5,7.5v24.882c0,4.142,3.358,7.5,7.5,7.5c4.143,0,7.5-3.358,7.5-7.5V7.5
			C263.501,3.358,260.144,0,256,0z"/>
		</g>
	</g>
	<g>
		<g>
			<path d="M400.823,339.023l-17.594-17.594c-2.93-2.929-7.678-2.929-10.608,0c-2.929,2.929-2.929,7.679,0,10.607l17.594,17.594
			c2.93,2.929,7.678,2.929,10.608,0C403.752,346.701,403.752,341.952,400.823,339.023z"/>
		</g>
	</g>
	<g>
		<g>
			<path d="M139.38,77.582l-17.594-17.594c-2.93-2.929-7.678-2.929-10.608,0c-2.929,2.929-2.929,7.678,0,10.607l17.594,17.594
			c2.93,2.929,7.678,2.929,10.608,0C142.31,85.259,142.31,80.51,139.38,77.582z"/>
		</g>
	</g>
	<g>
		<g>
			<path d="M434.591,47.573h-43.336c-10.102,0-18.318,8.218-18.318,18.318s8.218,18.318,18.318,18.318h0.118l-21.242,21.604
			c-24.362-28.194-58.789-46.715-95.723-51.217c-4.093-0.504-7.852,2.425-8.354,6.537c-0.501,4.112,2.426,7.851,6.538,8.353
			c33.653,4.103,65.006,21.136,86.987,47.056l-78.291,79.625l-23.979-17.028c-7.633-5.419-18.074-4.232-24.293,2.76l-62.244,69.973
			c-6.712,7.547-6.033,19.148,1.514,25.863c7.544,6.709,19.121,6.066,25.861-1.513l51.333-57.707l23.321,16.561
			c7.373,5.237,17.329,4.356,23.668-2.092l83.223-84.64c5.165,11.43,8.697,23.507,10.527,36.026
			c0.599,4.099,4.409,6.936,8.507,6.336c4.099-0.599,6.936-4.408,6.336-8.507c-2.313-15.825-7.082-31.014-14.182-45.236
			l25.39-25.822v0.24c0.002,10.101,8.219,18.318,18.32,18.318c10.102,0,18.318-8.218,18.318-18.319V65.891
			C452.909,55.79,444.692,47.573,434.591,47.573z M437.909,111.382c0,4.382-6.635,4.386-6.635,0V92.816
			c0-6.703-8.158-10.028-12.849-5.258L285.777,222.465c-1.148,1.167-2.95,1.328-4.286,0.379l-28.802-20.453
			c-3.121-2.215-7.404-1.726-9.947,1.13l-55.801,62.73c-1.232,1.385-3.331,1.473-4.683,0.273c-1.367-1.216-1.489-3.317-0.274-4.683
			l62.243-69.973c1.079-1.212,3.001-1.493,4.399-0.499l29.19,20.729c2.969,2.107,7.091,1.787,9.691-0.857l127.11-129.274
			c4.651-4.729,1.291-12.759-5.348-12.759h-18.012c-4.382,0-4.385-6.635,0-6.635h43.336c1.829,0,3.317,1.488,3.317,3.317V111.382z" />
		</g>
	</g>
	<g>
		<g>
			<path d="M399.213,210.822c-4.126-0.399-7.792,2.611-8.195,6.733c-4.058,41.396-27.602,79.37-62.981,101.582
			c-14.931,9.375-23.844,25.418-23.844,42.916v30.868H207.81v-31.55c0-16.945-8.855-32.953-23.108-41.775
			c-40.306-24.95-64.37-68.107-64.37-115.445c-0.001-68.352,51.197-126.239,119.091-134.648c4.111-0.509,7.03-4.255,6.521-8.365
			c-0.51-4.111-4.263-7.034-8.366-6.521c-36.08,4.469-69.438,22.042-93.926,49.482c-24.714,27.691-38.322,63.224-38.322,100.053
			c0,26.133,6.797,51.88,19.657,74.461c12.468,21.89,30.386,40.473,51.818,53.74c9.871,6.109,16.003,17.229,16.003,29.02v32.642
			c-7.626,2.65-13.125,9.891-13.125,18.409v10.692c0,4.527,1.564,8.688,4.162,12.001c-2.598,3.313-4.162,7.473-4.162,12.001v10.691
			c0,10.753,8.748,19.501,19.501,19.501h23.58v16.955c0,9.781,7.956,17.738,17.737,17.738h30.996
			c9.781,0,17.737-7.957,17.737-17.738v-16.955h23.58c10.753,0,19.501-8.749,19.501-19.501v-10.691
			c0-4.527-1.564-8.688-4.162-12.001c2.598-3.313,4.162-7.473,4.162-12.001v-10.692c0-8.518-5.498-15.759-13.125-18.409v-31.96
			c0-12.305,6.287-23.598,16.82-30.211c19.141-12.019,35.615-28.485,47.643-47.621c12.323-19.607,20.03-42.154,22.289-65.202
			C406.35,214.896,403.335,211.226,399.213,210.822z M274.237,494.262L274.237,494.262c-0.001,1.483-1.254,2.737-2.737,2.737
			h-30.996c-1.483,0-2.736-1.253-2.736-2.737v-16.955h36.469V494.262z M317.317,457.806c0,2.439-2.061,4.5-4.5,4.5
			c-13.24,0-101.138,0-113.632,0c-2.439,0-4.5-2.061-4.5-4.5v-10.691c0-2.439,2.061-4.5,4.5-4.5h113.632c2.439,0,4.5,2.061,4.5,4.5
			V457.806z M317.317,423.113c0,2.439-2.061,4.5-4.5,4.5H199.185c-2.439,0-4.5-2.061-4.5-4.5v-10.692c0-2.439,2.061-4.5,4.5-4.5
			c24.409,0,92.547,0,113.632,0c2.439,0,4.5,2.061,4.5,4.5V423.113z"/>
		</g>
	</g>
	<g>
	</g>
	<g>
	</g>
	<g>
	</g>
	<g>
	</g>
	<g>
	</g>
	<g>
	</g>
	<g>
	</g>
	<g>
	</g>
	<g>
	</g>
	<g>
	</g>
	<g>
	</g>
	<g>
	</g>
	<g>
	</g>
	<g>
	</g>
	<g>
	</g>
</svg>
