<?xml version="1.0" encoding="iso-8859-1"?>
<!-- Generator: Adobe Illustrator 19.0.0, SVG Export Plug-In . SVG Version: 6.00 Build 0)  -->
<svg version="1.1" id="Capa_1" 
	xmlns="http://www.w3.org/2000/svg" 
	xmlns:xlink="http://www.w3.org/1999/xlink" x="0px" y="0px" viewBox="0 0 512 512" style="enable-background:new 0 0 512 512;" xml:space="preserve">
	<g>
		<g>
			<path d="M367.883,210.949c-31.995,0-58.025,26.03-58.025,58.023s26.03,58.023,58.025,58.023s58.023-26.03,58.023-58.023
			S399.878,210.949,367.883,210.949z M367.883,311.995c-23.723,0-43.024-19.3-43.024-43.023s19.3-43.023,43.024-43.023
			c23.722,0,43.023,19.3,43.023,43.023C410.906,292.695,391.606,311.995,367.883,311.995z"/>
		</g>
	</g>
	<g>
		<g>
			<path d="M493.175,323.07c0-10.694,0-80.233,0-91.645c0-4.142-3.357-7.5-7.5-7.5s-7.5,3.358-7.5,7.5v39.529h-28.593
			c0.252-10.733-1.511-20.743-4.929-30.059c-11.476-31.282-41.559-53.662-76.769-53.662c-13.956,0-27.101,3.522-38.606,9.715
			c-6.613-32.122-31.676-58.2-64.358-65.442c-4.046-0.896-8.049,1.656-8.946,5.7c-0.896,4.044,1.655,8.049,5.699,8.946
			c28.945,6.414,50.635,30.793,53.909,60.002c-17.671,14.681-28.165,35.64-29.325,58.555c-0.004,0.07-0.005,0.14-0.009,0.21
			c-0.109,2.267-0.125,4.131-0.077,6.04c-11.653,8.127-25.26,12.403-39.584,12.403c-38.287,0-69.437-31.149-69.437-69.436
			c0-32.108,21.762-59.843,52.921-67.444c4.024-0.981,6.49-5.04,5.509-9.065c-0.981-4.023-5.041-6.494-9.064-5.508
			c-37.898,9.247-64.367,42.973-64.367,82.018c0,46.559,37.878,84.437,84.438,84.437c14.825,0,29.01-3.781,41.645-10.994
			c0.581,2.525,1.269,5.024,2.093,7.487c-32.141,6.049-57.773,31.067-64.68,62.896H101.797V328.69
			c0-31.835-25.899-57.734-57.734-57.734H15.001V156.895h29.063c31.835,0,57.734-25.9,57.734-57.733V70.098h289.581v29.063
			c0,31.835,25.899,57.733,57.734,57.733h29.063v39.529c0,4.142,3.357,7.5,7.5,7.5s7.5-3.358,7.5-7.5c0-5.807,0-115.949,0-121.77
			c0-10.784-8.773-19.556-19.557-19.556c-10.675,0-443.887,0-454.06,0C8.773,55.097,0,63.87,0,74.654v74.741v129.062v74.74
			c0,10.784,8.773,19.556,19.557,19.556c5.25,0,196.278,0,204.269,0c-1.359,46.363,35.979,84.151,81.678,84.151
			c24.315,0,46.966-10.667,62.408-28.97c15.005,17.703,37.382,28.97,62.352,28.97c45.069,0,81.736-36.667,81.736-81.737
			C512,355.445,504.938,337.261,493.175,323.07z M406.379,70.098h67.239c2.47,0,4.556,2.086,4.556,4.555v67.24h-29.063
			c-23.563,0-42.733-19.17-42.733-42.733V70.098z M15.001,74.654c0-2.469,2.086-4.555,4.556-4.555h67.239v29.063
			c0,23.563-19.17,42.733-42.733,42.733H15.001V74.654z M86.796,357.752H19.557v-0.001c-2.47,0-4.556-2.086-4.556-4.555v-67.239
			h29.063c23.563,0,42.733,19.169,42.733,42.733V357.752z M447.848,285.975c0.999-0.03-0.717-0.019,30.326-0.019v22.983
			c-9.422-6.849-20.53-11.812-32.73-14.092C446.215,292.543,447.191,289.081,447.848,285.975z M305.505,441.902
			c-36.798,0-66.735-29.938-66.735-66.736c0-33.194,24.586-61.675,57.862-66.119c1.611,2.861,3.388,5.599,5.306,8.215
			c-30.338,1.85-54.457,27.108-54.457,57.904c0,31.994,26.03,58.023,58.025,58.023c20.648,0,38.798-10.85,49.085-27.139
			c1.286,3.149,2.936,6.508,4.364,9.052C346.364,431.965,326.707,441.902,305.505,441.902z M318.623,334.191
			c4.831,3.652,10.406,6.981,16.27,9.57c8.68,8.128,13.634,19.506,13.634,31.405c0,23.722-19.3,43.023-43.023,43.023
			c-23.723,0-43.024-19.3-43.024-43.023C262.481,346.185,290.797,325.277,318.623,334.191z M301.228,265.763
			c0.005-0.113,0.009-0.225,0.015-0.338c1.854-35.21,31.079-63.189,66.64-63.189c36.791,0,66.736,29.932,66.736,66.736
			c0,36.908-30.124,66.736-66.736,66.736C330.146,335.708,299.403,304.083,301.228,265.763z M430.263,332.143
			c23.722,0,43.023,19.3,43.023,43.023s-19.3,43.023-43.023,43.023c-23.723,0-43.024-19.3-43.024-43.023
			c0.001-11.888,4.948-23.26,13.614-31.387c5.763-2.544,11.231-5.763,16.286-9.587C421.383,332.832,425.792,332.143,430.263,332.143
			z M430.263,441.902c-36.934,0-66.736-30.087-66.736-66.736c0-8.599,1.571-16.683,4.644-24.458
			c2.911-0.011,6.312-0.212,9.816-0.646c-3.728,7.757-5.747,16.322-5.747,25.104c0,31.994,26.03,58.023,58.024,58.023
			c31.995,0,58.023-26.03,58.023-58.023c0-30.805-24.132-56.069-54.484-57.906c1.928-2.616,3.714-5.352,5.329-8.213
			C472.094,313.409,497,341.742,497,375.165C496.999,411.964,467.061,441.902,430.263,441.902z"/>
		</g>
	</g>
	<g>
		<g>
			<path d="M309.18,369.7v-14.872c3.157,0.254,4.79,1.003,8.197,2.704c1.71,0.859,3.834,0.531,5.196-1.781
			c1.102-1.872,1.839-4.859-0.422-6.741c-3.219-2.672-8.874-3.519-12.972-3.519v-2.218c0-1.264-1.562-2.134-2.872-2.134
			c-1.45,0-2.873,0.883-2.873,2.112v2.366c-9.774,1.288-16.394,6.543-16.394,16.478c0,10.176,7.356,13.535,16.394,16.985v16.815
			c-4.473-0.539-6.609-2.293-10.816-5.45c-1.91-1.431-4-1.2-5.704,1.188c-1.94,2.733-1.761,5.138-0.042,7.456
			c3.19,4.302,10.127,6.819,16.563,6.819v2.389c0,1.284,1.483,2.132,2.873,2.132c1.31,0,2.872-0.862,2.872-2.112v-2.619
			c8.535-1.319,15.971-6.72,15.971-17.914C325.151,377.525,318.7,373.164,309.18,369.7z M304.109,367.84
			c-1.972-0.788-3.59-1.66-4.858-2.619c-1.268-0.958-1.901-2.366-1.901-4.225c0-1.633,0.592-2.943,1.774-3.929
			c1.183-0.985,2.844-1.648,4.985-1.986V367.84z M308.504,395.81v-14.703c5.257,2.303,6.337,4.809,6.337,7.773
			C314.841,392.779,312.32,395.002,308.504,395.81z"/>
		</g>
	</g>
	<g>
		<g>
			<path d="M433.939,369.7v-14.872c3.157,0.254,4.79,1.003,8.197,2.704c1.71,0.859,3.834,0.531,5.196-1.781
			c1.102-1.872,1.839-4.859-0.422-6.741c-3.219-2.672-8.874-3.519-12.972-3.519v-2.218c0-1.264-1.562-2.134-2.872-2.134
			c-1.45,0-2.873,0.883-2.873,2.112v2.366c-9.774,1.288-16.394,6.543-16.394,16.478c0,10.359,7.668,13.654,16.394,16.985v16.815
			c-4.473-0.539-6.609-2.293-10.816-5.45c-1.552-1.163-3.077-1.101-4.226-0.294c-0.563,0.396-1.056,0.89-1.479,1.482
			c-1.978,2.786-1.703,5.216-0.042,7.456c3.191,4.302,10.128,6.819,16.564,6.819v2.389c0,1.284,1.483,2.132,2.873,2.132
			c1.31,0,2.872-0.862,2.872-2.112v-2.619c8.534-1.319,15.971-6.72,15.971-17.914C449.91,377.25,443.069,373.022,433.939,369.7z
			 M428.87,367.84c-5.078-2.028-6.76-3.67-6.76-6.844c0-3.678,3.112-5.339,6.76-5.915V367.84z M433.263,395.81v-14.703
			c5.257,2.303,6.337,4.809,6.337,7.773C439.601,392.779,437.079,395.002,433.263,395.81z"/>
		</g>
	</g>
	<g>
		<g>
			<path d="M371.559,263.506v-14.872c3.157,0.254,4.79,1.003,8.196,2.704c1.71,0.859,3.834,0.531,5.196-1.781
			c1.102-1.872,1.839-4.859-0.422-6.741c-3.219-2.672-8.874-3.519-12.972-3.519v-2.218c0-1.264-1.562-2.134-2.872-2.134
			c-1.45,0-2.873,0.883-2.873,2.112v2.366c-9.774,1.288-16.394,6.543-16.394,16.478c0,10.176,7.356,13.535,16.394,16.985v16.815
			c-4.473-0.539-6.609-2.293-10.816-5.45c-2.102-1.575-4.158-0.979-5.704,1.188c-1.978,2.786-1.703,5.216-0.042,7.456
			c3.189,4.302,10.127,6.819,16.563,6.819v2.389c0,1.284,1.483,2.132,2.873,2.132c1.31,0,2.872-0.862,2.872-2.112v-2.619
			c8.535-1.319,15.971-6.72,15.971-17.914C387.529,271.33,381.079,266.969,371.559,263.506z M366.489,261.647
			c-5.078-2.029-6.76-3.67-6.76-6.844c0-3.678,3.112-5.339,6.76-5.915V261.647z M370.882,289.618v-14.703
			c5.257,2.303,6.337,4.809,6.337,7.773C377.22,286.586,374.699,288.81,370.882,289.618z"/>
		</g>
	</g>
	<g>
		<g>
			<path d="M250.821,209.503v-14.872c3.157,0.254,4.79,1.003,8.196,2.704c1.71,0.859,3.834,0.531,5.196-1.781
			c1.102-1.872,1.839-4.859-0.422-6.741c-3.219-2.672-8.874-3.519-12.972-3.519v-2.218c0-1.264-1.562-2.134-2.872-2.134
			c-1.45,0-2.873,0.883-2.873,2.112v2.366c-9.774,1.288-16.394,6.543-16.394,16.478c0,10.176,7.356,13.535,16.394,16.985v16.815
			c-4.473-0.539-6.609-2.293-10.816-5.45c-2.134-1.598-4.182-0.945-5.704,1.188c-1.978,2.786-1.703,5.216-0.042,7.456
			c3.189,4.302,10.127,6.819,16.563,6.819v2.389c0,1.284,1.483,2.132,2.873,2.132c1.31,0,2.872-0.862,2.872-2.112v-2.619
			c8.534-1.319,15.971-6.72,15.971-17.914C266.792,217.327,260.342,212.966,250.821,209.503z M245.751,207.644
			c-5.078-2.029-6.76-3.67-6.76-6.844c0-3.678,3.112-5.339,6.76-5.915V207.644z M250.145,235.614v-14.703
			c5.257,2.302,6.337,4.808,6.337,7.773C256.483,232.583,253.961,234.806,250.145,235.614z"/>
		</g>
	</g>
	<g>
	</g>
	<g>
	</g>
	<g>
	</g>
	<g>
	</g>
	<g>
	</g>
	<g>
	</g>
	<g>
	</g>
	<g>
	</g>
	<g>
	</g>
	<g>
	</g>
	<g>
	</g>
	<g>
	</g>
	<g>
	</g>
	<g>
	</g>
	<g>
	</g>
</svg>
