<?xml version="1.0" encoding="iso-8859-1"?>
<!-- Generator: Adobe Illustrator 19.0.0, SVG Export Plug-In . SVG Version: 6.00 Build 0)  -->
<svg version="1.1" id="Capa_1" 
	xmlns="http://www.w3.org/2000/svg" 
	xmlns:xlink="http://www.w3.org/1999/xlink" x="0px" y="0px" viewBox="0 0 512.052 512.052" style="enable-background:new 0 0 512.052 512.052;" xml:space="preserve">
	<g transform="translate(0 -1)">
		<g>
			<g>
				<path d="M196.278,154.652h-153.6c-23.552,0.028-42.638,19.114-42.667,42.667v221.867c0.061,51.816,42.051,93.806,93.867,93.867
				h51.2c51.816-0.061,93.806-42.051,93.867-93.867c0-4.713-3.82-8.533-8.533-8.533s-8.533,3.82-8.533,8.533
				c-0.047,42.396-34.404,76.753-76.8,76.8h-51.2c-42.396-0.047-76.753-34.404-76.8-76.8v-128h204.8v59.733
				c0,4.713,3.82,8.533,8.533,8.533s8.533-3.82,8.533-8.533v-153.6C238.917,173.767,219.831,154.681,196.278,154.652z
				 M221.878,274.119h-204.8v-76.8c0-14.138,11.462-25.6,25.6-25.6h68.267v76.8c0,4.713,3.82,8.533,8.533,8.533
				s8.533-3.82,8.533-8.533v-76.8h68.267c14.138,0,25.6,11.461,25.6,25.6V274.119z"/>
				<path d="M420.62,225.394c-3.3,3.365-3.3,8.752,0,12.117c3.346,3.346,8.771,3.346,12.117,0c3.346-3.346,3.346-8.771,0-12.117
				C429.315,222.236,424.042,222.236,420.62,225.394z"/>
				<path d="M426.678,257.052c-4.713,0-8.533,3.82-8.533,8.533v170.667c0,32.99-26.744,59.733-59.733,59.733
				s-59.733-26.744-59.733-59.733V94.919c0-51.841-42.026-93.867-93.867-93.867s-93.867,42.026-93.867,93.867v34.133
				c0,4.713,3.82,8.533,8.533,8.533s8.533-3.82,8.533-8.533V94.919c0-42.415,34.385-76.8,76.8-76.8s76.8,34.385,76.8,76.8v341.333
				c0.047,42.396,34.404,76.753,76.8,76.8c42.396-0.047,76.753-34.404,76.8-76.8V265.586
				C435.212,260.873,431.391,257.052,426.678,257.052z"/>
				<path d="M512.012,83.971c-1.761-45.048-37.878-81.162-82.927-82.918c-23.073-0.815-45.463,7.911-61.901,24.124
				c-16.595,16.029-25.927,38.138-25.839,61.21c0,4.713,3.82,8.533,8.533,8.533s8.533-3.821,8.533-8.533
				c-0.008-18.448,7.451-36.113,20.678-48.973c13.226-12.86,31.094-19.82,49.535-19.294c36.029,1.407,64.914,30.292,66.321,66.321
				c0.935,35.821-25.915,66.3-61.568,69.888c-8.695,0.848-15.304,8.194-15.232,16.93v26.061c0,4.713,3.82,8.533,8.533,8.533
				s8.533-3.82,8.533-8.533l-0.213-26.001C479.577,166.852,513.164,128.758,512.012,83.971z"/>
			</g>
		</g>
	</g>
	<g>
	</g>
	<g>
	</g>
	<g>
	</g>
	<g>
	</g>
	<g>
	</g>
	<g>
	</g>
	<g>
	</g>
	<g>
	</g>
	<g>
	</g>
	<g>
	</g>
	<g>
	</g>
	<g>
	</g>
	<g>
	</g>
	<g>
	</g>
	<g>
	</g>
</svg>
