<svg viewBox="-49 1 511 511.99993" 
    xmlns="http://www.w3.org/2000/svg">
    <path d="m382.695312 136.601562c.019532-.488281.027344-.976562.027344-1.46875 0-22.335937-18.21875-40.503906-40.605468-40.503906-.984376 0-1.972657.035156-2.960938.105469-3.003906-5.789063-7.363281-10.753906-12.738281-14.507813-.324219-22.0625-18.414063-39.914062-40.605469-39.914062-8.027344 0-15.816406 2.394531-22.410156 6.753906-7.464844-10.800781-19.921875-17.578125-33.457032-17.578125-8.007812 0-15.75 2.347657-22.347656 6.699219-3.066406-2.023438-6.394531-3.617188-9.890625-4.742188-4.183593-18.011718-20.613281-31.445312-39.566406-31.445312-18.9375 0-34.96875 12.824219-39.398437 30.648438-13.121094 3.203124-23.824219 12.785156-28.46875 25.378906-.8125-.046875-1.628907-.074219-2.445313-.074219-22.386719 0-40.605469 18.171875-40.605469 40.507813 0 2.113281.164063 4.214843.492188 6.289062-10.136719 7.597656-16.238282 19.550781-16.238282 32.386719 0 .714843.019532 1.4375.058594 2.152343-25.570312 9.261719-32.777344 28.859376-30.699218 44.941407 1.933593 14.925781 11.601562 27.175781 23.398437 30.929687v13.085938c0 6.730468 5.476563 12.203125 12.203125 12.203125h4.160156l38.980469 254.421875c1.695313 11.085937 11.066406 19.128906 22.277344 19.128906h211.675781c11.210938 0 20.582031-8.042969 22.277344-19.128906l38.980468-254.421875h4.160157c6.726562 0 12.203125-5.476563 12.203125-12.203125v-13.097656c12.726562-3.996094 22.574218-17.542969 23.644531-33.953126 1.042969-16.0625-6.960937-35.9375-32.101563-42.59375zm-280.839843 360.410157c-3.753907 0-6.894531-2.695313-7.464844-6.410157l-38.628906-252.152343h30.410156l27.441406 258.5625zm26.828125 0-27.4375-258.5625h30.546875l4.453125 69.941406c-9.316406 13.769531-14.765625 30.359375-14.765625 48.199219 0 21.75 8.113281 41.632812 21.453125 56.816406l5.320312 83.605469zm34.59375 0-4.421875-69.429688c6.9375 4.789063 14.601562 8.589844 22.796875 11.191407l1.234375 58.238281zm54.226562 0h-19.625l-1.164062-54.933594c3.597656.460937 7.257812.726563 10.976562.726563 3.722656 0 7.382813-.265626 10.980469-.726563zm34.605469 0h-19.609375l1.234375-58.238281c8.195313-2.601563 15.859375-6.402344 22.796875-11.191407zm-44.417969-69.199219c-39.269531 0-71.222656-31.949219-71.222656-71.222656 0-39.273438 31.953125-71.222656 71.222656-71.222656 39.273438 0 71.222656 31.949218 71.222656 71.222656 0 39.273437-31.949218 71.222656-71.222656 71.222656zm-60.878906-189.363281h30.585938l.789062 37.128906c-10.390625 3.800781-19.847656 9.550781-27.941406 16.796875zm45.582031 0h30.597657l-.703126 33.1875c-4.75-.8125-9.621093-1.261719-14.597656-1.261719-4.976562 0-9.847656.449219-14.59375 1.261719zm44.804688 37.132812.785156-37.132812h30.589844l-3.433594 53.925781c-8.09375-7.246094-17.550781-12.996094-27.941406-16.792969zm83.792969 215.019531c-.566407 3.714844-3.707032 6.410157-7.460938 6.410157h-11.757812l2.636718-24.84375c.4375-4.113281-2.546875-7.804688-6.660156-8.242188-4.101562-.429687-7.808594 2.546875-8.246094 6.664063l-2.804687 26.421875h-19.570313l5.324219-83.605469c13.335937-15.183594 21.453125-35.066406 21.453125-56.816406 0-17.839844-5.449219-34.429688-14.765625-48.199219l4.453125-69.941406h30.546875l-20.921875 197.144531c-.4375 4.117188 2.546875 7.808594 6.664062 8.242188.265626.027343.53125.042968.796876.042968 3.785156 0 7.035156-2.855468 7.445312-6.703125l21.089844-198.726562h30.410156zm78.84375-312.378906c-.527344 8.089844-4.785157 16.738282-11.230469 19.890625-2.234375-2.894531-5.726563-4.769531-9.65625-4.769531h-257.007813c-4.136718 0-7.492187 3.355469-7.492187 7.492188 0 4.140624 3.355469 7.496093 7.492187 7.496093h254.222656v15.128907h-336.941406v-15.128907h47.550782c4.140624 0 7.496093-3.355469 7.496093-7.496093 0-4.136719-3.355469-7.492188-7.496093-7.492188h-50.335938c-3.914062 0-7.398438 1.859375-9.632812 4.738281-5.445313-2.785156-10.070313-9.796875-11.101563-17.773437-.886719-6.863282-.128906-23.582032 26.039063-30.511719 3.910156-1.035156 6.296874-4.988281 5.382812-8.929687-.4375-1.898438-.660156-3.828126-.660156-5.730469 0-9.300781 5.105468-17.875 13.324218-22.378907 3.125-1.710937 4.609376-5.386718 3.558594-8.789062-.753906-2.425781-1.132812-4.949219-1.132812-7.507812 0-14.070313 11.492187-25.515626 25.613281-25.515626 2.058594 0 4.125.25 6.140625.746094 2.019531.496094 4.152344.132813 5.894531-1.007812 1.742188-1.140625 2.929688-2.953125 3.28125-5.003906 1.941407-11.3125 11.304688-19.980469 22.769531-21.078126 3.558594-.339843 6.382813-3.144531 6.742188-6.699218 1.332031-13.0625 12.289062-22.914063 25.484375-22.914063 13.121094 0 24.324219 10.191407 25.503906 23.199219.304688 3.363281 2.820313 6.109375 6.144531 6.703125 4.761719.851563 9.175782 3.03125 12.757813 6.304687 2.863281 2.613282 7.246094 2.613282 10.109375 0 4.738281-4.328124 10.878906-6.714843 17.289062-6.714843 10.777344 0 20.46875 6.804687 24.117188 16.929687.894531 2.480469 3.03125 4.308594 5.621094 4.816406 2.59375.5 5.257812-.394531 7.015625-2.359374 4.871093-5.441407 11.839843-8.5625 19.117187-8.5625 14.125 0 25.617188 11.445312 25.617188 25.515624 0 .882813-.050782 1.785157-.144532 2.6875-.320312 3.03125 1.226563 5.953126 3.914063 7.390626 5.8125 3.113281 10.15625 8.253906 12.230469 14.472656 1.226562 3.675781 5.046875 5.804687 8.820312 4.929687 1.9375-.453125 3.910156-.683593 5.863282-.683593 14.125 0 25.613281 11.445312 25.613281 25.515624 0 1.910157-.21875 3.835938-.65625 5.726563-.476563 2.042969-.070313 4.1875 1.109375 5.917969 1.183594 1.730468 3.035156 2.886718 5.109375 3.1875 26.085937 3.808594 26.914062 22.59375 26.542969 28.257812zm0 0"/>
    <path d="m207.691406 299.570312c-31.4375 0-57.015625 25.578126-57.015625 57.019532s25.578125 57.019531 57.015625 57.019531c31.441406 0 57.019532-25.578125 57.019532-57.019531s-25.578126-57.019532-57.019532-57.019532zm0 99.050782c-23.171875 0-42.027344-18.855469-42.027344-42.03125 0-23.175782 18.851563-42.03125 42.027344-42.03125 23.175782 0 42.03125 18.855468 42.03125 42.03125 0 23.175781-18.855468 42.03125-42.03125 42.03125zm0 0"/>
    <path d="m119.332031 78.871094c-11.609375 0-21.054687 9.441406-21.054687 21.050781 0 4.140625 3.355468 7.496094 7.496094 7.496094 4.140624 0 7.496093-3.355469 7.496093-7.496094 0-3.34375 2.71875-6.0625 6.0625-6.0625 4.140625 0 7.492188-3.355469 7.492188-7.496094s-3.355469-7.492187-7.492188-7.492187zm0 0"/>
    <path d="m192.503906 148.3125c-11.609375 0-21.050781 9.445312-21.050781 21.050781 0 4.140625 3.355469 7.496094 7.492187 7.496094 4.140626 0 7.496094-3.355469 7.496094-7.496094 0-3.339843 2.722656-6.0625 6.0625-6.0625 4.140625 0 7.496094-3.351562 7.496094-7.492187s-3.355469-7.496094-7.496094-7.496094zm0 0"/>
    <path d="m84.285156 142.953125c-12.886718 0-23.371094 10.484375-23.371094 23.371094 0 4.140625 3.355469 7.496093 7.496094 7.496093s7.496094-3.355468 7.496094-7.496093c0-4.621094 3.761719-8.382813 8.378906-8.382813 4.140625 0 7.496094-3.351562 7.496094-7.492187s-3.355469-7.496094-7.496094-7.496094zm0 0"/>
    <path d="m212.425781 58.648438c-11.609375 0-21.054687 9.445312-21.054687 21.050781 0 4.140625 3.355468 7.496093 7.496094 7.496093 4.140624 0 7.496093-3.355468 7.496093-7.496093 0-3.339844 2.71875-6.058594 6.0625-6.058594 4.136719 0 7.492188-3.355469 7.492188-7.496094s-3.355469-7.496093-7.492188-7.496093zm0 0"/>
    <path d="m286.410156 111.636719c-11.609375 0-21.050781 9.445312-21.050781 21.050781 0 4.140625 3.351563 7.496094 7.492187 7.496094 4.140626 0 7.496094-3.355469 7.496094-7.496094 0-3.339844 2.71875-6.0625 6.0625-6.0625 4.140625 0 7.496094-3.351562 7.496094-7.492188 0-4.140624-3.355469-7.496093-7.496094-7.496093zm0 0"/>
</svg>