<?xml version="1.0" encoding="iso-8859-1"?>
<!-- Generator: Adobe Illustrator 19.0.0, SVG Export Plug-In . SVG Version: 6.00 Build 0)  -->
<svg version="1.1" id="Capa_1" 
	xmlns="http://www.w3.org/2000/svg" 
	xmlns:xlink="http://www.w3.org/1999/xlink" x="0px" y="0px" viewBox="0 0 512 512" style="enable-background:new 0 0 512 512;" xml:space="preserve">
	<g>
		<g>
			<path d="M418.684,99.322c5.532,2.548,12.513,0.994,17.37-3.864l17.384-17.382c3.473-3.473,5.073-8.188,4.283-12.613
			c-0.685-3.826-3.071-6.939-6.551-8.542l-18.334-8.443l-8.445-18.334c-1.603-3.479-4.716-5.867-8.542-6.55
			c-4.425-0.792-9.14,0.81-12.613,4.283l-17.383,17.383c-4.858,4.859-6.411,11.841-3.863,17.37l8.225,17.861l-10.559,10.559
			c-0.253-0.234-0.5-0.475-0.755-0.708c-31.35-28.725-70.884-46.153-112.856-50.053V18.076C266.046,8.108,257.939,0,247.972,0
			c-9.967,0-18.075,8.108-18.075,18.075v22.223C131.429,49.445,54.08,132.523,54.08,233.34c0,48.614,18.073,95.112,50.891,130.931
			c20.792,22.692,46.351,39.871,74.551,50.507l-20.375,74.366c-2.639,9.635,3.018,19.569,12.66,22.209
			c9.669,2.644,19.584-3.098,22.204-12.657l20.381-74.39c5.08,0.888,10.21,1.587,15.383,2.069c4.127,0.384,7.779-2.651,8.163-6.772
			c0.384-4.125-2.648-7.779-6.772-8.164c-91.833-8.555-162.085-84.637-162.085-178.099c0-98.616,80.213-178.832,178.798-178.89
			c0.031,0,0.062-0.001,0.093-0.001c0.038,0,0.077,0.001,0.115,0.001c45.134,0.02,88.186,16.65,121.188,46.98l-15.609,15.609
			c-27.94-25.413-65.039-40.924-105.694-40.924c-86.694,0-157.226,70.531-157.226,157.226s70.531,157.225,157.226,157.225
			s157.226-70.531,157.226-157.225c0-40.654-15.511-77.754-40.924-105.694l15.612-15.612c25.564,27.824,42.411,63.976,46.186,104.5
			c0.385,4.124,4.04,7.156,8.163,6.772c4.125-0.384,7.156-4.039,6.772-8.164c-3.963-42.546-21.834-82.281-50.743-113.487
			l10.56-10.56L418.684,99.322z M194.347,419.701c1.632,0.469,3.271,0.916,4.917,1.342c0.145,0.038,0.29,0.082,0.437,0.12
			l-20.156,73.569c-0.438,1.597-2.132,2.601-3.777,2.152c-1.635-0.448-2.601-2.138-2.151-3.776l20.155-73.564
			C193.962,419.599,194.156,419.646,194.347,419.701z M251.046,39.475c-2.033-0.034-4.222-0.032-6.147,0v-21.4
			c0-1.695,1.379-3.074,3.074-3.074c1.694,0,3.073,1.379,3.073,3.074V39.475z M390.197,233.341
			c0,78.422-63.802,142.224-142.225,142.224s-142.225-63.802-142.225-142.224S169.549,91.116,247.972,91.116
			c36.519,0,69.862,13.84,95.074,36.543l-16.626,16.626c-20.936-18.464-48.404-29.686-78.447-29.686
			c-65.475,0-118.741,53.267-118.741,118.741S182.5,352.081,247.973,352.081s118.741-53.267,118.741-118.741
			c0-30.044-11.222-57.512-29.686-78.448l16.626-16.626C376.358,163.478,390.197,196.822,390.197,233.341z M242.668,238.645
			c2.93,2.929,7.678,2.929,10.608,0l18.331-18.331c2.14,3.865,3.362,8.305,3.362,13.028c0,14.886-12.111,26.997-26.997,26.997
			s-26.997-12.111-26.997-26.997c0-14.886,12.111-26.997,26.997-26.997c4.722,0,9.163,1.222,13.028,3.361l-18.332,18.332
			C239.739,230.967,239.739,235.716,242.668,238.645z M271.872,198.834c-6.789-4.716-15.024-7.491-23.898-7.491
			c-23.157,0-41.997,18.84-41.997,41.997s18.84,41.997,41.997,41.997c23.157,0,41.997-18.84,41.997-41.997
			c0-8.875-2.774-17.11-7.491-23.898l15.632-15.632c8.6,10.885,13.754,24.613,13.754,39.53c0,35.23-28.662,63.892-63.892,63.892
			s-63.892-28.662-63.892-63.892s28.662-63.892,63.892-63.892c14.918,0,28.646,5.153,39.53,13.754L271.872,198.834z
			 M247.972,154.449c-43.501,0-78.892,35.391-78.892,78.892c0,43.501,35.391,78.893,78.892,78.893s78.892-35.391,78.892-78.893
			c0-19.055-6.792-36.554-18.081-50.204l17.623-17.623c15.76,18.199,25.306,41.919,25.306,67.827
			c0,57.202-46.538,103.74-103.74,103.74c-57.202,0-103.74-46.538-103.74-103.74c0-57.202,46.538-103.74,103.74-103.74
			c25.907,0,49.627,9.547,67.827,25.305l-17.624,17.623C284.526,161.241,267.028,154.449,247.972,154.449z M428.792,63.13
			l12.584,5.795l-15.928,15.927c-0.372,0.372-0.729,0.555-0.944,0.635l-12.372-5.697L428.792,63.13z M396.463,55.864l15.927-15.927
			l5.795,12.584l-16.66,16.66l-5.697-12.372C395.907,56.593,396.091,56.236,396.463,55.864z"/>
		</g>
	</g>
	<g>
		<g>
			<path d="M434.235,243.373c-4.11-0.379-7.778,2.647-8.163,6.772c-7.994,85.827-76.16,153.365-161.293,161.294
			c-4.125,0.384-7.156,4.039-6.772,8.164c0.384,4.123,4.038,7.156,8.163,6.772c5.192-0.484,10.321-1.182,15.384-2.065l20.379,74.385
			c2.603,9.498,12.479,15.32,22.207,12.657c9.637-2.639,15.298-12.572,12.658-22.209l-20.368-74.34
			c67.928-25.588,117.581-88.133,124.579-163.266C441.391,247.412,438.36,243.758,434.235,243.373z M322.329,493.108
			c0.446,1.628-0.506,3.326-2.151,3.777c-1.643,0.453-3.341-0.555-3.778-2.151l-20.155-73.568c1.9-0.486,3.785-1.006,5.662-1.548
			c0.089-0.026,0.179-0.048,0.267-0.073L322.329,493.108z"/>
		</g>
	</g>
	<g>
	</g>
	<g>
	</g>
	<g>
	</g>
	<g>
	</g>
	<g>
	</g>
	<g>
	</g>
	<g>
	</g>
	<g>
	</g>
	<g>
	</g>
	<g>
	</g>
	<g>
	</g>
	<g>
	</g>
	<g>
	</g>
	<g>
	</g>
	<g>
	</g>
</svg>
