<?xml version="1.0" encoding="iso-8859-1"?>
<!-- Generator: Adobe Illustrator 19.0.0, SVG Export Plug-In . SVG Version: 6.00 Build 0)  -->
<svg version="1.1" id="Capa_1" 
	xmlns="http://www.w3.org/2000/svg" 
	xmlns:xlink="http://www.w3.org/1999/xlink" x="0px" y="0px" viewBox="0 0 512 512" style="enable-background:new 0 0 512 512;" xml:space="preserve">
	<g>
		<g>
			<g>
				<path d="M494.933,128H307.2c-4.713,0-8.533,3.82-8.533,8.533s3.82,8.533,8.533,8.533h187.733v349.867H17.067V145.067h17.067
				c4.713,0,8.533-3.82,8.533-8.533S38.846,128,34.133,128H17.067C7.641,128,0,135.641,0,145.067v349.867
				C0,504.359,7.641,512,17.067,512h477.867c9.426,0,17.067-7.641,17.067-17.067V145.067C512,135.641,504.359,128,494.933,128z"/>
				<path d="M102.4,443.733h119.467c23.552-0.028,42.638-19.114,42.667-42.667v-358.4C264.505,19.114,245.419,0.028,221.867,0H102.4
				C78.848,0.028,59.762,19.114,59.733,42.667v358.4C59.762,424.619,78.848,443.705,102.4,443.733z M76.8,42.667
				c0-14.138,11.462-25.6,25.6-25.6h119.467c14.138,0,25.6,11.462,25.6,25.6v358.4c0,14.138-11.461,25.6-25.6,25.6H102.4
				c-14.138,0-25.6-11.462-25.6-25.6V42.667z"/>
				<path d="M315.733,273.067H460.8c9.426,0,17.067-7.641,17.067-17.067v-68.267c0-9.426-7.641-17.067-17.067-17.067h-17.067
				c-4.713,0-8.533,3.82-8.533,8.533s3.82,8.533,8.533,8.533H460.8V256H315.733v-68.267h85.333c4.713,0,8.533-3.82,8.533-8.533
				s-3.82-8.533-8.533-8.533h-85.333c-9.426,0-17.067,7.641-17.067,17.067V256C298.667,265.426,306.308,273.067,315.733,273.067z"/>
				<path d="M307.2,315.733h25.6c4.713,0,8.533-3.82,8.533-8.533s-3.821-8.533-8.533-8.533h-25.6c-4.713,0-8.533,3.82-8.533,8.533
				S302.487,315.733,307.2,315.733z"/>
				<path d="M469.333,298.667h-25.6c-4.713,0-8.533,3.82-8.533,8.533s3.82,8.533,8.533,8.533h25.6c4.713,0,8.533-3.82,8.533-8.533
				S474.046,298.667,469.333,298.667z"/>
				<path d="M401.067,298.667h-25.6c-4.713,0-8.533,3.82-8.533,8.533s3.82,8.533,8.533,8.533h25.6c4.713,0,8.533-3.82,8.533-8.533
				S405.78,298.667,401.067,298.667z"/>
				<path d="M307.2,358.4h25.6c4.713,0,8.533-3.82,8.533-8.533s-3.821-8.533-8.533-8.533h-25.6c-4.713,0-8.533,3.82-8.533,8.533
				S302.487,358.4,307.2,358.4z"/>
				<path d="M469.333,341.333h-25.6c-4.713,0-8.533,3.82-8.533,8.533s3.82,8.533,8.533,8.533h25.6c4.713,0,8.533-3.82,8.533-8.533
				S474.046,341.333,469.333,341.333z"/>
				<path d="M401.067,341.333h-25.6c-4.713,0-8.533,3.82-8.533,8.533s3.82,8.533,8.533,8.533h25.6c4.713,0,8.533-3.82,8.533-8.533
				S405.78,341.333,401.067,341.333z"/>
				<path d="M307.2,401.067h25.6c4.713,0,8.533-3.821,8.533-8.533c0-4.713-3.821-8.533-8.533-8.533h-25.6
				c-4.713,0-8.533,3.821-8.533,8.533C298.667,397.246,302.487,401.067,307.2,401.067z"/>
				<path d="M469.333,384h-25.6c-4.713,0-8.533,3.821-8.533,8.533c0,4.713,3.82,8.533,8.533,8.533h25.6
				c4.713,0,8.533-3.821,8.533-8.533C477.867,387.821,474.046,384,469.333,384z"/>
				<path d="M401.067,384h-25.6c-4.713,0-8.533,3.821-8.533,8.533c0,4.713,3.82,8.533,8.533,8.533h25.6
				c4.713,0,8.533-3.821,8.533-8.533C409.6,387.821,405.78,384,401.067,384z"/>
				<path d="M307.2,443.733h25.6c4.713,0,8.533-3.82,8.533-8.533s-3.821-8.533-8.533-8.533h-25.6c-4.713,0-8.533,3.82-8.533,8.533
				S302.487,443.733,307.2,443.733z"/>
				<path d="M469.333,426.667h-25.6c-4.713,0-8.533,3.82-8.533,8.533s3.82,8.533,8.533,8.533h25.6c4.713,0,8.533-3.82,8.533-8.533
				S474.046,426.667,469.333,426.667z"/>
				<path d="M401.067,426.667h-25.6c-4.713,0-8.533,3.82-8.533,8.533s3.82,8.533,8.533,8.533h25.6c4.713,0,8.533-3.82,8.533-8.533
				S405.78,426.667,401.067,426.667z"/>
			</g>
		</g>
	</g>
	<g>
	</g>
	<g>
	</g>
	<g>
	</g>
	<g>
	</g>
	<g>
	</g>
	<g>
	</g>
	<g>
	</g>
	<g>
	</g>
	<g>
	</g>
	<g>
	</g>
	<g>
	</g>
	<g>
	</g>
	<g>
	</g>
	<g>
	</g>
	<g>
	</g>
</svg>
